<svg width="100" height="100" viewBox="0 0 100 100" fill="none" xmlns="http://www.w3.org/2000/svg">
<path d="M88.1379 81.1122H83.2818C84.9463 79.7392 86.2866 78.015 87.2065 76.0632C88.1264 74.1113 88.6033 71.9802 88.6028 69.8224V57.9165C88.6025 57.4699 88.425 57.0416 88.1091 56.7257C87.7933 56.4099 87.365 56.2323 86.9183 56.2321H60.9697C60.523 56.2323 60.0947 56.4099 59.7789 56.7257C59.463 57.0416 59.2855 57.4699 59.2852 57.9165V69.8224C59.2848 71.9802 59.7616 74.1113 60.6815 76.0632C61.6014 78.015 62.9417 79.7392 64.6063 81.1122H47.6422C47.8145 80.9476 47.9916 80.7898 48.1542 80.6146C49.2828 79.3933 50.1481 77.9529 50.6962 76.3829C51.2443 74.8129 51.4636 73.1469 51.3403 71.4886L48.956 40.1179C48.4991 33.961 46.0794 28.1129 42.0526 23.433C41.4301 22.7676 41.0881 21.8878 41.0978 20.9767C41.1075 20.0656 41.4681 19.1933 42.1046 18.5412C43.3976 17.3264 44.4287 15.8601 45.1345 14.2323C45.8404 12.6046 46.206 10.8497 46.2089 9.07546V6.68447C46.2087 6.2378 46.0311 5.8095 45.7153 5.49365C45.3994 5.17781 44.9711 5.00026 44.5244 5H19.2284C18.7825 5.00127 18.3553 5.17931 18.0405 5.49507C17.7256 5.81083 17.5488 6.23856 17.5488 6.68447V9.0745C17.552 10.8491 17.9178 12.6044 18.624 14.2325C19.3301 15.8606 20.3616 17.3272 21.6551 18.5422C22.291 19.1941 22.6512 20.066 22.6609 20.9767C22.6706 21.8874 22.329 22.7667 21.707 23.432C17.6796 28.1119 15.2602 33.9605 14.8045 40.1179C14.7707 40.5634 14.9152 41.0041 15.2063 41.343C15.4974 41.6819 15.9112 41.8913 16.3567 41.9251C16.8021 41.9589 17.2428 41.8144 17.5817 41.5233C17.9206 41.2323 18.13 40.8185 18.1639 40.373C18.5675 34.9304 20.7062 29.7608 24.2655 25.6237C25.4542 24.3007 26.0858 22.5696 26.0284 20.7919C25.971 19.0142 25.2291 17.3274 23.9575 16.0838C22.9941 15.1889 22.2265 14.104 21.7034 12.8976C21.1802 11.6912 20.9127 10.3895 20.9177 9.0745V8.36895H42.8448V9.0745C42.8499 10.3893 42.5825 11.691 42.0593 12.8972C41.5361 14.1035 40.7685 15.1882 39.805 16.0829C38.5331 17.3264 37.7908 19.0132 37.733 20.791C37.6753 22.5689 38.3066 24.3003 39.4951 25.6237C43.0543 29.7613 45.1929 34.9312 45.5967 40.374L47.98 71.7437C48.0709 72.9394 47.9139 74.141 47.5189 75.2731C47.1238 76.4053 46.4991 77.4437 45.684 78.3233C44.8689 79.2028 43.8809 79.9045 42.782 80.3844C41.6831 80.8643 40.4969 81.1121 39.2978 81.1122H24.458C23.2588 81.1122 22.0725 80.8646 20.9735 80.3847C19.8744 79.9048 18.8863 79.2032 18.0711 78.3236C17.2559 77.4441 16.6312 76.4056 16.236 75.2734C15.8409 74.1411 15.6839 72.9395 15.7748 71.7437L16.2407 65.6199C16.2574 65.3993 16.2306 65.1776 16.1616 64.9674C16.0927 64.7572 15.983 64.5627 15.8389 64.3948C15.6948 64.227 15.519 64.0892 15.3216 63.9894C15.1242 63.8895 14.9091 63.8294 14.6885 63.8127C14.468 63.7959 14.2463 63.8228 14.0361 63.8917C13.8259 63.9607 13.6313 64.0703 13.4635 64.2145C13.2957 64.3586 13.1579 64.5344 13.058 64.7317C12.9581 64.9291 12.8981 65.1442 12.8813 65.3648L12.4155 71.4886C12.2918 73.1467 12.5108 74.8126 13.0587 76.3825C13.6067 77.9523 14.4719 79.3926 15.6006 80.6136C15.7632 80.7888 15.9413 80.9467 16.1136 81.1122H12.0256C11.1069 81.1014 10.1952 81.273 9.34333 81.6171C8.49143 81.9612 7.71628 82.4709 7.06281 83.1168C6.40933 83.7626 5.89051 84.5317 5.53642 85.3795C5.18233 86.2273 5 87.1369 5 88.0556C5 88.9744 5.18233 89.884 5.53642 90.7318C5.89051 91.5796 6.40933 92.3487 7.06281 92.9945C7.71628 93.6404 8.49143 94.1501 9.34333 94.4942C10.1952 94.8383 11.1069 95.0099 12.0256 94.999H64.4253C64.872 94.999 65.3005 94.8216 65.6164 94.5057C65.9323 94.1898 66.1098 93.7613 66.1098 93.3146C66.1098 92.8678 65.9323 92.4394 65.6164 92.1235C65.3005 91.8076 64.872 91.6301 64.4253 91.6301H12.0256C11.5513 91.6379 11.0802 91.5512 10.6397 91.375C10.1992 91.1989 9.79814 90.9369 9.45994 90.6042C9.12175 90.2715 8.85315 89.8748 8.66981 89.4372C8.48646 88.9997 8.39204 88.53 8.39204 88.0556C8.39204 87.5812 8.48646 87.1116 8.66981 86.674C8.85315 86.2365 9.12175 85.8398 9.45994 85.5071C9.79814 85.1744 10.1992 84.9124 10.6397 84.7363C11.0802 84.5601 11.5513 84.4734 12.0256 84.4812H88.1379C89.0757 84.4966 89.97 84.8799 90.6277 85.5486C91.2855 86.2173 91.6542 87.1177 91.6542 88.0556C91.6542 88.9936 91.2855 89.894 90.6277 90.5627C89.97 91.2313 89.0757 91.6147 88.1379 91.6301H76.0299C75.5831 91.6301 75.1547 91.8076 74.8388 92.1235C74.5229 92.4394 74.3454 92.8678 74.3454 93.3146C74.3454 93.7613 74.5229 94.1898 74.8388 94.5057C75.1547 94.8216 75.5831 94.999 76.0299 94.999H88.1379C89.9652 94.9775 91.7104 94.2365 92.995 92.9367C94.2796 91.6369 95 89.8831 95 88.0556C95 86.2282 94.2796 84.4744 92.995 83.1746C91.7104 81.8748 89.9652 81.1338 88.1379 81.1122ZM62.6542 69.8224V59.601H85.2338V69.8224C85.2338 72.8167 84.0444 75.6883 81.9271 77.8055C79.8099 79.9228 76.9383 81.1122 73.944 81.1122C70.9498 81.1122 68.0782 79.9228 65.9609 77.8055C63.8437 75.6883 62.6542 72.8167 62.6542 69.8224ZM13.7611 53.7785L13.8709 52.3347C13.8877 52.1141 13.9478 51.899 14.0477 51.7017C14.1476 51.5043 14.2855 51.3286 14.4533 51.1845C14.6212 51.0404 14.8158 50.9308 15.026 50.8619C15.2362 50.793 15.458 50.7662 15.6785 50.783C15.8991 50.7999 16.1142 50.8599 16.3116 50.9599C16.5089 51.0598 16.6847 51.1977 16.8287 51.3655C16.9728 51.5334 17.0824 51.728 17.1513 51.9382C17.2202 52.1484 17.247 52.3702 17.2302 52.5907L17.1204 54.0346C17.0882 54.4577 16.8976 54.8531 16.5865 55.1418C16.2755 55.4305 15.8671 55.5913 15.4427 55.592C15.3994 55.592 15.3561 55.592 15.3128 55.592C15.0917 55.5752 14.876 55.5149 14.6783 55.4146C14.4805 55.3143 14.3045 55.1759 14.1604 55.0075C14.0162 54.839 13.9067 54.6437 13.8382 54.4328C13.7697 54.2219 13.7435 53.9996 13.7611 53.7785ZM31.8774 62.3077C33.539 62.3077 35.1633 61.815 36.5449 60.8919C37.9264 59.9687 39.0032 58.6567 39.6391 57.1215C40.275 55.5864 40.4413 53.8972 40.1172 52.2676C39.793 50.6379 38.9929 49.1409 37.8179 47.966C36.643 46.7911 35.1461 45.9909 33.5164 45.6668C31.8867 45.3426 30.1975 45.509 28.6624 46.1449C27.1273 46.7807 25.8152 47.8575 24.8921 49.2391C23.9689 50.6207 23.4762 52.2449 23.4762 53.9065C23.479 56.1338 24.365 58.2691 25.94 59.844C27.5149 61.4189 29.6501 62.3049 31.8774 62.3077ZM31.8774 48.8743C32.8727 48.8743 33.8456 49.1694 34.6732 49.7224C35.5007 50.2753 36.1457 51.0613 36.5266 51.9808C36.9075 52.9003 37.0071 53.9121 36.813 54.8883C36.6188 55.8644 36.1395 56.7611 35.4357 57.4649C34.732 58.1686 33.8353 58.6479 32.8591 58.8421C31.883 59.0363 30.8712 58.9366 29.9516 58.5557C29.0321 58.1749 28.2462 57.5299 27.6932 56.7023C27.1403 55.8748 26.8452 54.9018 26.8452 53.9065C26.8467 52.5724 27.3774 51.2933 28.3208 50.3499C29.2642 49.4065 30.5432 48.8758 31.8774 48.8743Z" fill="#0B190B"/>
</svg>
