<svg width="29" height="26" viewBox="0 0 29 26" fill="none" xmlns="http://www.w3.org/2000/svg">
<path d="M1.79167 14.3333H23.0408L16.5371 22.145C16.3865 22.3262 16.2731 22.5352 16.2033 22.7602C16.1335 22.9852 16.1087 23.2218 16.1303 23.4564C16.174 23.9301 16.4041 24.3671 16.77 24.6713C17.1359 24.9754 17.6076 25.1217 18.0814 25.078C18.5551 25.0343 18.9921 24.8042 19.2963 24.4383L28.2546 13.6883C28.3149 13.6028 28.3687 13.513 28.4158 13.4196C28.4158 13.33 28.5054 13.2763 28.5413 13.1867C28.6225 12.9812 28.665 12.7626 28.6667 12.5417C28.665 12.3208 28.6225 12.1021 28.5413 11.8967C28.5413 11.8071 28.4517 11.7533 28.4158 11.6638C28.3687 11.5703 28.3149 11.4805 28.2546 11.395L19.2963 0.645004C19.1278 0.442755 18.9168 0.280108 18.6784 0.168628C18.44 0.0571489 18.1799 -0.000424037 17.9167 3.42272e-06C17.498 -0.000814496 17.0923 0.144983 16.77 0.412087C16.5886 0.562496 16.4386 0.747217 16.3287 0.955673C16.2188 1.16413 16.151 1.39222 16.1294 1.62689C16.1078 1.86155 16.1326 2.09818 16.2026 2.32322C16.2726 2.54826 16.3862 2.75729 16.5371 2.93834L23.0408 10.75H1.79167C1.31649 10.75 0.86077 10.9388 0.524767 11.2748C0.188765 11.6108 0 12.0665 0 12.5417C0 13.0169 0.188765 13.4726 0.524767 13.8086C0.86077 14.1446 1.31649 14.3333 1.79167 14.3333Z" fill="#0B190B"/>
</svg>
