<svg width="18" height="18" viewBox="0 0 18 18" fill="none" xmlns="http://www.w3.org/2000/svg">
<path d="M6.81822 16.2728C7.21988 16.2728 7.54549 15.9472 7.54549 15.5455C7.54549 15.1438 7.21988 14.8182 6.81822 14.8182C6.41655 14.8182 6.09094 15.1438 6.09094 15.5455C6.09094 15.9472 6.41655 16.2728 6.81822 16.2728Z" stroke="#F7F7F6" stroke-width="2" stroke-linecap="round" stroke-linejoin="round"/>
<path d="M14.8182 16.2728C15.2199 16.2728 15.5455 15.9472 15.5455 15.5455C15.5455 15.1438 15.2199 14.8182 14.8182 14.8182C14.4166 14.8182 14.0909 15.1438 14.0909 15.5455C14.0909 15.9472 14.4166 16.2728 14.8182 16.2728Z" stroke="#F7F7F6" stroke-width="2" stroke-linecap="round" stroke-linejoin="round"/>
<path d="M1 1H3.90909L5.85818 10.7382C5.92469 11.073 6.10684 11.3738 6.37276 11.5879C6.63868 11.8019 6.97142 11.9156 7.31273 11.9091H14.3818C14.7231 11.9156 15.0559 11.8019 15.3218 11.5879C15.5877 11.3738 15.7699 11.073 15.8364 10.7382L17 4.63636H4.63636" stroke="#F7F7F6" stroke-width="2" stroke-linecap="round" stroke-linejoin="round"/>
</svg>
