<svg width="20" height="20" viewBox="0 0 20 20" fill="none" xmlns="http://www.w3.org/2000/svg">
<path d="M15.5 6.4C16.9912 6.4 18.2 5.19117 18.2 3.7C18.2 2.20883 16.9912 1 15.5 1C14.0088 1 12.8 2.20883 12.8 3.7C12.8 5.19117 14.0088 6.4 15.5 6.4Z" stroke="#0B190B" stroke-width="2" stroke-linecap="round" stroke-linejoin="round"/>
<path d="M4.7 12.7C6.19117 12.7 7.4 11.4912 7.4 10C7.4 8.50888 6.19117 7.30005 4.7 7.30005C3.20883 7.30005 2 8.50888 2 10C2 11.4912 3.20883 12.7 4.7 12.7Z" stroke="#0B190B" stroke-width="2" stroke-linecap="round" stroke-linejoin="round"/>
<path d="M15.5 19C16.9912 19 18.2 17.7911 18.2 16.3C18.2 14.8088 16.9912 13.6 15.5 13.6C14.0088 13.6 12.8 14.8088 12.8 16.3C12.8 17.7911 14.0088 19 15.5 19Z" stroke="#0B190B" stroke-width="2" stroke-linecap="round" stroke-linejoin="round"/>
<path d="M7.03101 11.359L13.178 14.941" stroke="#0B190B" stroke-width="2" stroke-linecap="round" stroke-linejoin="round"/>
<path d="M13.169 5.05896L7.03101 8.64096" stroke="#0B190B" stroke-width="2" stroke-linecap="round" stroke-linejoin="round"/>
</svg>
