<svg width="100" height="100" viewBox="0 0 100 100" fill="none" xmlns="http://www.w3.org/2000/svg">
<path d="M91.4665 76.4937H81.35C85.1414 74.8608 88.3626 72.139 90.6055 68.6734C91.0836 67.8782 91.1446 66.9001 90.769 66.0517C90.67 65.8267 90.5471 65.5567 90.4091 65.2628C92.1892 62.6912 93.5158 59.8336 94.3312 56.8141C95.0201 53.542 95.1781 50.1804 94.7991 46.8581C94.6449 45.4512 93.6935 44.2593 92.3559 43.7969C90.835 36.4986 88.7877 35.3332 88.0948 34.9478C87.2144 34.4432 86.1518 34.3681 85.2091 34.7438C81.4954 36.1581 81.482 39.4773 81.47 42.4035C81.47 43.104 81.4475 43.8194 81.4025 44.5333C79.9616 44.8696 78.7986 45.9298 78.3308 47.3335C78.0315 48.2082 77.6158 49.0386 77.0949 49.8023C76.4759 49.4728 75.8384 49.1793 75.1856 48.9234C74.5648 48.6934 73.8817 48.6961 73.2628 48.9309L65.561 51.8736C64.9563 52.1078 64.4519 52.5453 64.1347 53.111C63.7781 53.7615 63.4572 54.4309 63.1733 55.1163C62.7717 54.9934 62.378 54.8461 61.9944 54.6753V37.4975C61.9944 35.8408 60.6514 34.4978 58.9947 34.4978H22.9982C21.3415 34.4978 19.9985 35.8408 19.9985 37.4975V39.5403C18.6124 39.18 17.1861 38.9975 15.7539 38.9974C5 38.9974 5 50.8162 5 54.7008C5 63.3835 9.22058 68.9944 15.7539 68.9944C17.4847 68.9849 19.206 68.7386 20.8699 68.2625C21.9772 71.5907 24.1232 74.4759 26.9923 76.4937H14.5241C13.658 76.4199 12.7983 76.6954 12.1364 77.2588C11.4745 77.8221 11.0651 78.6266 10.9994 79.4934V82.4931C10.9994 85.8572 14.3261 88.4925 18.5737 88.4925H87.4169C91.6644 88.4925 94.9911 85.8572 94.9911 82.4931V79.4934C94.9254 78.6266 94.5161 77.8221 93.8541 77.2588C93.1922 76.6954 92.3326 76.4199 91.4665 76.4937V76.4937ZM86.274 37.5365C86.3861 37.4761 86.5225 37.4831 86.6279 37.5545C86.8844 37.697 88.1158 38.6434 89.2482 43.6094C87.9868 43.6619 86.352 43.7729 84.4487 44.0189C84.4682 43.4594 84.4727 42.9135 84.4742 42.405C84.4817 39.2973 84.6331 38.1619 86.274 37.5365ZM81.1925 48.2424C81.3453 47.7961 81.7317 47.4704 82.1974 47.395C82.4749 47.338 82.7493 47.2975 83.0538 47.245C85.6728 46.8025 88.323 46.5703 90.979 46.5506H91.078C91.4443 46.5257 91.7679 46.7872 91.8204 47.1506C92.166 50.1359 92.0313 53.1574 91.4215 56.1002C90.8552 58.2402 89.9774 60.2854 88.8162 62.1701C86.5449 57.9729 83.4239 54.295 79.6521 51.3711C80.3008 50.4005 80.8187 49.3485 81.1925 48.2424V48.2424ZM66.7189 54.6333L74.2377 51.7611C82.2664 54.9183 87.1364 65.2178 88.0363 67.1496C87.2069 68.5834 84.5371 72.2026 77.6738 74.8213C75.3198 75.7478 72.8388 76.3117 70.3156 76.4937H68.3372C67.2904 76.4455 66.2544 76.2589 65.2566 75.9387C65.1711 75.5713 65.0556 75.0673 64.9401 74.4614C64.2262 70.7462 62.9798 61.4096 66.7129 54.6333H66.7189ZM57.5833 74.1794C59.062 74.897 60.6001 75.4852 62.1804 75.9372C62.2254 76.1472 62.2673 76.3257 62.3048 76.4937H54.9451C55.904 75.8179 56.7884 75.0421 57.5833 74.1794ZM61.5924 72.5941C59.5736 71.9266 57.674 70.9418 55.965 69.6768C53.7289 67.8054 51.8257 65.569 50.336 63.0625C50.1578 62.6794 50.2701 62.2239 50.606 61.9676C50.6255 61.9496 50.645 61.9316 50.6615 61.9136C52.7294 60.132 54.9312 58.5119 57.2473 57.0676C57.4858 56.9176 57.7243 56.7571 58.0138 56.5891C58.3631 56.3618 58.8111 56.3519 59.1702 56.5636C60.1091 57.1589 61.1262 57.6208 62.1924 57.936C61.0216 62.7338 60.8176 67.7166 61.5924 72.5941V72.5941ZM48.6097 52.0881C48.6568 51.9294 48.7791 51.8042 48.9367 51.7536C50.5265 51.1537 51.2539 51.8706 53.1063 54.2449C53.4242 54.6513 53.7647 55.0863 54.1307 55.5227C52.4958 56.6191 51.1504 57.636 50.1335 58.4549C48.5737 54.9783 48.2947 52.901 48.6097 52.0881ZM19.9985 59.0549C18.6626 59.6546 17.2181 59.9746 15.7539 59.9953C14.6141 59.9953 13.9991 57.2671 13.9991 54.7008C13.9991 47.9965 15.013 47.9965 15.7539 47.9965C17.2895 47.9339 18.7963 48.4264 19.9985 49.3838V59.0549ZM7.9997 54.7053C7.9997 48.7869 8.88162 41.9971 15.7539 41.9971C17.195 41.9899 18.628 42.2132 19.9985 42.6585V45.8817C18.6652 45.2805 17.2164 44.9784 15.7539 44.9968C11.3624 44.9968 10.9994 49.5878 10.9994 54.7008C10.9994 59.8948 12.7767 62.995 15.7539 62.995C17.2004 62.9801 18.6345 62.7268 19.9985 62.2451V62.995C20.0049 63.779 20.068 64.5614 20.1875 65.3363C18.7476 65.7615 17.2553 65.9831 15.7539 65.9947C10.8989 65.9947 7.9997 61.7726 7.9997 54.7008V54.7053ZM23.3477 66.0307C23.1141 65.0357 22.9968 64.017 22.9982 62.995L22.9982 37.4975H58.9947V53.4634C58.2087 53.3902 57.4183 53.5465 56.7194 53.9134C56.2859 53.4184 55.869 52.9085 55.4715 52.3985C53.7722 50.2208 51.6619 47.5045 47.8703 48.9489C46.9199 49.3 46.1693 50.0473 45.814 50.9962C45.0325 53.0105 45.7135 56.1842 47.8523 60.6417C47.0684 61.8524 47.0422 63.4038 47.7848 64.6403C49.4635 67.4515 51.6084 69.9566 54.1277 72.0481C54.3901 72.2506 54.6616 72.4351 54.9331 72.621C52.4218 75.1069 49.0295 76.4989 45.496 76.4937H36.4969C30.2016 76.5195 24.734 72.167 23.3477 66.0262V66.0307ZM91.9914 82.4931C91.9914 84.1189 89.8916 85.4928 87.4169 85.4928H18.5737C16.0989 85.4928 13.9991 84.1189 13.9991 82.4931V79.6299C14.1573 79.5347 14.3396 79.4873 14.5241 79.4934H91.4665C91.651 79.4873 91.8333 79.5347 91.9914 79.6299V82.4931Z" fill="#408C3E"/>
<path d="M37.9967 28.4984C37.9967 29.3267 38.6683 29.9982 39.4966 29.9982C40.3249 29.9982 40.9965 29.3267 40.9965 28.4984C40.9865 27.4403 41.4097 26.4243 42.1678 25.6862C44.6057 23.0369 44.6057 18.9613 42.1678 16.3121C41.4097 15.574 40.9865 14.5579 40.9965 13.4999C40.9965 12.6715 40.3249 12 39.4966 12C38.6683 12 37.9967 12.6715 37.9967 13.4999C37.9835 15.2387 38.6379 16.9163 39.8251 18.1869C40.5749 18.9306 40.9966 19.943 40.9966 20.9991C40.9966 22.0552 40.5749 23.0676 39.8251 23.8113C38.6379 25.0819 37.9835 26.7595 37.9967 28.4984Z" fill="#408C3E"/>
<path d="M28.9976 28.4984C28.9976 29.3267 29.6691 29.9982 30.4975 29.9982C31.3258 29.9982 31.9973 29.3267 31.9973 28.4984C31.9874 27.4403 32.4106 26.4243 33.1687 25.6862C35.6065 23.0369 35.6065 18.9613 33.1687 16.3121C32.4106 15.574 31.9874 14.5579 31.9973 13.4999C31.9973 12.6715 31.3258 12 30.4975 12C29.6691 12 28.9976 12.6715 28.9976 13.4999C28.9844 15.2387 29.6388 16.9163 30.826 18.1869C31.5757 18.9306 31.9975 19.943 31.9975 20.9991C31.9975 22.0552 31.5757 23.0676 30.826 23.8113C29.6388 25.0819 28.9844 26.7595 28.9976 28.4984Z" fill="#408C3E"/>
<path d="M46.9959 28.4984C46.9959 29.3267 47.6674 29.9982 48.4957 29.9982C49.3241 29.9982 49.9956 29.3267 49.9956 28.4984C49.9856 27.4403 50.4088 26.4243 51.167 25.6862C53.6048 23.0369 53.6048 18.9613 51.167 16.3121C50.4088 15.574 49.9856 14.5579 49.9956 13.4999C49.9956 12.6715 49.3241 12 48.4957 12C47.6674 12 46.9959 12.6715 46.9959 13.4999C46.9826 15.2387 47.6371 16.9163 48.8242 18.1869C49.574 18.9306 49.9957 19.943 49.9957 20.9991C49.9957 22.0552 49.574 23.0676 48.8242 23.8113C47.6371 25.0819 46.9826 26.7595 46.9959 28.4984Z" fill="#408C3E"/>
</svg>
