<svg width="100" height="100" viewBox="0 0 100 100" fill="none" xmlns="http://www.w3.org/2000/svg">
<path d="M94.8767 43.0504C94.5364 41.8164 93.8804 40.6925 92.9733 39.7893C92.0663 38.8861 90.9395 38.2349 89.7041 37.8998C87.8345 37.3686 85.8902 37.1485 83.9491 37.2483C86.2886 34.4631 87.6699 31.7052 86.8209 29.5221C85.9378 27.257 84.4138 25.9448 82.64 25.922H82.5914C80.7584 25.922 79.0939 27.2835 78.1311 29.5737C78.0832 29.6876 78.0346 29.8167 77.986 29.9397C77.6957 28.9966 77.3384 28.0755 76.9169 27.1833C76.3715 26.0274 75.5343 25.0336 74.4879 24.2997C73.4414 23.5659 72.2218 23.1175 70.9493 22.9986C70.3737 22.9377 69.7925 23.0396 69.272 23.2926C68.7514 23.5457 68.3123 23.9397 68.0045 24.4299C67.2566 25.7512 67.6249 27.5637 69.1033 29.8159C71.1317 32.6823 72.304 36.0658 72.4839 39.5726C70.7822 38.3304 68.9226 37.4055 66.6218 37.6037C65.2607 37.7531 63.9469 38.19 62.7674 38.8854C63.5118 37.3151 63.8285 35.5761 63.6854 33.8442C63.557 32.6879 63.1871 31.5714 62.5997 30.5672C62.0123 29.5629 61.2205 28.6933 60.2755 28.0146C59.3306 27.3359 58.2536 26.8632 57.1143 26.6273C55.9751 26.3913 54.799 26.3974 53.6622 26.6449C51.4754 27.1966 49.5382 28.4688 48.1631 30.2563C47.1654 29.9778 46.1033 30.0417 45.1462 30.4378C44.6746 30.627 44.2273 30.8718 43.8136 31.1668C43.367 30.6776 42.8229 30.2875 42.2162 30.0217C41.6095 29.7559 40.9538 29.6203 40.2914 29.6237C39.6291 29.6271 38.9748 29.7694 38.3708 30.0414C37.7669 30.3134 37.2267 30.709 36.7852 31.2028C36.3437 31.6965 36.0107 32.2774 35.8077 32.9079C35.6046 33.5384 35.5361 34.2044 35.6065 34.863C35.6769 35.5217 35.8847 36.1582 36.2164 36.7315C36.5482 37.3048 36.9964 37.8021 37.5323 38.1914C37.2504 39.0194 37.1575 39.9 37.2605 40.7686C35.647 39.5614 33.7637 38.7652 31.7735 38.4488C31.482 36.2748 30.2313 34.1252 28.4575 33.4061C27.9411 31.6454 26.7898 30.1388 25.2265 29.1781C24.3053 28.6104 23.2184 28.3729 22.1444 28.5045C21.0356 26.4382 19.2597 24.8083 17.1062 23.8802C15.989 23.4146 14.7829 23.2012 13.5738 23.2551C12.3647 23.3091 11.1824 23.629 10.1112 24.1923C9.01742 24.7121 8.0519 25.467 7.28352 26.403C6.51513 27.339 5.96282 28.433 5.66601 29.6071C5.11701 31.8871 5.35657 34.2859 6.34562 36.4123C5.59835 37.1867 5.13555 38.1916 5.03273 39.2628C4.86015 41.0948 5.37433 42.9255 6.47547 44.3998C5.99936 46.185 6.92651 48.3035 8.18018 49.7151C9.47105 51.1708 11.0209 51.8845 12.4416 51.7357C12.9601 52.427 13.6041 53.0146 14.3399 53.4678H14.2966C14.1125 53.4678 13.9305 53.5061 13.7619 53.5802C13.5934 53.6543 13.4421 53.7626 13.3176 53.8983C13.1931 54.0339 13.0981 54.1939 13.0387 54.3681C12.9793 54.5424 12.9567 54.7271 12.9724 54.9105C13.6558 63.024 16.9725 77.2099 31.2321 83.9931C28.8326 86.6464 27.4704 90.076 27.3952 93.6526C27.3951 93.8272 27.4294 94 27.4961 94.1613C27.5629 94.3225 27.6608 94.4691 27.7842 94.5925C27.9076 94.7159 28.0541 94.8138 28.2154 94.8805C28.3767 94.9473 28.5495 94.9816 28.724 94.9815H71.2469C71.4214 94.9816 71.5943 94.9473 71.7556 94.8805C71.9168 94.8138 72.0634 94.7159 72.1868 94.5925C72.3102 94.4691 72.4081 94.3225 72.4748 94.1613C72.5415 94 72.5759 93.8272 72.5758 93.6526C72.501 90.0766 71.1396 86.6473 68.7411 83.9939C83.0007 77.2084 86.319 63.0225 87.0009 54.9113C87.0166 54.7276 86.9939 54.5428 86.9343 54.3684C86.8748 54.194 86.7796 54.0338 86.6549 53.8982C86.5301 53.7625 86.3785 53.6543 86.2097 53.5803C86.0409 53.5063 85.8586 53.4683 85.6743 53.4685H80.2071C81.6688 49.201 80.318 46.5821 78.229 44.4499C81.3423 43.9419 84.776 44.4666 88.4801 46.0559C89.535 46.5548 90.6788 46.8388 91.8447 46.8911C92.6158 46.9216 93.3725 46.6757 93.9784 46.1979C94.4099 45.8114 94.7232 45.3108 94.8821 44.7539C95.0411 44.1969 95.0392 43.6063 94.8767 43.0504ZM79.5237 33.5572C79.9246 32.3703 80.2701 31.3452 80.5814 30.6034C81.1692 29.2031 82.0143 28.5797 82.5944 28.5797H82.6051C83.2315 28.5873 83.8823 29.3011 84.3447 30.4864C84.899 31.9102 82.7501 35.4677 76.888 40.4649C77.8914 38.2119 78.7713 35.9059 79.5237 33.5572V33.5572ZM70.3152 25.7413C70.5956 25.6204 70.9102 25.6045 71.2014 25.6965C71.9125 25.8544 72.579 26.1705 73.1511 26.6214C73.7232 27.0723 74.1863 27.6465 74.506 28.301C75.6783 30.6125 76.1732 33.2083 75.9335 35.7889C75.6647 36.5224 75.3747 37.2681 75.0611 38.0152C74.5982 34.5451 73.3169 31.2347 71.3228 28.3572C70.2005 26.6427 70.2446 25.856 70.3152 25.7413ZM46.1129 32.9133C46.3963 32.7774 46.7101 32.7175 47.0237 32.7396C47.3372 32.7617 47.6396 32.865 47.9011 33.0393C48.0558 33.1448 48.231 33.2164 48.4153 33.2495C48.5995 33.2826 48.7887 33.2764 48.9705 33.2313C49.1522 33.1862 49.3223 33.1033 49.4698 32.9879C49.6172 32.8725 49.7386 32.7273 49.826 32.5617C50.8123 30.9089 52.4112 29.7123 54.275 29.232C55.0418 29.0716 55.8336 29.0724 56.6002 29.2344C57.3667 29.3964 58.0911 29.7161 58.7274 30.1731C59.3638 30.6301 59.8981 31.2145 60.2965 31.8891C60.6948 32.5637 60.9485 33.3138 61.0414 34.0918C61.1818 36.0072 60.5601 37.9006 59.3117 39.36C59.1869 39.4903 59.0903 39.6448 59.0276 39.8139C58.9649 39.9831 58.9376 40.1632 58.9473 40.3433C58.9569 40.5234 59.0034 40.6996 59.0839 40.8611C59.1643 41.0225 59.277 41.1657 59.4149 41.2819C57.503 42.9723 55.7216 44.8047 54.0859 46.7636C53.8385 46.574 53.5315 46.4792 53.2203 46.4963C53.18 46.4963 50.6962 46.6481 48.2382 47.0719L51.1108 43.0671C52.4079 42.6324 53.7727 42.4349 55.1399 42.4839C55.3129 42.5062 55.4886 42.4942 55.6569 42.4486C55.8253 42.403 55.983 42.3247 56.1211 42.2181C56.2592 42.1115 56.375 41.9788 56.4618 41.8275C56.5486 41.6761 56.6047 41.5092 56.627 41.3362C56.6493 41.1632 56.6373 40.9875 56.5917 40.8191C56.5461 40.6508 56.4677 40.493 56.3611 40.3549C56.2546 40.2168 56.1218 40.1011 55.9705 40.0143C55.8192 39.9275 55.6523 39.8713 55.4793 39.849C54.7849 39.788 54.0861 39.7998 53.3941 39.884L55.9539 36.3151C56.0555 36.1733 56.1283 36.013 56.1679 35.8431C56.2076 35.6732 56.2135 35.4972 56.1851 35.3251C56.1568 35.153 56.0948 34.9881 56.0027 34.84C55.9107 34.6918 55.7904 34.5632 55.6486 34.4615C55.5069 34.3599 55.3465 34.2871 55.1766 34.2475C55.0068 34.2078 54.8307 34.2019 54.6586 34.2303C54.4865 34.2586 54.3217 34.3206 54.1735 34.4127C54.0253 34.5047 53.8967 34.6251 53.7951 34.7668L51.2315 38.3402C51.0887 37.6553 50.8757 36.9868 50.596 36.3455C50.4412 36.0288 50.167 35.7865 49.8336 35.6721C49.5003 35.5576 49.1351 35.5802 48.8184 35.735C48.5017 35.8897 48.2595 36.164 48.145 36.4973C48.0305 36.8307 48.0531 37.1959 48.2079 37.5126C48.6949 38.7945 48.9452 40.1543 48.9467 41.5257L46.0764 45.5281C45.6891 43.0603 45.0331 40.6539 45.0225 40.616C44.9217 40.2838 44.695 40.0042 44.3908 39.837C44.0866 39.6699 43.729 39.6284 43.3946 39.7214C43.0602 39.8145 42.7754 40.0347 42.6013 40.335C42.4271 40.6353 42.3774 40.9918 42.4627 41.3282C42.9586 43.1112 43.8083 47.1189 43.6837 48.8631L40.9213 52.7145C40.907 51.4392 40.7284 50.171 40.3897 48.9413C39.8802 46.6975 39.4026 44.5774 40.5583 42.9585C40.7634 42.6726 40.8465 42.3169 40.7896 41.9697C40.7326 41.6224 40.5402 41.312 40.2546 41.1065C39.7162 40.7192 39.8218 39.6121 40.149 38.7472C40.6692 37.3683 41.6791 36.4692 42.263 36.5292C42.5848 36.5642 42.9083 36.4793 43.1714 36.2907C43.4345 36.1021 43.6188 35.8232 43.6891 35.5072C43.8468 34.9737 44.128 34.4849 44.5099 34.0804C44.5205 34.0682 44.5319 34.0561 44.5418 34.0439C44.9732 33.553 45.5104 33.1664 46.1129 32.9133ZM43.6526 53.4685L45.8547 50.4008C47.8625 49.7819 49.935 49.3969 52.0311 49.2534C50.9741 50.5739 49.8989 51.987 48.8153 53.4685H43.6526ZM40.3191 32.2678C40.632 32.2686 40.9408 32.3395 41.2227 32.4754C41.5046 32.6113 41.7524 32.8087 41.9479 33.053C41.7489 33.3398 41.5744 33.6428 41.4262 33.9589C40.3732 34.2614 39.4512 34.9067 38.8065 35.7927C38.5247 35.4969 38.336 35.125 38.2637 34.723C38.1914 34.3209 38.2387 33.9065 38.3998 33.5311C38.5608 33.1558 38.8286 32.836 39.1698 32.6114C39.511 32.3868 39.9106 32.2673 40.3191 32.2678V32.2678ZM37.2651 44.3717C37.1423 46.1079 37.3222 47.8522 37.7966 49.5268C38.1307 50.6354 38.2805 51.7913 38.2401 52.9484C38.215 53.1196 38.2018 53.2924 38.2006 53.4655H34.3917L33.0044 52.0782H35.8026C36.155 52.0782 36.493 51.9382 36.7422 51.689C36.9914 51.4398 37.1314 51.1018 37.1314 50.7493C37.1314 50.3969 36.9914 50.0589 36.7422 49.8097C36.493 49.5605 36.155 49.4205 35.8026 49.4205H33.0037L34.9833 47.4409C35.2254 47.1903 35.3594 46.8547 35.3564 46.5063C35.3535 46.1578 35.2138 45.8245 34.9674 45.5781C34.7211 45.3317 34.3879 45.1919 34.0394 45.1888C33.691 45.1857 33.3553 45.3195 33.1047 45.5615L31.1243 47.5411V44.7452C31.1243 44.3928 30.9843 44.0548 30.7351 43.8056C30.4859 43.5564 30.1479 43.4164 29.7955 43.4164C29.443 43.4164 29.105 43.5564 28.8558 43.8056C28.6066 44.0548 28.4666 44.3928 28.4666 44.7452V47.5434L26.4878 45.5646C26.2386 45.3154 25.9006 45.1753 25.5481 45.1753C25.1957 45.1753 24.8577 45.3154 24.6084 45.5646C24.3592 45.8138 24.2192 46.1518 24.2192 46.5043C24.2192 46.8567 24.3592 47.1947 24.6084 47.4439L26.588 49.4235H23.7884C23.4359 49.4235 23.0979 49.5635 22.8487 49.8127C22.5995 50.0619 22.4595 50.3999 22.4595 50.7524C22.4595 51.1048 22.5995 51.4428 22.8487 51.692C23.0979 51.9412 23.4359 52.0812 23.7884 52.0812H26.588L25.2 53.4685H20.3637C19.7581 51.3756 19.866 49.1406 20.6703 47.1157C21.4747 45.0908 22.9298 43.3911 24.8065 42.2842C26.6832 41.1773 28.8749 40.7263 31.0361 41.0021C33.1974 41.2778 35.2055 42.2648 36.7442 43.8075C36.9332 43.9965 37.1033 44.1849 37.2651 44.3717ZM13.472 48.9345C13.306 48.8798 13.1308 48.8583 12.9564 48.8714C12.7821 48.8844 12.6121 48.9317 12.456 49.0104C11.806 49.3385 10.8401 48.7128 10.1666 47.9542C9.11492 46.7696 8.78689 45.3998 9.14074 44.8637C9.31939 44.595 9.39404 44.2704 9.35071 43.9506C9.30739 43.6309 9.14906 43.3378 8.90534 43.1263C8.46148 42.6532 8.12253 42.0917 7.91068 41.4785C7.69883 40.8653 7.61885 40.2143 7.67598 39.5681C7.69007 39.2329 7.79107 38.9072 7.96905 38.6228C8.14704 38.3385 8.3959 38.1053 8.69121 37.9461C8.85685 37.8585 9.00206 37.7367 9.11728 37.5889C9.23251 37.4411 9.31514 37.2705 9.35975 37.0885C9.40437 36.9065 9.40994 36.7171 9.37612 36.5327C9.3423 36.3484 9.26985 36.1733 9.16352 36.0189C8.10852 34.2998 7.77581 32.2334 8.23789 30.27C8.43994 29.4643 8.8196 28.7141 9.34908 28.0741C9.87856 27.4341 10.5445 26.9206 11.298 26.5713C12.0295 26.1786 12.8395 25.9544 13.6687 25.915C14.498 25.8756 15.3255 26.022 16.091 26.3435C17.9385 27.1496 19.3927 28.6532 20.1367 30.5267C20.1966 30.7038 20.2933 30.8663 20.4203 31.0036C20.5474 31.1408 20.702 31.2497 20.874 31.3231C21.046 31.3965 21.2316 31.4327 21.4186 31.4295C21.6055 31.4262 21.7897 31.3835 21.9591 31.3042C22.2661 31.1641 22.6042 31.106 22.9404 31.1356C23.2765 31.1651 23.5993 31.2813 23.8772 31.4728C24.4265 31.8146 24.8974 32.2687 25.2589 32.8052C25.6205 33.3417 25.8646 33.9486 25.9752 34.5861C25.9973 34.9081 26.1359 35.2111 26.3651 35.4385C26.5942 35.6658 26.8983 35.802 27.2206 35.8215C27.8979 35.8625 28.7294 36.9886 29.0475 38.322C25.9995 38.493 23.1212 39.7805 20.9621 41.9387C20.8497 42.0511 20.7472 42.1665 20.6394 42.2865L19.4601 39.9166C19.687 38.4909 20.1724 37.1185 20.8922 35.8671C20.9927 35.7244 21.0641 35.5633 21.1023 35.393C21.1405 35.2227 21.1448 35.0466 21.1149 34.8747C21.0851 34.7027 21.0216 34.5383 20.9283 34.3909C20.8349 34.2435 20.7134 34.1159 20.5707 34.0154C20.428 33.915 20.2669 33.8436 20.0966 33.8054C19.9263 33.7672 19.7502 33.7629 19.5782 33.7927C19.4063 33.8226 19.2419 33.886 19.0945 33.9794C18.9471 34.0728 18.8195 34.1943 18.719 34.337C18.3072 34.9825 17.9648 35.6697 17.6977 36.3872L15.5875 32.182C15.4298 31.8667 15.1534 31.627 14.8189 31.5156C14.4845 31.4042 14.1195 31.4301 13.8042 31.5878C13.4889 31.7455 13.2492 32.022 13.1378 32.3564C13.0264 32.6909 13.0523 33.0559 13.21 33.3711L15.3157 37.5794C14.582 37.3631 13.8276 37.2249 13.065 37.1671H13.024C12.6716 37.1618 12.3315 37.2968 12.0786 37.5423C11.8257 37.7878 11.6806 38.1237 11.6754 38.4762C11.6702 38.8286 11.8052 39.1687 12.0507 39.4216C12.2962 39.6745 12.6321 39.8195 12.9845 39.8247C14.4169 40.0002 15.8055 40.4345 17.0826 41.1065L18.883 44.7035C18.7347 44.9698 18.5973 45.2406 18.4707 45.516C16.6081 44.9252 14.8456 44.5 14.2837 44.377C13.939 44.3039 13.5793 44.3707 13.2838 44.5628C12.9883 44.7549 12.7812 45.0565 12.7081 45.4013C12.635 45.7461 12.7019 46.1058 12.894 46.4013C13.0861 46.6968 13.3877 46.9038 13.7325 46.9769C14.3786 47.1136 15.9915 47.5161 17.6195 48.0301C17.3306 49.3305 17.2514 50.6686 17.3849 51.9939C16.7286 51.8231 16.1129 51.5237 15.5732 51.1131C15.0336 50.7025 14.5808 50.1889 14.2412 49.602C14.0833 49.2864 13.8067 49.0463 13.472 48.9345V48.9345ZM30.1387 92.3238C30.6049 88.7177 32.8343 85.8132 34.0014 85.0774H34.0151C34.028 85.0774 34.0402 85.0774 34.0531 85.0774H65.9543H65.9695C67.1374 85.8155 69.3645 88.7223 69.83 92.3215L30.1387 92.3238ZM65.7121 82.4198H34.2589C20.4473 76.9328 16.7075 64.1721 15.766 56.1262H84.205C83.2634 64.1721 79.5237 76.9328 65.7121 82.4198ZM52.1207 53.4685C53.2795 51.9316 54.4238 50.4843 55.5377 49.1585C60.3595 43.405 64.0598 40.4914 66.8519 40.2515C69.0479 40.0647 70.7609 41.5074 72.9266 43.339L73.3062 43.6541C73.3237 43.6708 73.3434 43.686 73.3624 43.7019L74.0527 44.2805L74.3875 44.56L74.4171 44.585L74.6206 44.7544C74.6543 44.7863 74.6898 44.8162 74.727 44.844C77.6185 47.2784 79.2556 49.0712 77.3786 53.4685H52.1207ZM92.2897 44.1477C92.1887 44.2411 91.4195 44.4218 89.531 43.6161C86.4234 42.1952 83.0294 41.5117 79.614 41.6191C79.9937 41.2819 80.3678 40.9412 80.7363 40.597C83.4184 39.6917 86.3164 39.6479 89.0245 40.4717C89.7262 40.6724 90.3738 41.0284 90.9193 41.5133C91.4648 41.9981 91.8942 42.5995 92.1758 43.2729C92.3148 43.5422 92.3551 43.8517 92.2897 44.1477V44.1477Z" fill="#408C3E"/>
<path d="M76.5554 66.6355C75.6414 68.4973 74.4956 70.2361 73.1452 71.8103C73.0311 71.9424 72.9441 72.0956 72.8892 72.2612C72.8343 72.4269 72.8125 72.6017 72.8252 72.7758C72.8378 72.9498 72.8847 73.1197 72.963 73.2757C73.0413 73.4316 73.1495 73.5706 73.2815 73.6848C73.4136 73.7989 73.5668 73.8859 73.7324 73.9408C73.8981 73.9957 74.0729 74.0175 74.247 74.0048C74.421 73.9922 74.5909 73.9453 74.7469 73.867C74.9028 73.7887 75.0418 73.6805 75.156 73.5485C76.6523 71.8043 77.9219 69.8777 78.9344 67.8147C79.0908 67.4988 79.1153 67.1338 79.0025 66.7998C78.8897 66.4659 78.6489 66.1905 78.333 66.0341C78.0172 65.8777 77.6521 65.8532 77.3182 65.966C76.9842 66.0788 76.7088 66.3196 76.5524 66.6355H76.5554Z" fill="#408C3E"/>
<path d="M44.9738 14.4917C45.9123 14.491 46.8295 14.212 47.6095 13.69C48.3894 13.1681 48.9971 12.4266 49.3557 11.5594C49.7143 10.6921 49.8078 9.73802 49.6242 8.81766C49.4407 7.89731 48.9884 7.05203 48.3245 6.38869C47.6607 5.72535 46.815 5.27373 45.8945 5.09092C44.974 4.9081 44.02 5.00231 43.153 5.36162C42.286 5.72094 41.5451 6.32923 41.0237 7.1096C40.5024 7.88997 40.2242 8.80738 40.2242 9.74586C40.2256 11.0048 40.7266 12.2116 41.6171 13.1015C42.5076 13.9913 43.7149 14.4913 44.9738 14.4917V14.4917ZM44.9738 7.65768C45.3867 7.65843 45.79 7.78154 46.1329 8.01145C46.4758 8.24135 46.7429 8.56774 46.9004 8.94937C47.0578 9.331 47.0986 9.75075 47.0176 10.1556C46.9366 10.5604 46.7374 10.9321 46.4453 11.2238C46.1531 11.5154 45.781 11.7139 45.376 11.7942C44.9711 11.8745 44.5514 11.8329 44.1701 11.6747C43.7887 11.5166 43.4628 11.2489 43.2335 10.9056C43.0042 10.5623 42.8819 10.1587 42.8819 9.74586C42.8825 9.19157 43.1032 8.66021 43.4955 8.26862C43.8878 7.87703 44.4195 7.65728 44.9738 7.65768V7.65768Z" fill="#408C3E"/>
<path d="M29.8957 22.3737C30.8343 22.3737 31.7519 22.0953 32.5324 21.5739C33.3128 21.0524 33.9211 20.3112 34.2803 19.444C34.6395 18.5768 34.7335 17.6226 34.5504 16.7019C34.3672 15.7813 33.9152 14.9357 33.2515 14.272C32.5878 13.6083 31.7422 13.1563 30.8216 12.9732C29.901 12.79 28.9467 12.884 28.0795 13.2432C27.2123 13.6024 26.4711 14.2107 25.9497 14.9912C25.4282 15.7716 25.1498 16.6892 25.1498 17.6278C25.1512 18.8861 25.6517 20.0924 26.5414 20.9821C27.4311 21.8718 28.6375 22.3723 29.8957 22.3737ZM29.8957 15.5396C30.3087 15.5396 30.7124 15.6621 31.0558 15.8916C31.3992 16.121 31.6669 16.4471 31.8249 16.8287C31.983 17.2103 32.0243 17.6301 31.9438 18.0352C31.8632 18.4403 31.6643 18.8123 31.3723 19.1044C31.0802 19.3964 30.7081 19.5953 30.3031 19.6759C29.898 19.7564 29.4782 19.7151 29.0966 19.557C28.715 19.399 28.3889 19.1313 28.1594 18.7879C27.93 18.4445 27.8075 18.0408 27.8075 17.6278C27.8079 17.0741 28.0281 16.5432 28.4196 16.1517C28.8111 15.7602 29.342 15.54 29.8957 15.5396V15.5396Z" fill="#408C3E"/>
<path d="M64.3673 20.9264C65.306 20.9264 66.2235 20.6481 67.004 20.1266C67.7844 19.6051 68.3927 18.8639 68.7519 17.9967C69.1111 17.1295 69.2051 16.1753 69.022 15.2547C68.8389 14.3341 68.3869 13.4884 67.7231 12.8247C67.0594 12.161 66.2138 11.709 65.2932 11.5259C64.3726 11.3428 63.4183 11.4367 62.5512 11.796C61.684 12.1552 60.9428 12.7634 60.4213 13.5439C59.8998 14.3243 59.6215 15.2419 59.6215 16.1806C59.6229 17.4388 60.1233 18.6451 61.013 19.5348C61.9028 20.4245 63.1091 20.925 64.3673 20.9264V20.9264ZM64.3673 14.0924C64.7803 14.0924 65.184 14.2148 65.5274 14.4443C65.8708 14.6737 66.1385 14.9999 66.2965 15.3814C66.4546 15.763 66.4959 16.1829 66.4154 16.5879C66.3348 16.993 66.1359 17.3651 65.8439 17.6571C65.5518 17.9492 65.1798 18.148 64.7747 18.2286C64.3696 18.3092 63.9498 18.2678 63.5682 18.1098C63.1866 17.9517 62.8605 17.6841 62.6311 17.3407C62.4016 16.9973 62.2791 16.5936 62.2791 16.1806C62.2795 15.6269 62.4997 15.096 62.8912 14.7044C63.2827 14.3129 63.8136 14.0928 64.3673 14.0924V14.0924Z" fill="#408C3E"/>
</svg>
