<svg width="100" height="100" viewBox="0 0 100 100" fill="none" xmlns="http://www.w3.org/2000/svg">
<path d="M74.4998 83.0001C74.4998 81.8134 74.1479 80.6534 73.4886 79.6667C72.8293 78.68 71.8923 77.911 70.7959 77.4568C69.6996 77.0027 68.4932 76.8839 67.3293 77.1154C66.1654 77.3469 65.0963 77.9184 64.2572 78.7575C63.4181 79.5966 62.8466 80.6657 62.6151 81.8296C62.3836 82.9935 62.5024 84.1999 62.9565 85.2962C63.4107 86.3926 64.1797 87.3296 65.1664 87.9889C66.1531 88.6482 67.3131 89.0001 68.4998 89.0001C70.0911 89.0001 71.6172 88.368 72.7424 87.2428C73.8677 86.1175 74.4998 84.5914 74.4998 83.0001ZM65.4998 83.0001C65.4998 82.4068 65.6758 81.8268 66.0054 81.3334C66.335 80.8401 66.8036 80.4555 67.3518 80.2285C67.8999 80.0014 68.5031 79.942 69.0851 80.0578C69.667 80.1735 70.2016 80.4592 70.6211 80.8788C71.0407 81.2984 71.3264 81.8329 71.4422 82.4148C71.5579 82.9968 71.4985 83.6 71.2714 84.1482C71.0444 84.6963 70.6599 85.1649 70.1665 85.4945C69.6732 85.8242 69.0932 86.0001 68.4998 86.0001C67.7042 86.0001 66.9411 85.684 66.3785 85.1214C65.8159 84.5588 65.4998 83.7958 65.4998 83.0001Z" fill="#408C3E"/>
<path d="M86.6723 81.227C86.2782 81.1733 85.879 81.2781 85.5623 81.5186C85.2455 81.7591 85.0373 82.1155 84.9833 82.5095L83.6903 92H60.9998C60.602 92 60.2205 92.1581 59.9392 92.4394C59.6579 92.7207 59.4998 93.1022 59.4998 93.5C59.4998 93.8978 59.6579 94.2794 59.9392 94.5607C60.2205 94.842 60.602 95 60.9998 95H84.9998C85.3625 95.0001 85.7131 94.8686 85.9864 94.6301C86.2597 94.3915 86.4373 94.062 86.4863 93.7025L87.9578 82.916C87.9844 82.7207 87.9722 82.5221 87.922 82.3314C87.8718 82.1408 87.7845 81.962 87.6651 81.8051C87.5457 81.6482 87.3966 81.5164 87.2262 81.4172C87.0559 81.3181 86.8676 81.2534 86.6723 81.227Z" fill="#408C3E"/>
<path d="M90.6293 59.5131C90.4885 59.352 90.3148 59.2228 90.12 59.1344C89.9252 59.0459 89.7137 59.0001 89.4998 59.0001H82.4498L84.9668 45.7806C84.999 45.6051 84.999 45.4252 84.9668 45.2496L85.6583 42.0307L87.8978 45.7641L86.0948 54.2316C86.0116 54.6205 86.0862 55.0265 86.3022 55.3603C86.5182 55.6942 86.858 55.9287 87.2468 56.0121C87.3508 56.0341 87.4569 56.0451 87.5633 56.0451C87.9059 56.0445 88.2381 55.9266 88.5044 55.711C88.7708 55.4954 88.9553 55.1951 89.0273 54.8601L90.9653 45.8136C91.0461 45.4419 90.9817 45.0534 90.7853 44.7276L86.2853 37.2277C86.1309 36.9697 85.9026 36.7641 85.6299 36.6375C85.3573 36.5109 85.0528 36.4691 84.7562 36.5176C84.4595 36.5661 84.1842 36.7027 83.9661 36.9095C83.7479 37.1164 83.597 37.384 83.5328 37.6777L82.2998 43.4001L76.5503 41.1007C76.3379 41.0157 76.1088 40.9805 75.8807 40.9977C75.6526 41.0148 75.4314 41.084 75.2341 41.1998C75.0368 41.3156 74.8686 41.475 74.7423 41.6658C74.6161 41.8566 74.5352 42.0738 74.5058 42.3007L73.2608 52.2576L72.2603 52.0071L71.4998 42.3802C71.4692 42.0533 71.3322 41.7456 71.1098 41.5042L71.4098 37.6417L72.8363 37.2142L76.7903 39.3232C76.9643 39.4195 77.1558 39.4803 77.3535 39.502C77.5512 39.5237 77.7513 39.5059 77.9421 39.4495C78.1328 39.3932 78.3105 39.2994 78.4647 39.1738C78.6189 39.0481 78.7465 38.893 78.8402 38.7176C78.9339 38.5421 78.9918 38.3498 79.0105 38.1517C79.0291 37.9537 79.0082 37.7539 78.9489 37.564C78.8897 37.3741 78.7932 37.1979 78.6652 37.0457C78.5372 36.8934 78.3802 36.7682 78.2033 36.6772L73.7033 34.2772C73.3542 34.0906 72.9455 34.0497 72.5663 34.1632L69.5663 35.0632C69.2768 35.1498 69.0202 35.322 68.8302 35.557C68.6401 35.792 68.5255 36.0789 68.5013 36.3802L68.3153 38.6992L66.5573 36.9397C66.4054 36.7882 66.2228 36.6712 66.0218 36.5963C65.8207 36.5215 65.606 36.4906 65.392 36.5058C65.1781 36.5211 64.9699 36.582 64.7815 36.6845C64.593 36.787 64.4288 36.9288 64.2998 37.1002L62.4998 39.5002V38.0002C62.4998 36.8067 62.0257 35.6621 61.1818 34.8182C60.3379 33.9743 59.1933 33.5002 57.9999 33.5002H54.9999V32.0002C54.9999 30.8067 54.5258 29.6621 53.6818 28.8182C52.8379 27.9743 51.6934 27.5002 50.4999 27.5002H42.9999V20.4052L54.4959 12.7402C54.6598 12.6309 54.8005 12.4904 54.9101 12.3267C55.0197 12.163 55.096 11.9793 55.1346 11.7861C55.1732 11.5929 55.1733 11.394 55.135 11.2007C55.0967 11.0074 55.0207 10.8236 54.9114 10.6597L51.5844 5.66776C51.4751 5.50385 51.3345 5.36308 51.1708 5.25349C51.0071 5.1439 50.8234 5.06763 50.6302 5.02905C50.437 4.99046 50.2381 4.99032 50.0448 5.02862C49.8516 5.06691 49.6678 5.14291 49.5039 5.25226L36.0039 14.2522C35.3869 14.6625 34.8809 15.219 34.5313 15.8723C34.1816 16.5256 33.9991 17.2552 33.9999 17.9962V27.5002H26.5C25.3065 27.5002 24.1619 27.9743 23.318 28.8182C22.4741 29.6621 22 30.8067 22 32.0002V33.5002H19C17.8065 33.5002 16.6619 33.9743 15.818 34.8182C14.9741 35.6621 14.5 36.8067 14.5 38.0002V41.0002C14.5 41.0302 15.4 48.9021 15.4 48.9021C15.4416 49.2678 15.6162 49.6055 15.8905 49.8508C16.1649 50.0962 16.5199 50.232 16.888 50.2326C16.9451 50.2329 17.0023 50.2294 17.059 50.2221C17.4539 50.1769 17.8148 49.9768 18.0623 49.6658C18.3098 49.3547 18.4237 48.9581 18.379 48.5631L17.68 42.5002H29.4999C29.8978 42.5002 30.2793 42.3421 30.5606 42.0608C30.8419 41.7795 30.9999 41.398 30.9999 41.0002C30.9999 40.6023 30.8419 40.2208 30.5606 39.9395C30.2793 39.6582 29.8978 39.5002 29.4999 39.5002H17.5V38.0002C17.5 37.6023 17.658 37.2208 17.9393 36.9395C18.2206 36.6582 18.6022 36.5002 19 36.5002H57.9999C58.3977 36.5002 58.7792 36.6582 59.0605 36.9395C59.3418 37.2208 59.4999 37.6023 59.4999 38.0002V39.5002H35.4999C35.1021 39.5002 34.7206 39.6582 34.4393 39.9395C34.158 40.2208 33.9999 40.6023 33.9999 41.0002C33.9999 41.398 34.158 41.7795 34.4393 42.0608C34.7206 42.3421 35.1021 42.5002 35.4999 42.5002H60.2499L59.7999 43.1001C59.5776 43.3933 59.4708 43.7579 59.4999 44.1246L59.9499 49.5321L59.4069 47.9991C59.3316 47.7863 59.2093 47.5933 59.049 47.4343C58.8888 47.2754 58.6947 47.1547 58.4814 47.0811L54.0369 45.5541C53.6607 45.4252 53.2488 45.4509 52.8916 45.6256C52.5343 45.8002 52.2611 46.1096 52.1319 46.4856L51.3204 48.8451L50.3919 46.4571C50.2828 46.1763 50.0917 45.9348 49.8434 45.7641C49.5951 45.5934 49.3012 45.5014 48.9999 45.5001H42.9999C42.7581 45.5 42.5199 45.5582 42.3055 45.67C42.0911 45.7817 41.9069 45.9436 41.7685 46.1419C41.6302 46.3402 41.5419 46.569 41.511 46.8088C41.4802 47.0486 41.5078 47.2923 41.5914 47.5191L42.5259 50.0526C42.1839 50.0301 41.8464 50.0001 41.4999 50.0001H26.5C23.2638 49.9969 20.0989 50.9498 17.4025 52.7391C17.2383 52.8481 17.0972 52.9883 16.9872 53.1517C16.8772 53.3152 16.8004 53.4987 16.7614 53.6918C16.6825 54.0819 16.7617 54.4873 16.9817 54.8189C17.2017 55.1504 17.5444 55.3811 17.9345 55.46C18.3245 55.5389 18.7299 55.4596 19.0615 55.2396C21.2664 53.7769 23.854 52.9979 26.5 53.0001H41.4999C44.8194 53.0042 48.0214 54.2295 50.4955 56.4425C52.9697 58.6555 54.5431 61.7016 54.9159 65.0001H13.084C13.32 62.8771 14.0595 60.8412 15.241 59.0616C15.4393 58.73 15.5019 58.3346 15.416 57.958C15.33 57.5813 15.1019 57.2523 14.7794 57.0396C14.4568 56.8269 14.0646 56.7468 13.6845 56.8161C13.3044 56.8854 12.9657 57.0987 12.739 57.4116C10.9519 60.1057 9.99916 63.2671 10 66.5001C10 66.8979 10.158 67.2794 10.4393 67.5607C10.7206 67.842 11.1022 68.0001 11.5 68.0001H11.689C11.9448 69.0611 12.4726 70.0371 13.2205 70.8321C13.0823 71.3776 13.0083 71.9374 13 72.5001C13.0017 74.4422 13.7604 76.3072 15.115 77.699C14.2406 78.2316 13.5788 79.0519 13.2433 80.0192C12.9077 80.9865 12.9193 82.0404 13.276 83H11.5C11.1022 83 10.7206 83.1581 10.4393 83.4394C10.158 83.7207 10 84.1022 10 84.5V87.5C10.0024 89.4884 10.7933 91.3947 12.1993 92.8007C13.6053 94.2067 15.5116 94.9976 17.5 95H22C22.3978 95 22.7793 94.842 23.0606 94.5607C23.3419 94.2794 23.5 93.8978 23.5 93.5C23.5 93.1022 23.3419 92.7206 23.0606 92.4393C22.7793 92.158 22.3978 92 22 92H17.5C16.3065 92 15.1619 91.5259 14.318 90.682C13.4741 89.8381 13 88.6935 13 87.5V86H36.5784L37.3284 86.936C37.4689 87.1117 37.6472 87.2536 37.85 87.3511C38.0528 87.4486 38.2749 87.4992 38.4999 87.4992C38.7249 87.4992 38.947 87.4486 39.1498 87.3511C39.3526 87.2536 39.5309 87.1117 39.6714 86.936L45.2214 80H50.4999C50.8977 80 51.2792 80.1581 51.5605 80.4394C51.8418 80.7207 51.9999 81.1022 51.9999 81.5C51.9999 81.8979 51.8418 82.2794 51.5605 82.5607C51.2792 82.842 50.8977 83 50.4999 83H47.1999C46.8021 83 46.4205 83.1581 46.1392 83.4394C45.8579 83.7207 45.6999 84.1022 45.6999 84.5C45.6999 84.8978 45.8579 85.2794 46.1392 85.5607C46.4205 85.842 46.8021 86 47.1999 86H54.9999V87.5C54.9999 88.6935 54.5258 89.8381 53.6818 90.682C52.8379 91.5259 51.6934 92 50.4999 92H27.9999C27.6021 92 27.2206 92.158 26.9393 92.4393C26.658 92.7206 26.5 93.1022 26.5 93.5C26.5 93.8978 26.658 94.2794 26.9393 94.5607C27.2206 94.842 27.6021 95 27.9999 95H50.4999C52.4883 94.9976 54.3945 94.2067 55.8005 92.8007C57.2065 91.3947 57.9975 89.4884 57.9999 87.5V84.5C57.9999 84.1022 57.8418 83.7207 57.5605 83.4394C57.2792 83.1581 56.8977 83 56.4999 83H54.7239C55.0806 82.0404 55.0921 80.9865 54.7566 80.0192C54.421 79.0519 53.7593 78.2316 52.8849 77.699C54.2394 76.3072 54.9981 74.4422 54.9999 72.5001C54.9952 71.9683 54.9323 71.4386 54.8124 70.9206C55.6969 70.1842 56.2711 69.1413 56.4204 68.0001H56.4999C56.5935 67.9907 56.6859 67.9721 56.7759 67.9446C59.9291 70.9515 64.1436 72.5891 68.4998 72.5001C76.1363 72.5001 82.4573 67.9116 83.3828 62.0001H87.7808L85.7948 76.562C85.7684 76.7573 85.7807 76.9558 85.831 77.1462C85.8813 77.3367 85.9687 77.5153 86.088 77.672C86.2074 77.8287 86.3565 77.9604 86.5267 78.0595C86.697 78.1586 86.8851 78.2232 87.0803 78.2495C87.1473 78.2597 87.215 78.2647 87.2828 78.2645C87.6456 78.2646 87.9961 78.1332 88.2694 77.8946C88.5427 77.656 88.7203 77.3265 88.7693 76.967L90.9863 60.7026C91.0151 60.4903 90.9982 60.2743 90.9366 60.0692C90.8751 59.864 90.7703 59.6744 90.6293 59.5131V59.5131ZM36.9999 17.9962C36.9999 17.7493 37.0608 17.5063 37.1772 17.2885C37.2937 17.0708 37.462 16.8852 37.6674 16.7482L49.9194 8.58075L51.5844 11.0767L40.6674 18.3502C40.462 18.4872 40.2937 18.6728 40.1772 18.8905C40.0608 19.1082 39.9999 19.3513 39.9999 19.5982V27.5002H36.9999V17.9962ZM25 33.5002V32.0002C25 31.6024 25.158 31.2208 25.4393 30.9395C25.7206 30.6582 26.1021 30.5002 26.5 30.5002H50.4999C50.8977 30.5002 51.2792 30.6582 51.5605 30.9395C51.8418 31.2208 51.9999 31.6024 51.9999 32.0002V33.5002H25ZM71.3978 54.8961L74.4293 55.6461L73.6673 68.6031C72.672 68.962 71.6411 69.2134 70.5923 69.3531L71.3978 54.8961ZM65.6618 40.2847L68.5478 43.1706L69.2333 51.7371C69.1909 51.7535 69.1493 51.772 69.1088 51.7926C68.9325 51.9244 68.7874 52.0934 68.6837 52.2875C68.58 52.4817 68.5203 52.6963 68.5088 52.9161L67.5893 69.4506C66.5759 69.392 65.5709 69.2322 64.5893 68.9736L62.5418 44.4501L65.6618 40.2847ZM45.1524 48.5001H47.9739L49.3239 51.9801C48.2466 51.4024 47.108 50.9471 45.9294 50.6226L45.1524 48.5001ZM51.9534 72.0351C51.9779 72.189 51.9934 72.3443 51.9999 72.5001C51.9999 73.6935 51.5258 74.8381 50.6819 75.682C49.8379 76.5259 48.6934 77 47.4999 77H20.5C19.3414 76.996 18.229 76.5453 17.3945 75.7417C16.5599 74.9381 16.0674 73.8436 16.0195 72.6861L16.1575 72.7566C17.0405 73.1954 18.0132 73.4237 18.9992 73.4237C19.9853 73.4237 20.9579 73.1954 21.841 72.7566L24.2545 71.5566C24.4858 71.4404 24.7411 71.38 25 71.38C25.2588 71.38 25.5141 71.4404 25.7455 71.5566L28.9119 73.1391C29.5607 73.4617 30.2754 73.6296 30.9999 73.6296C31.7245 73.6296 32.4392 73.4617 33.0879 73.1391L36.2499 71.5506C36.4813 71.4344 36.7366 71.374 36.9954 71.374C37.2543 71.374 37.5096 71.4344 37.7409 71.5506L40.9074 73.1331C41.5562 73.4557 42.2709 73.6236 42.9954 73.6236C43.72 73.6236 44.4346 73.4557 45.0834 73.1331L48.2499 71.5506C48.4812 71.4344 48.7365 71.374 48.9954 71.374C49.2542 71.374 49.5095 71.4344 49.7409 71.5506C50.4274 71.8914 51.1873 72.0578 51.9534 72.0351ZM17.5 83C17.1022 83 16.7206 82.842 16.4393 82.5607C16.158 82.2794 16 81.8979 16 81.5C16 81.1022 16.158 80.7207 16.4393 80.4394C16.7206 80.1581 17.1022 80 17.5 80H31.7784L34.1784 83H17.5ZM38.4999 83.6L35.6214 80H41.3784L38.4999 83.6ZM52.7094 68.7951C52.654 68.8249 52.5969 68.8515 52.5384 68.8746C52.5269 68.8737 52.5154 68.8737 52.5039 68.8746C52.4844 68.8821 52.4739 68.8986 52.4544 68.9061C52.2373 68.9992 52.0024 69.0435 51.7663 69.036C51.5302 69.0285 51.2986 68.9693 51.0879 68.8626C50.4391 68.5399 49.7244 68.372 48.9999 68.372C48.2753 68.372 47.5606 68.5399 46.9119 68.8626L43.7499 70.4496C43.5185 70.5657 43.2633 70.6261 43.0044 70.6261C42.7455 70.6261 42.4903 70.5657 42.2589 70.4496L39.0924 68.8671C38.4437 68.5444 37.729 68.3765 37.0044 68.3765C36.2799 68.3765 35.5652 68.5444 34.9164 68.8671L31.7499 70.4496C31.5186 70.5657 31.2633 70.6261 31.0044 70.6261C30.7456 70.6261 30.4903 70.5657 30.2589 70.4496L27.0925 68.8671C26.4437 68.5444 25.729 68.3765 25.0045 68.3765C24.2799 68.3765 23.5652 68.5444 22.9165 68.8671L20.5045 70.0671C20.0384 70.2987 19.525 70.4192 19.0045 70.4192C18.484 70.4192 17.9706 70.2987 17.5045 70.0671L16.354 69.5001C15.7135 69.1728 15.1966 68.6464 14.881 68.0001H53.3679C53.2396 68.3286 53.0086 68.6069 52.7094 68.7936V68.7951ZM57.8859 64.6266C57.6148 62.2606 56.8311 59.9822 55.5894 57.9501L53.5794 51.5166L54.4869 48.8721L56.8284 49.6776L60.9354 61.2756L61.4739 67.7346C60.0551 66.9872 58.8274 65.9232 57.8859 64.6251V64.6266ZM76.7663 67.0086L77.4998 54.5886C77.5204 54.2395 77.4183 53.8942 77.2112 53.6123C77.0042 53.3305 76.7051 53.1298 76.3658 53.0451L76.1978 53.0001L77.2478 44.6121L81.7943 46.4316L78.0908 65.8866C77.6806 66.2956 77.2376 66.6704 76.7663 67.0071V67.0086Z" fill="#408C3E"/>
<path d="M36.9999 60.5001C37.8284 60.5001 38.4999 59.8285 38.4999 59.0001C38.4999 58.1717 37.8284 57.5001 36.9999 57.5001C36.1715 57.5001 35.4999 58.1717 35.4999 59.0001C35.4999 59.8285 36.1715 60.5001 36.9999 60.5001Z" fill="#408C3E"/>
<path d="M30.9999 59.0001C31.8284 59.0001 32.4999 58.3285 32.4999 57.5001C32.4999 56.6717 31.8284 56.0001 30.9999 56.0001C30.1715 56.0001 29.4999 56.6717 29.4999 57.5001C29.4999 58.3285 30.1715 59.0001 30.9999 59.0001Z" fill="#408C3E"/>
<path d="M26.5 62.0001C27.3284 62.0001 28 61.3285 28 60.5001C28 59.6717 27.3284 59.0001 26.5 59.0001C25.6715 59.0001 25 59.6717 25 60.5001C25 61.3285 25.6715 62.0001 26.5 62.0001Z" fill="#408C3E"/>
<path d="M48.9999 62.0001C49.8283 62.0001 50.4999 61.3285 50.4999 60.5001C50.4999 59.6717 49.8283 59.0001 48.9999 59.0001C48.1714 59.0001 47.4999 59.6717 47.4999 60.5001C47.4999 61.3285 48.1714 62.0001 48.9999 62.0001Z" fill="#408C3E"/>
<path d="M20.5 60.5001C21.3284 60.5001 22 59.8285 22 59.0001C22 58.1717 21.3284 57.5001 20.5 57.5001C19.6715 57.5001 19 58.1717 19 59.0001C19 59.8285 19.6715 60.5001 20.5 60.5001Z" fill="#408C3E"/>
<path d="M42.9999 59.0001C43.8283 59.0001 44.4999 58.3285 44.4999 57.5001C44.4999 56.6717 43.8283 56.0001 42.9999 56.0001C42.1715 56.0001 41.4999 56.6717 41.4999 57.5001C41.4999 58.3285 42.1715 59.0001 42.9999 59.0001Z" fill="#408C3E"/>
</svg>
