<svg width="100" height="100" viewBox="0 0 100 100" fill="none" xmlns="http://www.w3.org/2000/svg">
<path d="M21.0407 38.9716C21.3005 39.3132 21.653 39.486 22.0067 39.486C22.328 39.486 22.65 39.3433 22.9038 39.055C25.4752 36.1338 28.6088 33.8691 32.2185 32.3233C32.569 32.2081 35.5518 31.2645 39.6482 30.9734L39.6739 31.0471C40.2758 32.7684 41.591 34.0055 43.1064 34.2751L61.2699 37.5103C61.4205 37.5371 61.5705 37.5502 61.7186 37.5502C62.6454 37.5502 63.5084 37.035 64.0887 36.1133C64.7616 35.0443 64.9045 33.6656 64.4708 32.4253L62.166 25.8333C61.5641 24.112 60.2489 22.8751 58.7335 22.6055L40.57 19.3704C39.4779 19.1761 38.4241 19.698 37.7512 20.7671C37.0781 21.8361 36.9352 23.2148 37.3691 24.4553L38.5412 27.8077C37.6582 27.8943 36.8347 28.0075 36.0832 28.1323L26.3623 19.4054C25.4729 18.6068 24.3421 18.4631 23.3371 19.0206C22.3322 19.5781 21.6764 20.7133 21.5828 22.0574L21.085 29.2003C20.955 31.0654 21.641 32.9124 22.8754 34.0203L23.3326 34.4307C22.5551 35.1397 21.8131 35.8944 21.1089 36.6947C20.5754 37.3001 20.545 38.3198 21.0407 38.9716V38.9716ZM61.3987 31.8388L62.0466 33.6918C62.1175 33.8944 62.06 34.0519 61.9994 34.1484C61.9387 34.2449 61.8287 34.3523 61.6504 34.3213L43.487 31.0862C42.8742 30.9771 42.3423 30.4769 42.099 29.7808L41.6959 28.6282L61.3987 31.8388ZM39.8412 22.732C39.8945 22.6474 39.9857 22.5535 40.1281 22.5535C40.1478 22.5535 40.1684 22.5552 40.1902 22.5591L58.3537 25.7942C58.9664 25.9033 59.4983 26.4035 59.7418 27.0996L60.1934 28.391L40.4902 25.1804L39.7938 23.1888C39.7231 22.986 39.7804 22.8285 39.8412 22.732V22.732ZM24.2101 22.3305C24.2254 22.1109 24.3366 22.005 24.4272 21.9545C24.4706 21.9304 24.5249 21.9105 24.5857 21.9105C24.6518 21.9105 24.7258 21.9341 24.8016 22.0022L32.5038 28.9169C31.9105 29.0826 31.5482 29.2053 31.467 29.2334C31.4419 29.2422 31.4169 29.2517 31.3923 29.2622C31.0362 29.4141 30.6857 29.5746 30.3378 29.7394L24.0577 24.5165L24.2101 22.3305ZM23.7123 29.4734L23.8009 28.2011L27.504 31.2809C26.8735 31.6715 26.2592 32.0855 25.6624 32.5235L24.4361 31.4227C23.9371 30.9745 23.6597 30.2275 23.7123 29.4734Z" fill="#408C3E"/>
<path d="M91.1052 54.5594H88.8417C88.4052 49.8515 87.4514 45.8357 86.1241 42.4442C86.2827 42.3376 86.4396 42.2259 86.594 42.1062L89.6211 39.7575C90.6389 38.9678 91.2465 37.6166 91.2465 36.1432C91.2465 34.6698 90.6389 33.3187 89.6209 32.5289L86.594 30.1805C85.136 29.0493 83.471 28.4989 81.7827 28.565C81.8368 26.5021 81.3877 24.468 80.4625 22.6865L78.5411 18.9867C77.8949 17.7427 76.7894 17 75.5839 17C74.3782 17 73.2729 17.7427 72.6267 18.9867L70.7053 22.6865C69.9905 24.0626 69.5602 25.5897 69.4259 27.1643C68.7935 27.0444 68.1633 26.9567 67.5386 26.9024C66.8117 26.8386 66.1815 27.5072 66.1297 28.3947C66.0778 29.2824 66.6245 30.0533 67.3508 30.1169C75.4127 30.8207 84.4927 37.6327 86.1867 54.5598H72.9328L76.1313 43.8355C76.5092 42.5683 76.3053 41.2011 75.586 40.1782C74.8665 39.1553 73.7911 38.7039 72.7094 38.9706L66.9597 40.3877C65.4584 40.7576 64.2 42.08 63.6756 43.8385L60.478 54.5598H43.4033L51.7067 47.0614L53.3483 47.9448C53.5133 48.0335 53.5594 48.1966 53.5689 48.3176C53.5784 48.4387 53.5589 48.6093 53.4109 48.7352L51.7179 50.1738C51.1201 50.6817 50.9722 51.6859 51.388 52.4166C51.8037 53.1473 52.6253 53.3279 53.2229 52.8198L54.9161 51.3812C55.8222 50.6115 56.2998 49.3501 56.1936 48.0075C56.0875 46.665 55.4209 45.539 54.4111 44.9954L52.0974 43.7504C52.0972 43.7504 52.0972 43.7502 52.0971 43.7502L49.0429 42.1066C47.6414 41.3523 45.9896 41.5478 44.732 42.616L30.6757 54.5598H24.8188L16.6877 36.8653C16.1477 35.6899 15.167 34.9884 14.064 34.9884H14.0622C12.9587 34.9891 11.9778 35.6923 11.4385 36.8692L8.57258 43.1237C7.8241 44.7567 7.82516 46.7851 8.57504 48.4173L11.3974 54.5594H8.89479C6.74709 54.5594 5 56.6947 5 59.3197V63.044C5 68.0789 8.35127 72.1749 12.4707 72.1749H13.9868L18.3648 79.8326C19.6795 82.1318 21.8344 83.5045 24.1294 83.5045H75.8706C78.1656 83.5045 80.3205 82.1318 81.6352 79.8326L86.0132 72.1749H87.5293C91.6487 72.1749 95 68.0789 95 63.044V59.3197C95 56.6947 93.2527 54.5594 91.1052 54.5594V54.5594ZM79.0978 29.204C78.4027 29.5155 77.7518 29.9357 77.1542 30.449C77.0705 30.3904 76.9863 30.3338 76.9021 30.2767V25.8408C76.9021 24.9509 76.3118 24.2295 75.5837 24.2295C74.8556 24.2295 74.2654 24.9509 74.2654 25.8408V28.7588C73.525 28.4035 72.7769 28.0999 72.0259 27.8462C72.0809 26.639 72.3861 25.4625 72.931 24.4132L74.8525 20.7134C75.0828 20.2701 75.4405 20.2222 75.5836 20.2222C75.7266 20.2222 76.0844 20.2701 76.3146 20.7134L78.2361 24.4132C78.9844 25.8537 79.2825 27.5334 79.0978 29.204V29.204ZM84.8616 39.6145C84.534 38.9671 84.1912 38.3473 83.8347 37.7546H84.657C85.3851 37.7546 85.9754 37.0331 85.9754 36.1432C85.9754 35.2533 85.3851 34.5319 84.657 34.5319H81.5566C80.9266 33.7729 80.2708 33.0748 79.5935 32.4372C79.9602 32.2326 80.3456 32.0704 80.7482 31.9598C82.2806 31.538 83.8548 31.8726 85.1809 32.9012L88.2078 35.2497C88.5704 35.5311 88.6096 35.9683 88.6096 36.1432C88.6096 36.3181 88.5704 36.7555 88.2078 37.0368L85.1809 39.3854C85.0761 39.4666 84.9694 39.5418 84.8616 39.6145V39.6145ZM73.2302 42.1292C73.2594 42.1219 73.287 42.1187 73.3128 42.1187C73.4434 42.1187 73.5322 42.2016 73.5861 42.2787C73.651 42.3709 73.7153 42.5243 73.6537 42.7312L70.1259 54.5594H68.1658L71.6889 42.509L73.2302 42.1292ZM66.1525 44.9417C66.3647 44.2306 66.8736 43.6958 67.4806 43.5461L68.6715 43.2526L65.3657 54.5592H63.284L66.1525 44.9417ZM46.2365 45.2616C46.7451 44.8296 47.413 44.7505 47.9799 45.0556L48.926 45.5648L38.9657 54.5592H35.2943L46.2365 45.2616ZM13.739 38.444C13.827 38.2517 13.9643 38.2113 14.0638 38.2113H14.064C14.1635 38.2113 14.3006 38.2517 14.3887 38.4436L21.7938 54.5596H19.6412L12.9305 40.2083L13.739 38.444ZM10.8741 46.8392C10.5707 46.1792 10.5703 45.3589 10.873 44.6985L11.4274 43.4887L16.6042 54.5596H14.4215L10.8741 46.8392ZM92.3633 63.0442C92.3633 66.3021 90.1948 68.9524 87.5293 68.9524H70.6086C69.8805 68.9524 69.2902 69.6739 69.2902 70.5638C69.2902 71.4537 69.8805 72.1751 70.6086 72.1751H82.7966L79.4738 77.9869C78.652 79.4239 77.3052 80.282 75.8704 80.282H24.1292C22.6947 80.282 21.3477 79.4239 20.5259 77.9869L17.2031 72.1751H64.4888C65.2169 72.1751 65.8071 71.4537 65.8071 70.5638C65.8071 69.6739 65.2169 68.9524 64.4888 68.9524H12.4707C9.80516 68.9524 7.63672 66.3021 7.63672 63.0442V59.3199C7.63672 58.4719 8.20115 57.7823 8.89479 57.7823H91.1052C91.799 57.7823 92.3633 58.4719 92.3633 59.3199V63.0442Z" fill="#408C3E"/>
<path d="M27.8444 49.249C28.2975 48.4175 28.1135 47.2945 27.4334 46.7404C26.7531 46.1866 25.8343 46.4115 25.381 47.243C24.9276 48.0744 25.1118 49.1974 25.7919 49.7515C26.4722 50.3053 27.3912 50.0804 27.8444 49.249Z" fill="#408C3E"/>
<path d="M33.2473 38.3295C33.7007 37.4981 33.5166 36.3751 32.8364 35.821C32.1561 35.2669 31.2373 35.4921 30.7839 36.3233C30.3308 37.1547 30.5148 38.2777 31.1949 38.8318C31.8754 39.3859 32.7942 39.161 33.2473 38.3295Z" fill="#408C3E"/>
<path d="M36.2078 45.9336C36.661 45.1022 36.477 43.9792 35.7969 43.4251C35.1166 42.871 34.1976 43.0962 33.7444 43.9274C33.2911 44.7589 33.4753 45.8818 34.1554 46.4359C34.8357 46.9898 35.7545 46.7649 36.2078 45.9336Z" fill="#408C3E"/>
<path d="M42.5047 37.1925C41.8244 36.6386 40.9054 36.8635 40.4523 37.695C39.9989 38.5264 40.183 39.6494 40.8632 40.2035C41.5435 40.7576 42.4623 40.5324 42.9157 39.7012C43.3688 38.8695 43.1848 37.7465 42.5047 37.1925Z" fill="#408C3E"/>
<path d="M60.8831 48.5423C61.3363 47.7108 61.1522 46.5879 60.4721 46.0338C59.7919 45.4799 58.8731 45.7048 58.4197 46.5363C57.9666 47.3677 58.1506 48.4907 58.8309 49.0448C59.511 49.5987 60.4298 49.3737 60.8831 48.5423Z" fill="#408C3E"/>
<path d="M56.3118 41.5102C56.765 40.6787 56.5809 39.5557 55.9008 39.0017C55.2206 38.4478 54.3016 38.6727 53.8484 39.5042C53.3952 40.3356 53.5793 41.4586 54.2594 42.0127C54.9397 42.5666 55.8585 42.3416 56.3118 41.5102Z" fill="#408C3E"/>
<path d="M70.8568 36.609C71.31 35.7776 71.1259 34.6546 70.4458 34.1005C69.7655 33.5464 68.8467 33.7716 68.3934 34.6028C67.9401 35.4341 68.1243 36.5573 68.8045 37.1113C69.4848 37.6654 70.4036 37.4405 70.8568 36.609Z" fill="#408C3E"/>
<path d="M83.5021 52.1607C83.9553 51.3292 83.7712 50.2063 83.0911 49.6522C82.4109 49.0983 81.4919 49.3233 81.0387 50.1547C80.5854 50.9861 80.7696 52.1091 81.4497 52.6632C82.1301 53.2171 83.0489 52.9921 83.5021 52.1607Z" fill="#408C3E"/>
<path d="M80.3203 45.9336C80.7735 45.1022 80.5895 43.9792 79.9094 43.4251C79.2291 42.871 78.3101 43.0962 77.8569 43.9274C77.4036 44.7589 77.5878 45.8818 78.2679 46.4359C78.9482 46.9898 79.867 46.7649 80.3203 45.9336Z" fill="#408C3E"/>
</svg>
