<svg width="20" height="20" viewBox="0 0 20 20" fill="none" xmlns="http://www.w3.org/2000/svg">
<path d="M5.20001 7.6V2H14.8V7.6" stroke="#0B190B" stroke-width="2" stroke-linecap="round" stroke-linejoin="round"/>
<path d="M5.2 14.8H3.6C3.17565 14.8 2.76869 14.6314 2.46863 14.3313C2.16857 14.0313 2 13.6243 2 13.2V9.19998C2 8.77563 2.16857 8.36866 2.46863 8.06861C2.76869 7.76855 3.17565 7.59998 3.6 7.59998H16.4C16.8243 7.59998 17.2313 7.76855 17.5314 8.06861C17.8314 8.36866 18 8.77563 18 9.19998V13.2C18 13.6243 17.8314 14.0313 17.5314 14.3313C17.2313 14.6314 16.8243 14.8 16.4 14.8H14.8" stroke="#0B190B" stroke-width="2" stroke-linecap="round" stroke-linejoin="round"/>
<path d="M14.8 11.6H5.20001V18H14.8V11.6Z" stroke="#0B190B" stroke-width="2" stroke-linecap="round" stroke-linejoin="round"/>
</svg>
