<svg width="30" height="30" viewBox="0 0 30 30" fill="none" xmlns="http://www.w3.org/2000/svg">
<circle cx="15" cy="15" r="14.5" stroke="#408C3E"/>
<path d="M20.8434 10.1493C20.4768 9.78493 20.0417 9.4959 19.5627 9.2987C19.0837 9.1015 18.5704 9 18.0519 9C17.5335 9 17.0201 9.1015 16.5411 9.2987C16.0621 9.4959 15.627 9.78493 15.2605 10.1493L14.4998 10.9051L13.7392 10.1493C12.9988 9.41366 11.9947 9.00038 10.9477 9.00038C9.90071 9.00038 8.8966 9.41366 8.15626 10.1493C7.41592 10.8849 7 11.8827 7 12.923C7 13.9634 7.41592 14.9611 8.15626 15.6967L8.91691 16.4526L14.4998 22L20.0827 16.4526L20.8434 15.6967C21.21 15.3325 21.5009 14.9001 21.6994 14.4242C21.8979 13.9483 22 13.4382 22 12.923C22 12.4079 21.8979 11.8977 21.6994 11.4218C21.5009 10.9459 21.21 10.5135 20.8434 10.1493Z" fill="#408C3E" stroke="#408C3E" stroke-linecap="round" stroke-linejoin="round"/>
</svg>
