<svg width="100" height="100" viewBox="0 0 100 100" fill="none" xmlns="http://www.w3.org/2000/svg">
<path d="M42.9688 82.6385H57.031C59.9388 82.6385 62.3044 79.7472 62.3044 76.1933C62.3044 72.6394 59.9388 69.748 57.031 69.748H42.9688C40.061 69.748 37.6954 72.6394 37.6954 76.1933C37.6954 79.7472 40.061 82.6385 42.9688 82.6385ZM42.9688 74.0449H57.031C58.0003 74.0449 58.7888 75.0086 58.7888 76.1933C58.7888 77.3779 58.0003 78.3417 57.031 78.3417H42.9688C41.9995 78.3417 41.211 77.3779 41.211 76.1933C41.211 75.0086 41.9995 74.0449 42.9688 74.0449Z" fill="#0B190B"/>
<path d="M93.8709 35.5159C92.9653 35.0913 91.9482 35.6452 91.6004 36.7531L83.947 61.1545H78.188L79.5128 55.1117C81.7225 53.9702 83.4151 51.6356 84.0412 48.779C84.5803 46.3198 84.3006 43.744 83.2534 41.5269C82.7325 40.4243 82.0538 39.4788 81.2556 38.7254C84.9076 25.1438 84.3072 15.1367 79.5871 11.8061C77.4933 10.3284 73.7471 9.60482 67.7917 14.547C63.805 17.8551 59.6145 23.0351 55.6266 29.5734L53.1165 28.7514C49.6643 27.6207 46.1233 29.5109 44.3745 33.0882C42.1148 24.342 39.0986 16.5266 35.7184 10.7321C31.4073 3.34201 26.8667 -0.019384 22.9318 1.26966C18.937 2.57804 16.3691 8.40215 15.7009 17.6693C15.6157 18.8513 16.3306 19.8937 17.2975 19.9982C18.2659 20.0989 19.1175 19.2284 19.2028 18.0465C19.7162 10.9233 21.4505 6.20325 23.8416 5.42016C26.186 4.65082 29.5562 7.57071 32.8559 13.2268C36.5915 19.6308 39.8735 28.7432 42.0971 38.8859C42.8055 42.1171 43.3827 45.3626 43.8178 48.5416L41.0526 61.1547H26.286C24.4813 56.3861 22.9472 51.1464 21.7222 45.5584C21.0776 42.6176 20.5382 39.6535 20.1188 36.7478C19.9502 35.5792 19.0397 34.7992 18.0824 35.0052C17.1263 35.2112 16.4881 36.3256 16.6566 37.4939C17.0936 40.5223 17.6554 43.6098 18.3265 46.6704C19.4513 51.8012 20.8287 56.6587 22.4322 61.1547H16.0528L8.39962 36.7529C8.0521 35.6448 7.0354 35.0911 6.12908 35.5157C5.22259 35.9406 4.76944 37.183 5.11695 38.2907L13.0864 63.7001V95.5285C13.0864 97.8976 14.6635 99.8251 16.602 99.8251H83.3978C85.3363 99.8251 86.9134 97.8976 86.9134 95.5285V63.7006L94.883 38.2907C95.2306 37.183 94.7774 35.9406 93.8709 35.5159ZM77.8294 15.5271C80.7717 17.6035 80.8202 26.2601 78.0389 36.9132L59.2946 30.7743C67.3598 18.0386 74.7523 13.3564 77.8294 15.5271ZM48.5014 43.7801C48.6635 43.0413 48.4917 42.2528 48.0507 41.7099C46.9647 40.3738 46.5353 38.4254 46.9299 36.6251C47.2261 35.2744 47.9405 34.1413 48.9412 33.4351C49.9417 32.7294 51.1017 32.5393 52.207 32.9015L77.5989 41.2171C78.704 41.5791 79.6311 42.452 80.2089 43.6751C80.7867 44.8984 80.9417 46.3159 80.6455 47.6668C80.2509 49.467 79.0818 50.8918 77.5949 51.3855C76.9907 51.5859 76.5196 52.1638 76.3576 52.9029L74.5486 61.1543H44.6926L48.5014 43.7801ZM83.398 95.5287L16.6021 95.529V65.4513H83.398V95.5287Z" fill="#0B190B"/>
<path d="M35.7845 38.7284L27.1253 41.5643C26.1877 41.8716 25.6312 43.0495 25.8824 44.1955C26.0928 45.1556 26.8029 45.7885 27.5792 45.7885C27.7296 45.7885 27.8829 45.7647 28.0353 45.7146L36.6945 42.8787C37.6321 42.5715 38.1887 41.3935 37.9375 40.2476C37.6861 39.1012 36.7221 38.4206 35.7845 38.7284Z" fill="#0B190B"/>
<path d="M32.1666 27.4126L25.6293 29.5536C24.6917 29.8608 24.1351 31.0388 24.3863 32.1848C24.5967 33.1447 25.3069 33.7778 26.0831 33.7778C26.2336 33.7778 26.3869 33.754 26.5393 33.7039L33.0766 31.563C34.0142 31.2558 34.5707 30.0778 34.3195 28.9318C34.0682 27.7858 33.1047 27.1054 32.1666 27.4126Z" fill="#0B190B"/>
<path d="M30.7434 52.8804C29.8058 53.1877 29.2492 54.3656 29.5004 55.5116C29.7108 56.4716 30.421 57.1047 31.1972 57.1047C31.3477 57.1047 31.501 57.0808 31.6534 57.0308L38.1905 54.8899C39.1281 54.5826 39.6847 53.4046 39.4335 52.2587C39.1821 51.1125 38.2179 50.4321 37.2805 50.7395L30.7434 52.8804Z" fill="#0B190B"/>
<path d="M28.7457 17.4116L24.5006 18.8018C23.5628 19.1091 23.0063 20.2868 23.2577 21.433C23.4681 22.3929 24.1782 23.0261 24.9545 23.0261C25.105 23.0261 25.2582 23.0022 25.4105 22.9522L29.6556 21.5619C30.5934 21.2547 31.1499 20.0769 30.8985 18.9307C30.6475 17.7846 29.6832 17.1039 28.7457 17.4116Z" fill="#0B190B"/>
<path d="M74.3594 28.2445L70.5534 25.5588C69.7123 24.9654 68.6375 25.3175 68.1522 26.3451C67.6667 27.3727 67.9548 28.6865 68.7956 29.2799L72.6016 31.9656C72.8784 32.1609 73.1806 32.2539 73.4787 32.2539C74.0862 32.2539 74.6772 31.8685 75.0028 31.1793C75.4883 30.1517 75.2002 28.8379 74.3594 28.2445Z" fill="#0B190B"/>
<path d="M60.6609 41.6479H60.6597C59.689 41.6479 58.9024 42.61 58.9024 43.7964C58.9024 44.9828 59.6901 45.9448 60.6609 45.9448C61.6318 45.9448 62.4187 44.9828 62.4187 43.7964C62.4187 42.61 61.6318 41.6479 60.6609 41.6479Z" fill="#0B190B"/>
<path d="M51.4326 52.927H51.4311C50.4605 52.927 49.674 53.8891 49.674 55.0754C49.674 56.2618 50.4617 57.2239 51.4326 57.2239C52.4034 57.2239 53.1904 56.2618 53.1904 55.0754C53.1904 53.8891 52.4034 52.927 51.4326 52.927Z" fill="#0B190B"/>
<path d="M69.5377 49.7045H69.5365C68.5658 49.7045 67.7792 50.6665 67.7792 51.8529C67.7792 53.0393 68.5669 54.0014 69.5377 54.0014C70.5085 54.0014 71.2955 53.0393 71.2955 51.8529C71.2955 50.6665 70.5085 49.7045 69.5377 49.7045Z" fill="#0B190B"/>
<path d="M19.1775 27.525C19.1775 26.3387 18.3906 25.3766 17.4197 25.3766H17.4185C16.4476 25.3766 15.6614 26.3387 15.6614 27.525C15.6614 28.7114 16.4489 29.6735 17.4197 29.6735C18.3906 29.6735 19.1775 28.7116 19.1775 27.525Z" fill="#0B190B"/>
</svg>
