<svg width="100" height="100" viewBox="0 0 100 100" fill="none" xmlns="http://www.w3.org/2000/svg">
<path d="M93.5001 77H6.49994C5.67201 77 5 77.6704 5 78.4999C5 87.5975 12.4025 95 21.5001 95H78.5001C87.5975 95 95 87.5975 95 78.4999C95 77.6704 94.3296 77 93.5001 77ZM78.4999 91.9999H21.5001C14.5625 91.9999 8.83098 86.7409 8.0825 79.9999H91.9159C91.1674 86.7411 85.4375 91.9999 78.4999 91.9999Z" fill="#0B190B"/>
<path d="M50.0016 54.5C49.994 54.5 49.9881 54.5 49.9821 54.5C44.0706 54.5 38.393 56.6765 33.9981 60.6305L36.0036 62.8596C39.8481 59.4036 44.8116 57.5001 49.9837 57.5001C49.9882 57.5001 49.9956 57.5001 50.0002 57.5001C58.3132 57.5001 65.4202 61.841 68.1067 68.5565L70.8937 67.4435C67.7479 59.5804 59.546 54.5 50.0016 54.5Z" fill="#0B190B"/>
<path d="M61.466 64.631C53.813 58.3115 42.446 59.396 36.1251 67.046L38.438 68.9555C43.7046 62.5805 53.1785 61.6745 59.5535 66.9425C60.5885 67.7991 61.5035 68.7891 62.273 69.8824L64.7301 68.1589C63.806 66.8465 62.7079 65.66 61.466 64.631Z" fill="#0B190B"/>
<path d="M58.3985 69.929C53.6705 65.2956 46.0595 65.3764 41.4275 70.1L43.571 72.2001C47.0449 68.6571 52.7555 68.5985 56.2984 72.0697C58.016 73.7512 59 76.0942 59 78.5001H62C62 75.293 60.6875 72.1685 58.3985 69.929Z" fill="#0B190B"/>
<path d="M66.566 60.4999C66.5435 60.4999 66.5226 60.4999 66.5001 60.4999H65.0001V63.4999H66.506C75.0216 63.533 82.2935 70.1149 83.0061 78.6245L85.994 78.3754C85.1556 68.339 76.6251 60.4999 66.566 60.4999Z" fill="#0B190B"/>
<path d="M75.4445 69.9426C72.7565 67.5397 69.2915 66.3231 65.6931 66.5272C62.0931 66.7267 58.7871 68.3182 56.3826 71.0047L58.6177 73.0056C60.4882 70.9161 63.0592 69.6772 65.8597 69.5211C68.6752 69.3756 71.3527 70.3086 73.4452 72.1777C75.3306 73.8652 76.5442 76.1767 76.8622 78.6892L79.8398 78.3112C79.43 75.083 77.8685 72.11 75.4445 69.9426Z" fill="#0B190B"/>
<path d="M68.2925 72.722C64.2859 71.693 60.1941 74.123 59.1664 78.128L62.0735 78.8721C62.6886 76.4692 65.1455 75.0126 67.5486 75.6291C69.1401 76.0357 70.3852 77.2792 70.7916 78.8721L73.6986 78.128C73.0175 75.473 70.9475 73.4016 68.2925 72.722Z" fill="#0B190B"/>
<path d="M35.0315 60.533C29.84 60.1101 24.794 61.7301 20.8235 65.1005C16.8515 68.471 14.4305 73.187 14.006 78.3771L16.9955 78.623C17.3539 74.2296 19.403 70.2395 22.7631 67.3896C26.1245 64.538 30.3935 63.1626 34.787 63.5255C37.2246 63.7235 39.6305 64.4811 41.7455 65.7126L43.256 63.1191C40.7555 61.6626 37.9115 60.7686 35.0315 60.533Z" fill="#0B190B"/>
<path d="M35.1516 66.5689C27.7731 65.6569 21.011 70.9279 20.1021 78.3169L23.0796 78.6828C23.7861 72.9364 29.0361 68.8519 34.7842 69.5449C39.5737 70.1358 43.3312 73.8933 43.9208 78.6828L46.9013 78.3169C46.1419 72.1578 41.3104 67.3265 35.1516 66.5689Z" fill="#0B190B"/>
<path d="M35.3959 72.7595C33.4594 72.2525 31.4375 72.5329 29.7094 73.5424C27.9799 74.5549 26.7484 76.1809 26.2428 78.1189L29.1453 78.8779C29.4498 77.7155 30.1893 76.7388 31.2259 76.1329C32.2625 75.5254 33.4759 75.3589 34.6383 75.6634C36.2103 76.0744 37.4433 77.3059 37.8542 78.8793L40.7553 78.1189C40.07 75.4971 38.0165 73.4435 35.3959 72.7595Z" fill="#0B190B"/>
<path d="M50 72.5C46.6909 72.5 44.0001 75.191 44.0001 78.4999H47.0001C47.0001 76.8455 48.3456 75.4999 50.0002 75.4999C51.6546 75.4999 53.0002 76.8453 53.0002 78.4999H56.0003C55.9999 75.191 53.3091 72.5 50 72.5Z" fill="#0B190B"/>
<path d="M32 10.9999H19.9999V13.9999H32V10.9999Z" fill="#0B190B"/>
<path d="M32 17.0001H23V20.0002H32V17.0001Z" fill="#0B190B"/>
<path d="M16.697 37.256C15.1071 34.4766 15.1071 31.0251 16.697 28.2455C18.812 24.5479 18.812 19.9535 16.697 16.256C15.1071 13.4765 15.1071 10.0251 16.697 7.24543C16.9624 6.78049 16.961 6.21043 16.6924 5.74689C16.424 5.28494 15.929 5 15.395 5H10.9999V8.00006H13.1C12.059 11.2056 12.389 14.7666 14.093 17.7441C15.6829 20.5236 15.6829 23.9751 14.093 26.7547C11.978 30.4523 11.978 35.0466 14.093 38.7442C15.6829 41.5237 15.6829 44.9751 14.093 47.7548C11.978 51.4537 11.978 56.0467 14.0315 59.6242C14.4904 60.6262 14.8789 61.6657 15.1865 62.7097L18.0635 61.8623C17.7155 60.6803 17.276 59.5087 16.697 58.2563C15.1071 55.4782 15.1071 52.0238 16.697 49.2457C18.812 45.548 18.812 40.9534 16.697 37.256Z" fill="#0B190B"/>
<path d="M94.997 15.935C94.874 11.5459 91.205 8.10799 86.8116 8.195L43.103 9.48049L40.8154 7.19305C39.3995 5.77854 37.5171 5 35.5176 5C35.5146 5 35.5116 5 35.51 5H21.605C21.0666 5 20.57 5.28793 20.303 5.75445C18.188 9.45201 18.188 14.0464 20.303 17.744C21.8929 20.5234 21.8929 23.9751 20.303 26.7545C18.188 30.4521 18.188 35.0465 20.303 38.744C21.8929 41.5235 21.8929 44.9749 20.303 47.7546C18.188 51.4535 18.188 56.0465 20.303 59.7441C20.5085 60.1041 20.6885 60.4776 20.843 60.8631L23.627 59.7471C23.4229 59.2355 23.18 58.7332 22.907 58.2561C21.3171 55.478 21.3171 52.0236 22.907 49.2455C25.022 45.548 25.022 40.9536 22.907 37.256C21.3171 34.4766 21.3171 31.0251 22.907 28.2455C23.318 27.5255 23.6495 26.774 23.9 26.0001H35.5084C35.5114 26.0001 35.513 26.0001 35.516 26.0001C37.5169 26.0001 39.3995 25.2201 40.8154 23.8056L43.0849 21.5361L86.5699 24.0921C86.7258 24.1011 86.9434 24.0981 87.0348 24.1057C91.4239 24.1057 94.9968 20.5357 94.9998 16.1452L94.997 15.935ZM87.0336 21.1054C86.9181 21.0799 86.8446 21.1024 86.7486 21.0979L42.5885 18.503C42.161 18.4715 41.7425 18.6364 41.4394 18.9395L38.6945 21.6845C37.8454 22.5319 36.7174 23 35.5144 23C35.5128 23 35.5114 23 35.5098 23H24.4699C24.6124 20.6809 24.092 18.3276 22.9068 16.2546C21.4593 13.7226 21.3303 10.6312 22.5213 8.00006H35.5114C35.513 8.00006 35.5144 8.00006 35.516 8.00006C36.716 8.00006 37.8454 8.46799 38.6945 9.31701L41.4394 12.062C41.7304 12.3529 42.1385 12.524 42.5435 12.5001L86.897 11.1935C89.6976 11.117 91.9205 13.283 91.9999 16.1435C91.9969 18.8809 89.7694 21.1054 87.0336 21.1054Z" fill="#0B190B"/>
<path d="M28.9056 37.256C27.3156 34.4765 27.3156 31.0251 28.904 28.247C29.5039 27.203 29.942 26.0794 30.2074 24.9065L27.281 24.245C27.0815 25.1255 26.7529 25.9699 26.3015 26.756C24.1865 30.4536 24.1865 35.048 26.3015 38.7455C27.8915 41.525 27.8915 44.978 26.3 47.7591C24.3425 51.197 24.1895 55.3836 25.8904 58.9551L28.5979 57.6666C27.317 54.9786 27.4339 51.8302 28.9054 49.2457C31.0206 45.5479 31.0206 40.9535 28.9056 37.256Z" fill="#0B190B"/>
<path d="M14 10.9999H10.9999V13.9999H14V10.9999Z" fill="#0B190B"/>
<path d="M15.4999 17.0001H10.9999V20.0002H15.4999V17.0001Z" fill="#0B190B"/>
<path d="M16.9999 23H10.9999V26.0001H16.9999V23Z" fill="#0B190B"/>
</svg>
