<svg width="100" height="100" viewBox="0 0 100 100" fill="none" xmlns="http://www.w3.org/2000/svg">
<path d="M95 77.5806C95 75.4308 93.2624 73.5103 89.8511 71.8598C90.3563 70.4706 90.6452 68.9798 90.6452 67.4194C90.6452 60.2165 84.785 54.3548 77.5806 54.3548C74.8966 54.3548 72.3998 55.1706 70.3226 56.5642V40.7677C70.3226 38.3015 71.9789 36.1052 74.3494 35.4273C77.9624 34.3952 80.4839 31.0521 80.4839 27.2968V9.35484C80.4839 6.95387 78.53 5 76.129 5C73.7281 5 71.7742 6.95387 71.7742 9.35484V23.871C71.7742 24.6708 71.1239 25.3226 70.3226 25.3226C69.5213 25.3226 68.871 24.6708 68.871 23.871V9.35484C68.871 6.95387 66.9171 5 64.5161 5C62.1152 5 60.1613 6.95387 60.1613 9.35484V23.871C60.1613 24.6708 59.511 25.3226 58.7097 25.3226C57.9084 25.3226 57.2581 24.6708 57.2581 23.871V9.35484C57.2581 6.95387 55.3042 5 52.9032 5C50.5023 5 48.5484 6.95387 48.5484 9.35484V27.2968C48.5484 31.0521 51.0698 34.3966 54.6829 35.4287C57.0534 36.1052 58.7097 38.3015 58.7097 40.7677V53.6958C56.3436 53.1718 53.9121 52.9032 51.4516 52.9032L49.5297 52.9047L40.2205 43.594L39.1927 44.6189C39.1129 44.6987 39.0665 44.7684 39.0911 44.751C38.9518 44.8061 38.7544 44.841 38.4031 44.9208C38.3987 44.9223 38.3915 44.9237 38.3871 44.9252V38.1084C38.3871 36.5261 39.1129 34.9976 40.4295 33.8073C43.7435 30.8082 45.6452 26.1282 45.6452 20.9677C45.6452 12.0142 39.9069 5 32.5806 5C25.2544 5 19.5161 12.0142 19.5161 20.9677C19.5161 26.1282 21.4177 30.8082 24.7318 33.8058C26.0484 34.9976 26.7742 36.5261 26.7742 38.1084V55.1358C26.5303 55.8877 26.3692 56.554 26.2516 57.0708C26.1703 57.4235 26.1355 57.6224 26.1311 57.6761C26.0861 57.7327 26.0252 57.7879 25.9468 57.8663C25.8626 57.9505 25.8103 58.0085 25.8379 58.0042C25.6971 58.0594 25.4997 58.0956 25.1455 58.1755C23.4819 58.5544 20.3871 59.2613 17.2327 62.4156C14.0813 65.5656 13.3729 68.6619 12.9911 70.3313C12.9534 70.4982 12.9258 70.626 12.9069 70.7247C7.67823 72.6161 5 74.9184 5 77.5806V83.3871C5 91.011 27.6379 95 50 95C72.3621 95 95 91.011 95 83.3871V77.7752H94.9826C94.9855 77.7098 95 77.646 95 77.5806V77.5806ZM77.5806 57.2581C83.1824 57.2581 87.7419 61.8161 87.7419 67.4194C87.7419 73.0226 83.1824 77.5806 77.5806 77.5806C71.9789 77.5806 67.4194 73.0226 67.4194 67.4194C67.4194 61.8161 71.9789 57.2581 77.5806 57.2581ZM64.6032 68.8782C64.5742 68.8782 64.5452 68.871 64.5161 68.871C60.514 68.871 57.2581 72.1269 57.2581 76.129C57.2581 80.1311 60.514 83.3871 64.5161 83.3871V80.4839C62.1152 80.4839 60.1613 78.53 60.1613 76.129C60.1613 73.7281 62.1152 71.7742 64.5161 71.7742C64.7832 71.7742 65.0474 71.8032 65.3058 71.8511C66.7168 75.7444 69.9161 78.7811 73.9168 79.9526C72.9674 82.2708 71.1689 84.2058 68.8855 85.2974C66.6703 85.5471 64.3173 85.7576 61.8277 85.9187C57.4221 84.7124 54.3548 80.7176 54.3548 76.129C54.3548 70.5258 58.9144 65.9677 64.5161 65.9677C64.5437 65.9677 64.5727 65.9736 64.6003 65.9736C64.5481 66.4497 64.5161 66.9302 64.5161 67.4194C64.5161 67.9129 64.5495 68.3992 64.6032 68.8782ZM55.4784 32.6373C53.1079 31.9594 51.4516 29.7631 51.4516 27.2968V9.35484C51.4516 8.555 52.1019 7.90323 52.9032 7.90323C53.7045 7.90323 54.3548 8.555 54.3548 9.35484V23.871C54.3548 26.2719 56.3087 28.2258 58.7097 28.2258C61.1106 28.2258 63.0645 26.2719 63.0645 23.871V9.35484C63.0645 8.555 63.7148 7.90323 64.5161 7.90323C65.3174 7.90323 65.9677 8.555 65.9677 9.35484V23.871C65.9677 26.2719 67.9216 28.2258 70.3226 28.2258C72.7236 28.2258 74.6774 26.2719 74.6774 23.871V9.35484C74.6774 8.555 75.3277 7.90323 76.129 7.90323C76.9303 7.90323 77.5806 8.555 77.5806 9.35484V27.2968C77.5806 29.7631 75.9244 31.9594 73.5539 32.6373C69.9408 33.6694 67.4194 37.0124 67.4194 40.7677V56.9736C65.5613 55.9589 63.6176 55.1344 61.6129 54.4956V40.7677C61.6129 37.0124 59.0915 33.6694 55.4784 32.6373ZM51.4516 55.8065C56.9039 55.8065 62.1877 57.2595 66.846 59.9929C66.1811 60.951 65.6498 62.0019 65.2579 63.1211C65.0097 63.1066 64.7644 63.0645 64.5161 63.0645C57.3118 63.0645 51.4516 68.9261 51.4516 76.129C51.4516 80.1224 53.2632 83.766 56.1868 86.1887C54.1908 86.2526 52.1324 86.2903 50 86.2903C36.3897 86.2903 25.5287 84.9084 18.246 83.0706C18.3766 81.8208 18.5842 80.584 18.8673 79.3647L22.039 82.5365L23.0653 81.5102C26.2211 78.3558 26.9266 75.261 27.3055 73.5974C27.3868 73.2447 27.4216 73.0458 27.4274 72.9906C27.4724 72.934 27.5334 72.8774 27.6161 72.7961C27.6931 72.7192 27.7468 72.6597 27.725 72.6597C27.8644 72.6045 28.0632 72.5682 28.4145 72.4884C30.0781 72.1095 33.1729 71.4026 36.3273 68.2497C39.4802 65.0982 40.1856 62.0019 40.566 60.3369C40.6473 59.9842 40.6821 59.7868 40.6879 59.7316C40.7329 59.675 40.7939 59.6184 40.8737 59.54C40.9521 59.4602 40.9942 59.3963 40.9739 59.4094C41.1132 59.3542 41.3106 59.3194 41.6605 59.2395C43.1673 58.8969 45.8513 58.2669 48.6906 55.8094L51.4516 55.8065ZM46.4435 53.9237C44.301 55.6613 42.3631 56.1011 41.016 56.4074C39.8474 56.6745 39.544 56.7645 38.8197 57.4874C38.0953 58.2132 38.0039 58.5181 37.7353 59.6939C37.3768 61.2645 36.8353 63.6379 34.2747 66.1971C31.7126 68.7592 29.3392 69.3006 27.7671 69.6592C26.5942 69.9277 26.2894 70.0192 25.5635 70.7436C24.8348 71.4708 24.7448 71.7771 24.4763 72.9529C24.1685 74.3 23.7258 76.2379 21.9882 78.3805L19.879 76.2713C21.1245 74.7224 21.4439 73.371 21.7197 72.1589C22.0071 70.9003 22.2335 69.906 23.5719 68.5676C24.9118 67.2292 25.9047 67.0013 27.1647 66.7153C28.6018 66.3858 30.2319 66.0142 32.1611 64.085C34.0903 62.1558 34.4619 60.5256 34.79 59.0886C35.0774 57.83 35.3039 56.8371 36.6394 55.5002C37.9748 54.1647 38.9677 53.9382 40.2263 53.6523C41.4369 53.3765 42.7855 53.0585 44.3329 51.8145L46.4435 53.9237ZM26.6798 31.6531C23.9711 29.2042 22.4194 25.3095 22.4194 20.9677C22.4194 13.6415 26.8831 7.90323 32.5806 7.90323C38.2782 7.90323 42.7419 13.6415 42.7419 20.9677C42.7419 25.3095 41.1902 29.2042 38.4815 31.6531C36.5479 33.4023 35.4839 35.6944 35.4839 38.1084V45.8048C33.9945 46.4073 32.2569 47.39 30.4903 49.1581C30.1913 49.4571 29.9344 49.7532 29.6774 50.0494V38.1084C29.6774 35.6944 28.6134 33.4023 26.6798 31.6531V31.6531ZM15.8218 70.9715C16.1803 69.4008 16.7247 67.026 19.2853 64.4668C21.8489 61.9032 24.2208 61.3632 25.7929 61.0047C26.9658 60.7361 27.2692 60.6447 27.9979 59.9203C28.7223 59.196 28.8137 58.8926 29.0823 57.7153C29.4394 56.1447 29.9808 53.7713 32.5429 51.2106C35.105 48.6485 37.4755 48.11 39.0461 47.7529C39.4598 47.6585 39.7661 47.586 40.0202 47.5003L42.2687 49.7489C41.3484 50.4166 40.5413 50.6039 39.5832 50.8216C38.1461 51.1497 36.5174 51.5198 34.5897 53.4476C32.6619 55.3768 32.2903 57.0055 31.9623 58.4426C31.6748 59.7011 31.4484 60.694 30.1115 62.0324C28.7731 63.3708 27.7802 63.5973 26.5202 63.8847C25.0816 64.2142 23.4529 64.5858 21.5223 66.515C19.5931 68.4442 19.22 70.0744 18.8919 71.5115C18.6727 72.4724 18.484 73.281 17.8134 74.2042L15.5663 71.9556C15.6534 71.6987 15.726 71.391 15.8218 70.9715ZM13.2074 73.7034L16.491 76.9884C15.9902 78.7158 15.6229 80.4839 15.4066 82.2795C10.5379 80.7655 7.90323 79.0555 7.90323 77.5806C7.90323 76.6618 9.34468 75.2015 13.2074 73.7034V73.7034ZM92.0968 83.3871C92.0968 87.0234 76.0826 92.0968 50 92.0968C23.9174 92.0968 7.90323 87.0234 7.90323 83.3871V81.979C14.7026 86.7302 32.4326 89.1936 50 89.1936C67.5674 89.1936 85.2974 86.7302 92.0968 81.979V83.3871ZM74.4945 84.5382C75.5121 83.3305 76.309 81.9442 76.8374 80.4461C77.0856 80.4606 77.3295 80.4839 77.5806 80.4839C82.1924 80.4839 86.2439 78.0756 88.5694 74.4582C91.1431 75.6994 92.0968 76.8592 92.0968 77.5806C92.0968 79.8727 85.73 82.7339 74.4945 84.5382Z" fill="#408C3E"/>
<path d="M77.5806 74.6774C81.5827 74.6774 84.8387 71.4214 84.8387 67.4193C84.8387 63.4172 81.5827 60.1613 77.5806 60.1613C73.5785 60.1613 70.3226 63.4172 70.3226 67.4193C70.3226 71.4214 73.5785 74.6774 77.5806 74.6774ZM77.5806 63.0645C79.9816 63.0645 81.9355 65.0184 81.9355 67.4193C81.9355 69.8203 79.9816 71.7742 77.5806 71.7742C75.1797 71.7742 73.2258 69.8203 73.2258 67.4193C73.2258 65.0184 75.1797 63.0645 77.5806 63.0645Z" fill="#408C3E"/>
<path d="M31.129 77.5807H34.0323V80.4839H31.129V77.5807Z" fill="#408C3E"/>
<path d="M36.9355 71.7742H39.8387V74.6774H36.9355V71.7742Z" fill="#408C3E"/>
<path d="M42.7419 60.1613H45.6452V63.0645H42.7419V60.1613Z" fill="#408C3E"/>
<path d="M50 61.6129H52.9032V64.5161H50V61.6129Z" fill="#408C3E"/>
<path d="M45.6451 70.3226H48.5484V73.2259H45.6451V70.3226Z" fill="#408C3E"/>
<path d="M45.6451 80.4839H48.5484V83.3871H45.6451V80.4839Z" fill="#408C3E"/>
<path d="M36.9355 80.4839H39.8387V83.3871H36.9355V80.4839Z" fill="#408C3E"/>
</svg>
