<svg width="100" height="100" viewBox="0 0 100 100" fill="none" xmlns="http://www.w3.org/2000/svg">
<path d="M93.5 50.0007H86.6938C87.1623 49.1917 87.4351 48.2842 87.4903 47.351C87.5456 46.4177 87.3817 45.4844 87.0118 44.6258C86.642 43.7672 86.0764 43.007 85.3602 42.406C84.6441 41.805 83.7973 41.3798 82.8875 41.1645C82.784 40.417 82.601 39.6827 82.3415 38.974C81.3811 36.4116 79.484 35.0007 77 35.0007C76.6022 35.0007 76.2206 35.1587 75.9393 35.44C75.658 35.7213 75.5 36.1028 75.5 36.5007C75.5 36.8985 75.658 37.28 75.9393 37.5613C76.2206 37.8426 76.6022 38.0007 77 38.0007C77.75 38.0007 78.827 38.2047 79.5108 39.9694C79.6657 40.3783 79.7825 40.8006 79.8599 41.2309C78.9818 41.4797 78.172 41.9258 77.4925 42.5351C76.8129 43.1445 76.2815 43.901 75.9388 44.7469C75.5961 45.5929 75.4511 46.5059 75.515 47.4164C75.5788 48.3269 75.8498 49.2108 76.3072 50.0007H65.5162L69.4368 36.9319C69.542 36.5836 69.5164 36.2088 69.3649 35.8779C69.2135 35.547 68.9465 35.2828 68.6141 35.1347C69.0447 34.4333 69.3264 33.6506 69.4414 32.8356C69.5565 32.0205 69.5025 31.1905 69.2828 30.3972C69.0631 29.6039 68.6825 28.8644 68.1646 28.2246C67.6466 27.5848 67.0025 27.0585 66.2724 26.6785C65.7349 23.9514 64.2672 21.4955 62.1201 19.7302C59.973 17.965 57.2796 17 54.5 17C51.7204 17 49.027 17.965 46.8799 19.7302C44.7328 21.4955 43.2652 23.9514 42.7276 26.6785C41.9975 27.0585 41.3534 27.5848 40.8354 28.2246C40.3175 28.8644 39.9369 29.6039 39.7172 30.3972C39.4975 31.1905 39.4435 32.0205 39.5586 32.8356C39.6736 33.6506 39.9553 34.4333 40.3859 35.1347C40.0535 35.2828 39.7865 35.547 39.6351 35.8779C39.4836 36.2088 39.458 36.5836 39.5632 36.9319L42.4113 46.4256C39.4753 45.8461 36.4924 45.5365 33.5 45.5007C29.7851 45.5007 23.5411 46.2012 18.17 48.1755C9.76437 51.2654 8 55.7678 8 59.0007V59.049C6.035 61.3309 5 63.8959 5 66.5007V68.0007C5 69.8847 6.46962 71.4636 8.61444 72.1427L10.4767 79.5923C10.7191 80.5664 11.2808 81.4312 12.072 82.049C12.8632 82.6667 13.8384 83.0017 14.8422 83.0007H93.5C93.8978 83.0007 94.2794 82.8426 94.5607 82.5613C94.842 82.28 95 81.8985 95 81.5007V51.5007C95 51.1028 94.842 50.7213 94.5607 50.44C94.2794 50.1587 93.8978 50.0007 93.5 50.0007ZM78.5 47.0007C78.5 46.4073 78.6759 45.8273 79.0056 45.334C79.3352 44.8406 79.8038 44.4561 80.352 44.229C80.9001 44.002 81.5033 43.9426 82.0853 44.0583C82.6672 44.1741 83.2018 44.4598 83.6213 44.8794C84.0409 45.2989 84.3266 45.8335 84.4424 46.4154C84.5581 46.9973 84.4987 47.6005 84.2716 48.1487C84.0446 48.6969 83.6601 49.1654 83.1667 49.4951C82.6734 49.8247 82.0933 50.0007 81.5 50.0007C80.7046 49.9997 79.9421 49.6834 79.3797 49.121C78.8173 48.5585 78.5009 47.796 78.5 47.0007ZM53.1155 50.0007L55.5155 44.0007H58.4187L57.5769 46.5263C57.5146 46.7132 57.4897 46.9105 57.5037 47.107C57.5176 47.3035 57.5702 47.4953 57.6583 47.6715C57.7464 47.8477 57.8683 48.0049 58.0171 48.1339C58.166 48.263 58.3387 48.3615 58.5256 48.4238C58.9031 48.5496 59.315 48.5203 59.6709 48.3424C59.8471 48.2543 60.0042 48.1324 60.1333 47.9835C60.2623 47.8347 60.3608 47.6619 60.4231 47.475L61.5813 44.0007H64.184L62.384 50.0007H53.1155ZM44.5526 29.1542C44.8223 29.0645 45.061 28.9 45.2408 28.6798C45.4206 28.4597 45.5342 28.1929 45.5682 27.9107C45.834 25.7289 46.8891 23.7198 48.5346 22.2626C50.1801 20.8053 52.302 20.0008 54.5 20.0008C56.698 20.0008 58.8199 20.8053 60.4654 22.2626C62.1108 23.7198 63.166 25.7289 63.4317 27.9107C63.4658 28.1929 63.5794 28.4597 63.7592 28.6798C63.939 28.9 64.1777 29.0645 64.4474 29.1542C65.1234 29.3793 65.6973 29.8375 66.0662 30.447C66.4352 31.0564 66.5753 31.7773 66.4613 32.4806C66.3473 33.1839 65.9868 33.8236 65.4442 34.2853C64.9016 34.7471 64.2124 35.0007 63.5 35.0007H45.5C44.7876 35.0007 44.0984 34.7471 43.5558 34.2853C43.0132 33.8236 42.6527 33.1839 42.5387 32.4806C42.4247 31.7773 42.5648 31.0564 42.9338 30.447C43.3027 29.8375 43.8766 29.3793 44.5526 29.1542ZM44.8162 44.0007H47C47.3978 44.0007 47.7794 43.8426 48.0607 43.5613C48.342 43.28 48.5 42.8985 48.5 42.5007C48.5 42.1028 48.342 41.7213 48.0607 41.44C47.7794 41.1587 47.3978 41.0007 47 41.0007H44C43.9721 41.0007 43.9449 41.0033 43.9173 41.0048L43.016 38.0007H65.9848L65.0847 41.0007H54.5C54.2003 41.0006 53.9074 41.0903 53.6592 41.2583C53.4109 41.4262 53.2187 41.6646 53.1072 41.9429L50.3697 48.7877C49.8822 48.5781 49.3691 48.3738 48.8304 48.1748C47.8366 47.8092 46.811 47.4874 45.7782 47.2056L44.8162 44.0007ZM8 68.0007V66.5007C8 64.467 8.87412 62.4966 10.598 60.6441C10.8564 60.3665 11 60.0013 11 59.622V59.0007C11 54.8736 15.4625 52.3673 19.205 50.9912C24.2062 49.153 30.0312 48.5007 33.5 48.5007C36.9688 48.5007 42.7938 49.153 47.795 50.9912C51.5375 52.3673 56 54.8736 56 59.0007V59.622C56 60.0013 56.1436 60.3665 56.402 60.6441C58.1259 62.4966 59 64.467 59 66.5007V68.0007C59 68.6123 57.8313 69.5007 56 69.5007C54.1687 69.5007 53 68.6123 53 68.0007C53 67.6028 52.842 67.2213 52.5607 66.94C52.2794 66.6587 51.8978 66.5007 51.5 66.5007C51.1022 66.5007 50.7206 66.6587 50.4393 66.94C50.158 67.2213 50 67.6028 50 68.0007C50 68.6123 48.8313 69.5007 47 69.5007C45.1687 69.5007 44 68.6123 44 68.0007C44 67.6028 43.842 67.2213 43.5607 66.94C43.2794 66.6587 42.8978 66.5007 42.5 66.5007C42.1022 66.5007 41.7206 66.6587 41.4393 66.94C41.158 67.2213 41 67.6028 41 68.0007C41 68.6123 39.8313 69.5007 38 69.5007C36.1687 69.5007 35 68.6123 35 68.0007C35 67.6028 34.842 67.2213 34.5607 66.94C34.2794 66.6587 33.8978 66.5007 33.5 66.5007C33.1022 66.5007 32.7206 66.6587 32.4393 66.94C32.158 67.2213 32 67.6028 32 68.0007C32 68.6123 30.8313 69.5007 29 69.5007C27.1687 69.5007 26 68.6123 26 68.0007C26 67.6028 25.842 67.2213 25.5607 66.94C25.2794 66.6587 24.8978 66.5007 24.5 66.5007C24.1022 66.5007 23.7206 66.6587 23.4393 66.94C23.158 67.2213 23 67.6028 23 68.0007C23 68.6123 21.8313 69.5007 20 69.5007C18.1687 69.5007 17 68.6123 17 68.0007C17 67.6028 16.842 67.2213 16.5607 66.94C16.2794 66.6587 15.8978 66.5007 15.5 66.5007C15.1022 66.5007 14.7206 66.6587 14.4393 66.94C14.158 67.2213 14 67.6028 14 68.0007C14 68.6123 12.8313 69.5007 11 69.5007C9.16869 69.5007 8 68.6123 8 68.0007ZM62 68.0007V66.5007H86V72.5007H58.2961L58.3856 72.1427C60.5304 71.4636 62 69.8847 62 68.0007ZM56.5233 79.5921L57.5461 75.5007H86V80.0007H56.3988C56.4459 79.8674 56.4884 79.7316 56.5233 79.5921ZM86 63.5007H61.5367C61.006 61.8582 60.1425 60.3428 59 59.049V59.0007H86V63.5007ZM14.8422 80.0007C14.5076 80.001 14.1825 79.8893 13.9187 79.6834C13.6549 79.4775 13.4677 79.1891 13.3869 78.8644L11.7875 72.4632C13.2714 72.3235 14.5709 71.7934 15.5009 71.008C16.5911 71.9288 18.1901 72.5007 20 72.5007C21.8099 72.5007 23.4089 71.9288 24.5 71.0072C25.5911 71.9288 27.1901 72.5007 29 72.5007C30.8099 72.5007 32.4089 71.9288 33.5 71.0072C34.5911 71.9288 36.1901 72.5007 38 72.5007C39.8099 72.5007 41.4089 71.9288 42.5 71.0072C43.5911 71.9288 45.1901 72.5007 47 72.5007C48.8099 72.5007 50.4089 71.9288 51.5 71.0072C52.43 71.7927 53.7294 72.3227 55.2134 72.4624L53.6131 78.8642C53.5323 79.189 53.3451 79.4774 53.0813 79.6833C52.8176 79.8893 52.4924 80.001 52.1577 80.0007H14.8422ZM92 80.0007H89V57.5007C89 57.1028 88.842 56.7213 88.5607 56.44C88.2794 56.1587 87.8978 56.0007 87.5 56.0007H58.4607C58.038 54.8954 57.4138 53.8782 56.6199 53.0007H92V80.0007Z" fill="#0B190B"/>
<path d="M24.5 56.0006C24.6613 56.0005 24.8215 55.9744 24.9746 55.9234L29.4746 54.4234C29.852 54.2975 30.164 54.0269 30.3419 53.6711C30.5198 53.3152 30.5491 52.9033 30.4233 52.5259C30.2975 52.1484 30.0269 51.8364 29.671 51.6585C29.3152 51.4806 28.9032 51.4513 28.5258 51.5771L24.0258 53.0771C23.6876 53.1895 23.4004 53.4186 23.2157 53.7235C23.0311 54.0283 22.961 54.3889 23.0181 54.7408C23.0751 55.0926 23.2556 55.4126 23.5272 55.6434C23.7987 55.8743 24.1436 56.0009 24.5 56.0006Z" fill="#0B190B"/>
<path d="M33.5 60.5006C33.8978 60.5006 34.2794 60.3426 34.5607 60.0613C34.842 59.78 35 59.3984 35 59.0006V56.0006C35 55.6028 34.842 55.2213 34.5607 54.9399C34.2794 54.6586 33.8978 54.5006 33.5 54.5006C33.1022 54.5006 32.7206 54.6586 32.4393 54.9399C32.158 55.2213 32 55.6028 32 56.0006V59.0006C32 59.3984 32.158 59.78 32.4393 60.0613C32.7206 60.3426 33.1022 60.5006 33.5 60.5006Z" fill="#0B190B"/>
<path d="M37.5256 54.4237L42.0256 55.9237C42.403 56.0495 42.815 56.0202 43.1709 55.8423C43.5267 55.6644 43.7973 55.3524 43.9231 54.975C44.0489 54.5975 44.0196 54.1856 43.8417 53.8297C43.6638 53.4739 43.3518 53.2033 42.9744 53.0775L38.4744 51.5775C38.0969 51.4517 37.685 51.4809 37.3291 51.6589C36.9733 51.8368 36.7027 52.1488 36.5769 52.5262C36.451 52.9037 36.4803 53.3156 36.6582 53.6715C36.8362 54.0273 37.1482 54.2979 37.5256 54.4237Z" fill="#0B190B"/>
<path d="M54.5 26.0006C55.2954 26.0016 56.0579 26.3179 56.6203 26.8803C57.1827 27.4427 57.4991 28.2053 57.5 29.0006C57.5 29.3984 57.658 29.78 57.9393 30.0613C58.2206 30.3426 58.6022 30.5006 59 30.5006C59.3978 30.5006 59.7794 30.3426 60.0607 30.0613C60.342 29.78 60.5 29.3984 60.5 29.0006C60.4982 27.4099 59.8655 25.8848 58.7407 24.7599C57.6158 23.6351 56.0908 23.0024 54.5 23.0006C54.1022 23.0006 53.7206 23.1586 53.4393 23.44C53.158 23.7213 53 24.1028 53 24.5006C53 24.8984 53.158 25.28 53.4393 25.5613C53.7206 25.8426 54.1022 26.0006 54.5 26.0006Z" fill="#0B190B"/>
</svg>
