<svg width="100" height="100" viewBox="0 0 100 100" fill="none" xmlns="http://www.w3.org/2000/svg">
<path d="M35.8745 64.0142C32.5198 63.6153 29.3736 62.1784 26.8752 59.9045C24.2902 57.7313 22.458 54.7969 21.6407 51.5202C20.6982 47.6206 18.5393 44.122 15.4762 41.531C14.3662 40.4961 13.3613 39.7162 12.3863 38.9963C11.7195 38.5034 10.7793 38.6444 10.2864 39.3112C9.7936 39.9781 9.93456 40.9183 10.6014 41.4111C11.5014 42.0711 12.4463 42.851 13.4961 43.781C16.082 45.9509 17.91 48.8874 18.7157 52.1653C19.674 56.0656 21.8425 59.5623 24.9103 62.1545C27.8975 64.8469 31.6531 66.5359 35.6496 66.9841H35.7845L35.7395 67.0142C36.5679 67.0514 37.2696 66.4102 37.3069 65.5818C37.3443 64.7531 36.7029 64.0514 35.8745 64.0142Z" fill="#0B190B"/>
<path d="M75.154 36.0388C74.6239 35.4024 73.6781 35.3162 73.0417 35.8464C70.8565 37.651 68.368 39.0527 65.6923 39.986C59.2174 42.2041 52.1485 41.9313 45.8638 39.2211C45.1456 38.9513 44.3393 39.267 43.9953 39.9528C43.624 40.6933 43.9233 41.5947 44.6638 41.9659C51.6564 44.9571 59.5139 45.2299 66.6972 42.7308C68.6804 42.0343 70.5776 41.1132 72.3518 39.986C70.9869 53.485 60.7427 63.9841 48.3537 63.9841H36.2797C35.4513 63.9841 34.7798 64.6556 34.7798 65.484C34.7798 66.3124 35.4515 66.9838 36.2797 66.9838H48.3537C63.3226 66.9838 75.5015 53.4848 75.5015 36.986C75.4987 36.6398 75.3759 36.3049 75.154 36.0388Z" fill="#0B190B"/>
<path d="M35.3272 64.0215C34.5238 63.8185 33.7078 64.3054 33.5048 65.109C33.5048 65.3191 32.23 69.9836 27.5053 69.9836C26.677 69.9836 26.0055 70.655 26.0055 71.4834C26.0055 72.3118 26.677 72.9832 27.5053 72.9832C31.7472 72.8897 35.3991 69.9632 36.4147 65.8437C36.6175 65.0405 36.1306 64.2245 35.3272 64.0215Z" fill="#0B190B"/>
<path d="M56.0031 69.9836C51.3384 69.9836 50.0036 65.3189 50.0036 65.109C49.8006 64.2806 48.9647 63.7737 48.1363 63.9766C47.3079 64.1796 46.801 65.0155 47.0038 65.8439C48.028 69.9952 51.7277 72.9304 56.0031 72.9834C56.8315 72.9834 57.5029 72.312 57.5029 71.4836C57.5029 70.6552 56.8313 69.9836 56.0031 69.9836Z" fill="#0B190B"/>
<path d="M74.0017 69.9835H9.50657C8.67818 69.9835 8.00674 70.655 8.00674 71.4833C8.00674 72.3117 8.67818 72.9832 9.50657 72.9832H74.0016C74.83 72.9832 75.5014 72.3117 75.5014 71.4833C75.5014 70.655 74.83 69.9835 74.0017 69.9835Z" fill="#0B190B"/>
<path d="M66.5022 69.9836H17.006C16.7492 69.9753 16.4947 70.033 16.2668 70.1513C15.5315 70.5327 15.2447 71.438 15.6261 72.1733L17.006 74.8581C18.345 77.4303 21.0209 79.0266 23.9206 78.9829H59.5879C62.4873 79.0268 65.1634 77.4305 66.5024 74.8581L67.8374 72.1733C67.9483 71.9592 68.0059 71.7214 68.0054 71.4802C68.0035 70.652 67.3306 69.982 66.5022 69.9836ZM63.7875 73.4784C62.9698 75.0365 61.3473 76.0041 59.5879 75.9832H23.9206C22.1611 76.0043 20.5384 75.0365 19.7209 73.4784L19.4659 72.9834H64.0425L63.7875 73.4784Z" fill="#0B190B"/>
<path d="M84.0809 22.3173C77.4086 20.8491 70.6915 24.5974 68.4371 31.0466C67.7787 32.9307 67.7787 34.9823 68.4371 36.8661C69.2177 39.0436 71.3148 40.468 73.6266 40.3908C74.455 40.308 75.0593 39.5693 74.9765 38.7409C74.8937 37.9125 74.155 37.3082 73.3266 37.391C72.3555 37.3467 71.5162 36.6992 71.2267 35.7711C70.8437 34.523 70.8859 33.1829 71.3467 31.9613C73.1074 27.0372 78.2233 24.1595 83.3459 25.2119C88.1605 26.4867 92.0002 31.5864 92.0002 36.986C91.962 42.4577 88.7648 47.4141 83.7958 49.7051C81.6909 50.53 79.4959 51.104 77.2564 51.415C76.0716 51.6399 74.8415 51.85 73.6417 52.1498C68.0022 53.4848 65.0024 56.6346 65.0024 60.9841C65.0024 61.8125 65.6738 62.4839 66.5022 62.4839C67.3306 62.4839 68.0021 61.8125 68.0021 60.9841C68.0021 57.3695 71.4519 55.7645 74.3316 55.0446C75.4565 54.7746 76.6265 54.5645 77.7663 54.3547C80.2438 54.0042 82.6708 53.3597 84.9958 52.4348C91.0364 49.6518 94.9318 43.6364 95 36.986C94.9947 30.2232 90.558 24.2629 84.0809 22.3173Z" fill="#0B190B"/>
<path d="M45.8638 39.2661C43.8456 38.383 41.9582 37.2273 40.2541 35.8314C35.0823 31.6451 28.6086 29.4008 21.9555 29.4869C16.5021 29.4609 11.1505 30.9625 6.50674 33.8215C5.51154 34.3926 4.92922 35.4814 5.00691 36.6262C5.06896 37.7661 5.77238 38.7718 6.82171 39.2211C8.1709 39.8248 9.44452 40.5849 10.6164 41.4858C11.1271 41.8356 11.8003 41.8356 12.3113 41.4858C14.4789 40.1674 16.9739 39.4865 19.5107 39.5209C22.1738 39.4802 24.7875 40.2433 27.0102 41.7108C28.2204 42.5631 29.5566 43.221 30.9699 43.6606C31.5705 43.8209 31.9925 44.3591 32.0048 44.9804V48.9851C32.0048 51.4701 34.0193 53.4848 36.5045 53.4848C36.759 53.5066 37.0149 53.5066 37.2694 53.4848C39.4983 53.0461 41.0839 51.061 41.0191 48.7902V44.9506C40.9969 44.2489 41.4643 43.6258 42.144 43.4507C43.4691 43.0899 44.7515 42.587 45.9687 41.9509C46.2561 41.794 46.4842 41.5474 46.6182 41.2486C46.9574 40.4928 46.6196 39.6051 45.8638 39.2661ZM41.3042 40.6309C39.3553 41.1702 38.0054 42.9433 38.0045 44.9655V48.8052C38.0298 49.5747 37.5194 50.2595 36.7746 50.4551C36.3359 50.5333 35.8853 50.4124 35.5448 50.1252C35.2061 49.8431 35.0085 49.4261 35.0048 48.9853V44.9806C35.004 43.0428 33.7381 41.3327 31.8851 40.7659C30.7683 40.4325 29.7107 39.9264 28.7503 39.2661C25.9973 37.4246 22.7478 36.467 19.436 36.5213C16.6977 36.4963 13.9948 37.1398 11.5616 38.3962C10.4473 37.6003 9.25645 36.9169 8.00691 36.3564C12.2013 33.783 17.0352 32.4421 21.9558 32.4867C27.908 32.4018 33.7024 34.4022 38.3346 38.1413C39.3952 39.0191 40.5236 39.8115 41.7093 40.5112L41.3042 40.6309Z" fill="#0B190B"/>
<path d="M37.5695 56.9197L37.3445 56.7398C37.261 56.6826 37.1703 56.6373 37.0745 56.6048C36.985 56.5596 36.8887 56.5292 36.7896 56.5148C36.6022 56.4707 36.4071 56.4707 36.2196 56.5148C36.1203 56.5292 36.0241 56.5596 35.9347 56.6048C35.8389 56.6373 35.7482 56.6826 35.6647 56.7398L35.4397 56.9197C35.159 57.2027 35.0024 57.5859 35.0047 57.9847C35.0062 58.3783 35.1625 58.7553 35.4397 59.0346C35.7202 59.3209 36.1037 59.4828 36.5047 59.4845C36.7006 59.4823 36.8943 59.4415 37.0747 59.3645C37.2601 59.2886 37.4283 59.1764 37.5696 59.0346C37.8467 58.7553 38.0029 58.3781 38.0047 57.9847C37.9989 57.5875 37.8435 57.2071 37.5695 56.9197Z" fill="#0B190B"/>
</svg>
