<svg width="100" height="100" viewBox="0 0 100 100" fill="none" xmlns="http://www.w3.org/2000/svg">
<path d="M86.647 25.7659C81.7051 23.6201 74.8551 21.9672 66.8371 20.9862C66.1136 20.8977 65.4523 21.4132 65.3635 22.1386C65.2748 22.8636 65.7907 23.5234 66.5157 23.6121C74.2849 24.5627 80.8817 26.1467 85.5934 28.1925C89.9537 30.0859 92.3549 32.2363 92.3549 34.2478C92.3549 34.792 92.1688 35.352 91.8129 35.9165C83.3862 31.4275 67.7337 28.6657 50.4539 28.6657C41.3148 28.6657 32.4481 29.4438 24.8124 30.9157C17.8884 32.2506 12.256 34.0998 8.41865 36.2894C7.91019 35.6077 7.64547 34.9231 7.64547 34.2478C7.64547 28.76 25.0399 22.6455 50.0001 22.6455C53.7092 22.6455 57.3952 22.785 60.9555 23.0597C61.6835 23.1151 62.3197 22.571 62.3761 21.8428C62.4324 21.1144 61.8874 20.4785 61.1592 20.4222C57.5316 20.142 53.7771 20 50.0003 20C38.2099 20 27.1083 21.3637 18.7404 23.84C9.75126 26.5001 5 30.099 5 34.2478V35.8911C5 46.6594 9.60223 56.9626 17.6265 64.1588C17.8792 64.3853 18.1947 64.4969 18.5092 64.4969C18.8719 64.4969 19.2331 64.3486 19.4945 64.0572C19.9822 63.5135 19.9367 62.6772 19.3929 62.1894C12.8214 56.296 8.71847 48.1631 7.82959 39.4673C10.1234 41.4382 13.787 43.1896 18.7404 44.6554C27.1083 47.1317 38.2101 48.4954 50.0003 48.4954C53.3378 48.4954 56.6668 48.3843 59.8948 48.165C60.6238 48.1155 61.1745 47.4846 61.125 46.7557C61.0756 46.0268 60.444 45.4774 59.7158 45.5256C56.5471 45.7407 53.2785 45.8497 50.0004 45.8497C30.9792 45.8497 16.3536 42.2986 10.4696 38.1802C18.4615 33.976 33.7933 31.3108 50.454 31.3108C66.6145 31.3108 81.7385 33.8667 89.8812 37.8976C88.7105 38.7842 87.1488 39.6505 85.2425 40.4526C80.2901 42.5367 73.4012 44.1171 65.3202 45.0231C64.5942 45.1044 64.0717 45.7589 64.1532 46.485C64.229 47.161 64.8015 47.6605 65.4658 47.6605C65.515 47.6605 65.565 47.6578 65.615 47.6522C76.107 46.4762 87.1289 43.7912 92.1753 39.4646C90.378 57.2658 75.3064 71.2065 57.0395 71.2065H42.9607C36.0939 71.2065 29.4356 69.2325 23.705 65.4976C23.093 65.0989 22.2735 65.2713 21.8747 65.8835C21.4758 66.4955 21.6486 67.3151 22.2606 67.7138C24.5267 69.1909 26.9281 70.4106 29.4254 71.364C29.612 73.2695 30.3822 75.0806 31.6432 76.5405C33.1016 78.2288 35.1209 79.3401 37.3295 79.6692C39.1814 79.9452 41.076 80.0852 42.9607 80.0852H57.0391C58.8481 80.0852 60.6673 79.9563 62.4463 79.7018C66.6835 79.096 69.9518 75.628 70.3913 71.445C75.3971 69.5678 79.988 66.6267 83.8815 62.7335C91.0514 55.5635 95 46.0307 95 35.8911V34.2478C95.0004 30.2355 90.4577 27.4207 86.647 25.7659V25.7659ZM62.0722 77.0832C60.4169 77.3199 58.7238 77.4398 57.0395 77.4398H42.961C41.2066 77.4398 39.4433 77.3096 37.7198 77.0527C35.0633 76.6567 32.9943 74.7809 32.2883 72.3273C35.7296 73.3338 39.3179 73.8518 42.9609 73.8518H57.0397C60.6335 73.8518 64.1503 73.3534 67.5134 72.3936C66.7775 74.8206 64.6817 76.71 62.0722 77.0832V77.0832Z" fill="#408C3E"/>
<path d="M21.4744 38.5743C21.2933 39.2821 21.7202 40.0025 22.4278 40.1836C27.1678 41.3965 32.8917 42.293 38.9803 42.7758C39.0158 42.7787 39.0512 42.7801 39.0863 42.7801C39.7694 42.7801 40.3486 42.2545 40.4036 41.5617C40.4613 40.8335 39.9179 40.1963 39.1895 40.1387C33.249 39.6676 27.6796 38.7969 23.0837 37.6207C22.3754 37.4399 21.6555 37.8667 21.4744 38.5743V38.5743Z" fill="#408C3E"/>
<path d="M78.6718 39.6011C78.7783 39.6274 78.8849 39.6401 78.99 39.6401C79.5841 39.6401 80.1243 39.2368 80.273 38.6341C80.4482 37.925 80.0152 37.208 79.306 37.0329C77.8032 36.6618 76.2087 36.3181 74.5668 36.0112C73.8486 35.8763 73.1578 36.35 73.0236 37.0684C72.8892 37.7863 73.3627 38.4773 74.0807 38.6115C75.6731 38.9091 77.2177 39.2422 78.6718 39.6011V39.6011Z" fill="#408C3E"/>
<path d="M68.2408 41.6036C68.664 41.0217 68.796 40.2905 68.6025 39.5974L67.8131 36.7705C67.4753 35.5601 66.2519 34.8358 65.0281 35.1208L60.8968 36.0842C60.2811 36.2278 59.7421 36.6216 59.4183 37.1648C59.0945 37.7078 59.0042 38.3692 59.1709 38.9787L59.7271 41.018C60.0075 42.0446 60.9264 42.7416 61.9818 42.7416C62.0138 42.7416 62.0461 42.7411 62.0784 42.7397L66.4425 42.5644C67.1619 42.5358 67.8173 42.1856 68.2408 41.6036V41.6036ZM62.2153 40.087L61.8066 38.5888L65.344 37.7639L65.9507 39.9369L62.2153 40.087Z" fill="#408C3E"/>
<path d="M47.4604 33.8277L44.4331 34.0197C43.0055 34.1104 41.887 35.3021 41.887 36.7327V39.4184C41.887 40.9175 43.1063 42.1369 44.6053 42.1369H47.6324C49.1313 42.1369 50.3509 40.9173 50.3509 39.4184V36.5407C50.3509 35.7927 50.0382 35.0703 49.4927 34.5583C48.9475 34.0467 48.2066 33.7809 47.4604 33.8277ZM47.7056 39.4184C47.7056 39.4588 47.6728 39.4914 47.6326 39.4914H44.6054C44.5652 39.4914 44.5326 39.4586 44.5326 39.4184V36.7327C44.5326 36.6943 44.5626 36.6624 44.6009 36.6599L47.6281 36.4678C47.6301 36.4678 47.6322 36.4677 47.635 36.4677C47.6461 36.4677 47.6641 36.4701 47.6826 36.4876C47.7057 36.5093 47.7057 36.5313 47.7057 36.5408V39.4184H47.7056Z" fill="#408C3E"/>
<path d="M53.1293 40.4292C52.3986 40.4292 51.8066 41.0214 51.8066 41.7519C51.8066 42.4824 52.3986 43.0747 53.1293 43.0747H53.9009C54.6316 43.0747 55.2236 42.4824 55.2236 41.7519C55.2236 41.0214 54.6316 40.4292 53.9009 40.4292H53.1293Z" fill="#408C3E"/>
<path d="M56.6568 35.5705C57.3875 35.5705 57.9795 34.9783 57.9795 34.2478C57.9795 33.5173 57.3875 32.925 56.6568 32.925H55.7198C54.9891 32.925 54.397 33.5173 54.397 34.2478C54.397 34.9783 54.9891 35.5705 55.7198 35.5705H56.6568Z" fill="#408C3E"/>
<path d="M34.1364 37.0022C34.8671 37.0022 35.4592 36.4099 35.4592 35.6794C35.4592 34.9489 34.8671 34.3567 34.1364 34.3567H32.9239C32.1933 34.3567 31.6012 34.9489 31.6012 35.6794C31.6012 36.4099 32.1933 37.0022 32.9239 37.0022H34.1364Z" fill="#408C3E"/>
</svg>
