<svg width="118" height="62" viewBox="0 0 118 62" fill="none" xmlns="http://www.w3.org/2000/svg">
<path d="M2.32 27V6.41H11.281C12.209 6.41 13.0597 6.60333 13.833 6.99C14.6063 7.37667 15.2733 7.889 15.834 8.527C16.414 9.165 16.8587 9.88033 17.168 10.673C17.4967 11.4657 17.661 12.2777 17.661 13.109C17.661 14.0177 17.4967 14.8877 17.168 15.719C16.8393 16.5503 16.3657 17.2657 15.747 17.865C15.1477 18.4643 14.442 18.8993 13.63 19.17L18.473 27H14.819L10.353 19.837H5.568V27H2.32ZM5.568 16.966H11.252C11.8513 16.966 12.383 16.792 12.847 16.444C13.311 16.096 13.6783 15.632 13.949 15.052C14.2197 14.4527 14.355 13.805 14.355 13.109C14.355 12.3937 14.2003 11.7557 13.891 11.195C13.5817 10.615 13.1757 10.151 12.673 9.803C12.1897 9.455 11.658 9.281 11.078 9.281H5.568V16.966ZM19.875 22.563C19.875 21.5963 20.1456 20.7553 20.687 20.04C21.2476 19.3053 22.0113 18.7447 22.978 18.358C23.9446 17.952 25.066 17.749 26.342 17.749C27.0186 17.749 27.705 17.7973 28.401 17.894C29.1163 17.9907 29.7446 18.1453 30.286 18.358V17.401C30.286 16.3377 29.967 15.5063 29.329 14.907C28.691 14.3077 27.7726 14.008 26.574 14.008C25.7233 14.008 24.921 14.1627 24.167 14.472C23.413 14.762 22.6106 15.1777 21.76 15.719L20.687 13.573C21.6923 12.8963 22.6976 12.3937 23.703 12.065C24.7276 11.7363 25.8006 11.572 26.922 11.572C28.952 11.572 30.547 12.1133 31.707 13.196C32.8863 14.2593 33.476 15.777 33.476 17.749V23.404C33.476 23.7713 33.534 24.0323 33.65 24.187C33.7853 24.3417 34.0076 24.4287 34.317 24.448V27C34.027 27.058 33.766 27.0967 33.534 27.116C33.302 27.1353 33.1086 27.145 32.954 27.145C32.2773 27.145 31.765 26.9807 31.417 26.652C31.069 26.3233 30.866 25.9367 30.808 25.492L30.721 24.622C30.0636 25.4727 29.2226 26.13 28.198 26.594C27.1733 27.058 26.139 27.29 25.095 27.29C24.0896 27.29 23.1906 27.087 22.398 26.681C21.6053 26.2557 20.9866 25.6853 20.542 24.97C20.0973 24.2547 19.875 23.4523 19.875 22.563ZM29.532 23.491C29.764 23.2397 29.9476 22.9883 30.083 22.737C30.2183 22.4857 30.286 22.2633 30.286 22.07V20.33C29.7446 20.1173 29.1743 19.9627 28.575 19.866C27.9756 19.75 27.386 19.692 26.806 19.692C25.646 19.692 24.6986 19.924 23.964 20.388C23.2486 20.852 22.891 21.49 22.891 22.302C22.891 22.7467 23.007 23.172 23.239 23.578C23.4903 23.984 23.8383 24.3127 24.283 24.564C24.747 24.8153 25.3173 24.941 25.994 24.941C26.69 24.941 27.357 24.8057 27.995 24.535C28.633 24.2643 29.1453 23.9163 29.532 23.491ZM37.5201 5.83H40.7101V22.621C40.7101 23.3943 40.8261 23.8873 41.0581 24.1C41.2901 24.3127 41.5801 24.419 41.9281 24.419C42.3148 24.419 42.6724 24.3803 43.0011 24.303C43.3491 24.2257 43.6488 24.129 43.9001 24.013L44.3641 26.536C43.9001 26.7293 43.3491 26.8937 42.7111 27.029C42.0731 27.1643 41.5028 27.232 41.0001 27.232C39.9174 27.232 39.0668 26.9323 38.4481 26.333C37.8294 25.7143 37.5201 24.8637 37.5201 23.781V5.83ZM53.2318 27.29C52.0524 27.29 50.9794 27.087 50.0128 26.681C49.0654 26.2557 48.2438 25.6853 47.5478 24.97C46.8518 24.2353 46.3104 23.404 45.9238 22.476C45.5564 21.5287 45.3728 20.5233 45.3728 19.46C45.3728 18.0293 45.7014 16.7243 46.3588 15.545C47.0161 14.3463 47.9344 13.3893 49.1138 12.674C50.2931 11.9393 51.6754 11.572 53.2608 11.572C54.8461 11.572 56.2091 11.9393 57.3498 12.674C58.5098 13.3893 59.4088 14.3367 60.0468 15.516C60.6848 16.6953 61.0038 17.9617 61.0038 19.315C61.0038 19.547 60.9941 19.7693 60.9748 19.982C60.9554 20.1753 60.9361 20.3397 60.9168 20.475H48.7658C48.8238 21.3643 49.0654 22.1473 49.4908 22.824C49.9354 23.4813 50.4961 24.0033 51.1728 24.39C51.8494 24.7573 52.5744 24.941 53.3478 24.941C54.1984 24.941 55.0008 24.7283 55.7548 24.303C56.5281 23.8777 57.0501 23.317 57.3208 22.621L60.0468 23.404C59.7181 24.1387 59.2154 24.8057 58.5388 25.405C57.8814 25.985 57.0984 26.449 56.1898 26.797C55.2811 27.1257 54.2951 27.29 53.2318 27.29ZM48.6788 18.358H57.8428C57.7848 17.488 57.5334 16.7243 57.0888 16.067C56.6634 15.3903 56.1124 14.8683 55.4358 14.501C54.7784 14.1143 54.0438 13.921 53.2318 13.921C52.4391 13.921 51.7044 14.1143 51.0278 14.501C50.3704 14.8683 49.8291 15.3903 49.4038 16.067C48.9784 16.7243 48.7368 17.488 48.6788 18.358ZM82.234 11.833H85.279L78.899 27H76.173L73.447 20.156L70.721 27H67.995L61.586 11.833H64.631L69.503 23.897L71.649 18.3L69.039 11.862H71.736L73.447 16.589L75.129 11.862H77.826L75.245 18.3L77.391 23.897L82.234 11.833ZM86.0731 22.563C86.0731 21.5963 86.3438 20.7553 86.8851 20.04C87.4458 19.3053 88.2095 18.7447 89.1761 18.358C90.1428 17.952 91.2641 17.749 92.5401 17.749C93.2168 17.749 93.9031 17.7973 94.5991 17.894C95.3145 17.9907 95.9428 18.1453 96.4841 18.358V17.401C96.4841 16.3377 96.1651 15.5063 95.5271 14.907C94.8891 14.3077 93.9708 14.008 92.7721 14.008C91.9215 14.008 91.1191 14.1627 90.3651 14.472C89.6111 14.762 88.8088 15.1777 87.9581 15.719L86.8851 13.573C87.8905 12.8963 88.8958 12.3937 89.9011 12.065C90.9258 11.7363 91.9988 11.572 93.1201 11.572C95.1501 11.572 96.7451 12.1133 97.9051 13.196C99.0845 14.2593 99.6741 15.777 99.6741 17.749V23.404C99.6741 23.7713 99.7321 24.0323 99.8481 24.187C99.9835 24.3417 100.206 24.4287 100.515 24.448V27C100.225 27.058 99.9641 27.0967 99.7321 27.116C99.5001 27.1353 99.3068 27.145 99.1521 27.145C98.4755 27.145 97.9631 26.9807 97.6151 26.652C97.2671 26.3233 97.0641 25.9367 97.0061 25.492L96.9191 24.622C96.2618 25.4727 95.4208 26.13 94.3961 26.594C93.3715 27.058 92.3371 27.29 91.2931 27.29C90.2878 27.29 89.3888 27.087 88.5961 26.681C87.8035 26.2557 87.1848 25.6853 86.7401 24.97C86.2955 24.2547 86.0731 23.4523 86.0731 22.563ZM95.7301 23.491C95.9621 23.2397 96.1458 22.9883 96.2811 22.737C96.4165 22.4857 96.4841 22.2633 96.4841 22.07V20.33C95.9428 20.1173 95.3725 19.9627 94.7731 19.866C94.1738 19.75 93.5841 19.692 93.0041 19.692C91.8441 19.692 90.8968 19.924 90.1621 20.388C89.4468 20.852 89.0891 21.49 89.0891 22.302C89.0891 22.7467 89.2051 23.172 89.4371 23.578C89.6885 23.984 90.0365 24.3127 90.4811 24.564C90.9451 24.8153 91.5155 24.941 92.1921 24.941C92.8881 24.941 93.5551 24.8057 94.1931 24.535C94.8311 24.2643 95.3435 23.9163 95.7301 23.491ZM103.673 30.567C103.963 30.6057 104.244 30.6443 104.514 30.683C104.804 30.741 105.036 30.77 105.21 30.77C105.539 30.77 105.819 30.6637 106.051 30.451C106.303 30.2577 106.554 29.8903 106.805 29.349C107.057 28.8077 107.366 28.0247 107.733 27L101.498 11.833H104.833L109.473 23.752L113.591 11.833H116.665L109.792 30.509C109.58 31.0697 109.27 31.582 108.864 32.046C108.458 32.5293 107.956 32.9063 107.356 33.177C106.757 33.4477 106.051 33.583 105.239 33.583C105.007 33.583 104.766 33.5637 104.514 33.525C104.263 33.4863 103.983 33.4283 103.673 33.351V30.567Z" fill="black"/>
<path d="M8.145 48.605C8.145 49.475 7.845 50.2 7.245 50.78C6.655 51.35 5.75 51.635 4.53 51.635H2.52V56H1.155V45.545H4.53C5.71 45.545 6.605 45.83 7.215 46.4C7.835 46.97 8.145 47.705 8.145 48.605ZM4.53 50.51C5.29 50.51 5.85 50.345 6.21 50.015C6.57 49.685 6.75 49.215 6.75 48.605C6.75 47.315 6.01 46.67 4.53 46.67H2.52V50.51H4.53ZM13.5015 56.135C12.7315 56.135 12.0315 55.96 11.4015 55.61C10.7815 55.26 10.2915 54.765 9.93152 54.125C9.58152 53.475 9.40652 52.725 9.40652 51.875C9.40652 51.035 9.58652 50.295 9.94652 49.655C10.3165 49.005 10.8165 48.51 11.4465 48.17C12.0765 47.82 12.7815 47.645 13.5615 47.645C14.3415 47.645 15.0465 47.82 15.6765 48.17C16.3065 48.51 16.8015 49 17.1615 49.64C17.5315 50.28 17.7165 51.025 17.7165 51.875C17.7165 52.725 17.5265 53.475 17.1465 54.125C16.7765 54.765 16.2715 55.26 15.6315 55.61C14.9915 55.96 14.2815 56.135 13.5015 56.135ZM13.5015 54.935C13.9915 54.935 14.4515 54.82 14.8815 54.59C15.3115 54.36 15.6565 54.015 15.9165 53.555C16.1865 53.095 16.3215 52.535 16.3215 51.875C16.3215 51.215 16.1915 50.655 15.9315 50.195C15.6715 49.735 15.3315 49.395 14.9115 49.175C14.4915 48.945 14.0365 48.83 13.5465 48.83C13.0465 48.83 12.5865 48.945 12.1665 49.175C11.7565 49.395 11.4265 49.735 11.1765 50.195C10.9265 50.655 10.8015 51.215 10.8015 51.875C10.8015 52.545 10.9215 53.11 11.1615 53.57C11.4115 54.03 11.7415 54.375 12.1515 54.605C12.5615 54.825 13.0115 54.935 13.5015 54.935ZM20.9512 49.295C21.2212 48.825 21.6212 48.435 22.1512 48.125C22.6912 47.805 23.3162 47.645 24.0263 47.645C24.7562 47.645 25.4162 47.82 26.0062 48.17C26.6062 48.52 27.0762 49.015 27.4163 49.655C27.7562 50.285 27.9262 51.02 27.9262 51.86C27.9262 52.69 27.7562 53.43 27.4163 54.08C27.0762 54.73 26.6062 55.235 26.0062 55.595C25.4162 55.955 24.7562 56.135 24.0263 56.135C23.3262 56.135 22.7062 55.98 22.1662 55.67C21.6362 55.35 21.2312 54.955 20.9512 54.485V59.9H19.5862V47.78H20.9512V49.295ZM26.5312 51.86C26.5312 51.24 26.4063 50.7 26.1563 50.24C25.9062 49.78 25.5662 49.43 25.1363 49.19C24.7163 48.95 24.2512 48.83 23.7412 48.83C23.2412 48.83 22.7762 48.955 22.3462 49.205C21.9262 49.445 21.5862 49.8 21.3262 50.27C21.0762 50.73 20.9512 51.265 20.9512 51.875C20.9512 52.495 21.0762 53.04 21.3262 53.51C21.5862 53.97 21.9262 54.325 22.3462 54.575C22.7762 54.815 23.2412 54.935 23.7412 54.935C24.2512 54.935 24.7163 54.815 25.1363 54.575C25.5662 54.325 25.9062 53.97 26.1563 53.51C26.4063 53.04 26.5312 52.49 26.5312 51.86ZM31.163 49.295C31.433 48.825 31.833 48.435 32.363 48.125C32.903 47.805 33.528 47.645 34.238 47.645C34.968 47.645 35.628 47.82 36.218 48.17C36.818 48.52 37.288 49.015 37.628 49.655C37.968 50.285 38.138 51.02 38.138 51.86C38.138 52.69 37.968 53.43 37.628 54.08C37.288 54.73 36.818 55.235 36.218 55.595C35.628 55.955 34.968 56.135 34.238 56.135C33.538 56.135 32.918 55.98 32.378 55.67C31.848 55.35 31.443 54.955 31.163 54.485V59.9H29.798V47.78H31.163V49.295ZM36.743 51.86C36.743 51.24 36.618 50.7 36.368 50.24C36.118 49.78 35.778 49.43 35.348 49.19C34.928 48.95 34.463 48.83 33.953 48.83C33.453 48.83 32.988 48.955 32.558 49.205C32.138 49.445 31.798 49.8 31.538 50.27C31.288 50.73 31.163 51.265 31.163 51.875C31.163 52.495 31.288 53.04 31.538 53.51C31.798 53.97 32.138 54.325 32.558 54.575C32.988 54.815 33.453 54.935 33.953 54.935C34.463 54.935 34.928 54.815 35.348 54.575C35.778 54.325 36.118 53.97 36.368 53.51C36.618 53.04 36.743 52.49 36.743 51.86ZM40.7147 46.445C40.4547 46.445 40.2347 46.355 40.0547 46.175C39.8747 45.995 39.7847 45.775 39.7847 45.515C39.7847 45.255 39.8747 45.035 40.0547 44.855C40.2347 44.675 40.4547 44.585 40.7147 44.585C40.9647 44.585 41.1747 44.675 41.3447 44.855C41.5247 45.035 41.6147 45.255 41.6147 45.515C41.6147 45.775 41.5247 45.995 41.3447 46.175C41.1747 46.355 40.9647 46.445 40.7147 46.445ZM41.3747 47.78V56H40.0097V47.78H41.3747ZM47.7811 47.63C48.7811 47.63 49.5911 47.935 50.2111 48.545C50.8311 49.145 51.1411 50.015 51.1411 51.155V56H49.7911V51.35C49.7911 50.53 49.5861 49.905 49.1761 49.475C48.7661 49.035 48.2061 48.815 47.4961 48.815C46.7761 48.815 46.2011 49.04 45.7711 49.49C45.3511 49.94 45.1411 50.595 45.1411 51.455V56H43.7761V47.78H45.1411V48.95C45.4111 48.53 45.7761 48.205 46.2361 47.975C46.7061 47.745 47.2211 47.63 47.7811 47.63ZM56.3558 56.135C55.7258 56.135 55.1608 56.03 54.6608 55.82C54.1608 55.6 53.7658 55.3 53.4758 54.92C53.1858 54.53 53.0258 54.085 52.9958 53.585H54.4058C54.4458 53.995 54.6358 54.33 54.9758 54.59C55.3258 54.85 55.7808 54.98 56.3408 54.98C56.8608 54.98 57.2708 54.865 57.5708 54.635C57.8708 54.405 58.0208 54.115 58.0208 53.765C58.0208 53.405 57.8608 53.14 57.5408 52.97C57.2208 52.79 56.7258 52.615 56.0558 52.445C55.4458 52.285 54.9458 52.125 54.5558 51.965C54.1758 51.795 53.8458 51.55 53.5658 51.23C53.2958 50.9 53.1608 50.47 53.1608 49.94C53.1608 49.52 53.2858 49.135 53.5358 48.785C53.7858 48.435 54.1408 48.16 54.6008 47.96C55.0608 47.75 55.5858 47.645 56.1758 47.645C57.0858 47.645 57.8208 47.875 58.3808 48.335C58.9408 48.795 59.2408 49.425 59.2808 50.225H57.9158C57.8858 49.795 57.7108 49.45 57.3908 49.19C57.0808 48.93 56.6608 48.8 56.1308 48.8C55.6408 48.8 55.2508 48.905 54.9608 49.115C54.6708 49.325 54.5258 49.6 54.5258 49.94C54.5258 50.21 54.6108 50.435 54.7808 50.615C54.9608 50.785 55.1808 50.925 55.4408 51.035C55.7108 51.135 56.0808 51.25 56.5508 51.38C57.1408 51.54 57.6208 51.7 57.9908 51.86C58.3608 52.01 58.6758 52.24 58.9358 52.55C59.2058 52.86 59.3458 53.265 59.3558 53.765C59.3558 54.215 59.2308 54.62 58.9808 54.98C58.7308 55.34 58.3758 55.625 57.9158 55.835C57.4658 56.035 56.9458 56.135 56.3558 56.135Z" fill="black"/>
</svg>
