<svg width="104" height="94" viewBox="0 0 104 94" fill="none" xmlns="http://www.w3.org/2000/svg">
<path d="M10.8 48.36C8.61333 48.36 6.86667 47.9333 5.56 47.08C4.25333 46.2267 3.32 45.0133 2.76 43.44C2.2 41.84 1.92 39.9733 1.92 37.84V25.56C1.92 23.4267 2.2 21.6 2.76 20.08C3.34667 18.5333 4.28 17.36 5.56 16.56C6.86667 15.7333 8.61333 15.32 10.8 15.32C12.9867 15.32 14.72 15.7333 16 16.56C17.28 17.3867 18.2 18.56 18.76 20.08C19.3467 21.6 19.64 23.4267 19.64 25.56V37.88C19.64 39.9867 19.3467 41.8267 18.76 43.4C18.2 44.9733 17.28 46.2 16 47.08C14.72 47.9333 12.9867 48.36 10.8 48.36ZM10.8 44.8C12 44.8 12.9067 44.56 13.52 44.08C14.1333 43.5733 14.5467 42.88 14.76 42C14.9733 41.0933 15.08 40.04 15.08 38.84V24.64C15.08 23.44 14.9733 22.4133 14.76 21.56C14.5467 20.68 14.1333 20.0133 13.52 19.56C12.9067 19.08 12 18.84 10.8 18.84C9.6 18.84 8.68 19.08 8.04 19.56C7.42667 20.0133 7.01333 20.68 6.8 21.56C6.58667 22.4133 6.48 23.44 6.48 24.64V38.84C6.48 40.04 6.58667 41.0933 6.8 42C7.01333 42.88 7.42667 43.5733 8.04 44.08C8.68 44.56 9.6 44.8 10.8 44.8ZM29.0825 48.32C27.1892 48.32 25.6692 47.7333 24.5225 46.56C23.3758 45.36 22.7225 43.7867 22.5625 41.84L26.1225 40.76C26.3358 42.2267 26.6958 43.3333 27.2025 44.08C27.7092 44.8 28.4558 45.16 29.4425 45.16C30.2158 45.16 30.8025 44.9467 31.2025 44.52C31.6025 44.0667 31.8025 43.4667 31.8025 42.72C31.8025 42.0533 31.6558 41.4533 31.3625 40.92C31.0692 40.3867 30.5892 39.84 29.9225 39.28L25.9625 35.88C25.1625 35.1867 24.4825 34.4133 23.9225 33.56C23.3892 32.7067 23.1225 31.6 23.1225 30.24C23.1225 29.0133 23.3625 27.9867 23.8425 27.16C24.3492 26.3067 25.0425 25.6667 25.9225 25.24C26.8292 24.7867 27.8825 24.56 29.0825 24.56C30.9225 24.56 32.3225 25.16 33.2825 26.36C34.2692 27.5333 34.8292 28.96 34.9625 30.64L32.0825 31.72C31.9758 30.92 31.8158 30.2267 31.6025 29.64C31.3892 29.0267 31.0958 28.56 30.7225 28.24C30.3492 27.8933 29.8558 27.72 29.2425 27.72C28.5492 27.72 27.9892 27.96 27.5625 28.44C27.1625 28.8933 26.9625 29.44 26.9625 30.08C26.9625 30.48 27.0425 30.88 27.2025 31.28C27.3892 31.6533 27.6958 32.0267 28.1225 32.4L32.2025 36.16C32.7625 36.6667 33.2825 37.2133 33.7625 37.8C34.2692 38.3867 34.6825 39.0533 35.0025 39.8C35.3225 40.5467 35.4825 41.4133 35.4825 42.4C35.4825 43.7067 35.2158 44.8 34.6825 45.68C34.1492 46.56 33.4025 47.2267 32.4425 47.68C31.4825 48.1067 30.3625 48.32 29.0825 48.32ZM41.3634 48L37.6434 24.88H41.1634L43.5634 41.92L46.6434 24.88H49.9234L53.0034 41.84L55.4034 24.88H58.9234L55.0834 48H51.4834L48.3234 31.68L45.2034 48H41.3634ZM66.3591 48.32C65.4524 48.32 64.6524 48.0667 63.9591 47.56C63.2657 47.0267 62.7191 46.36 62.3191 45.56C61.9191 44.7333 61.7191 43.8667 61.7191 42.96C61.7191 41.52 61.9591 40.3067 62.4391 39.32C62.9191 38.3333 63.5724 37.5067 64.3991 36.84C65.2524 36.1467 66.2257 35.5467 67.3191 35.04C68.4391 34.5333 69.6124 34.04 70.8391 33.56V31.92C70.8391 30.9867 70.7857 30.2133 70.6791 29.6C70.5724 28.9867 70.3457 28.5333 69.9991 28.24C69.6791 27.92 69.1857 27.76 68.5191 27.76C67.9324 27.76 67.4524 27.8933 67.0791 28.16C66.7324 28.4267 66.4791 28.8133 66.3191 29.32C66.1591 29.8 66.0791 30.3733 66.0791 31.04V32.2L61.8391 32.04C61.8924 29.48 62.4791 27.6 63.5991 26.4C64.7191 25.1733 66.4524 24.56 68.7991 24.56C71.0924 24.56 72.7191 25.1867 73.6791 26.44C74.6391 27.6933 75.1191 29.5067 75.1191 31.88V42.44C75.1191 43.16 75.1324 43.8533 75.1591 44.52C75.2124 45.1867 75.2657 45.8133 75.3191 46.4C75.3991 46.96 75.4657 47.4933 75.5191 48H71.5991C71.5191 47.5733 71.4124 47.04 71.2791 46.4C71.1724 45.7333 71.0924 45.1333 71.0391 44.6C70.7724 45.5067 70.2524 46.36 69.4791 47.16C68.7324 47.9333 67.6924 48.32 66.3591 48.32ZM68.0391 44.64C68.4657 44.64 68.8657 44.52 69.2391 44.28C69.6124 44.04 69.9457 43.7733 70.2391 43.48C70.5324 43.16 70.7324 42.9067 70.8391 42.72V36.16C70.1724 36.5333 69.5457 36.9067 68.9591 37.28C68.3724 37.6533 67.8524 38.0533 67.3991 38.48C66.9724 38.88 66.6257 39.3467 66.3591 39.88C66.1191 40.3867 65.9991 40.9733 65.9991 41.64C65.9991 42.5733 66.1724 43.3067 66.5191 43.84C66.8657 44.3733 67.3724 44.64 68.0391 44.64ZM79.6303 48V15.6H83.9103V48H79.6303ZM93.7309 48.32C91.7843 48.32 90.3309 47.6133 89.3709 46.2C88.4109 44.76 87.9309 42.3333 87.9309 38.92V34.44C87.9309 32.68 88.0776 31.0533 88.3709 29.56C88.6643 28.04 89.2109 26.8267 90.0109 25.92C90.8376 25.0133 92.0376 24.56 93.6109 24.56C94.3843 24.56 95.0909 24.7333 95.7309 25.08C96.3709 25.4267 96.9443 25.8533 97.4509 26.36V15.6H101.731V48H97.4509V46.52C96.9443 47.0533 96.3843 47.4933 95.7709 47.84C95.1843 48.16 94.5043 48.32 93.7309 48.32ZM94.8109 44.96C95.2109 44.96 95.6376 44.8933 96.0909 44.76C96.5443 44.6 96.9976 44.3733 97.4509 44.08V28.92C97.0776 28.6533 96.6643 28.4267 96.2109 28.24C95.7576 28.0267 95.2643 27.92 94.7309 27.92C93.7443 27.92 93.0776 28.4 92.7309 29.36C92.3843 30.2933 92.2109 31.4267 92.2109 32.76V39.28C92.2109 40.3467 92.2643 41.32 92.3709 42.2C92.5043 43.0533 92.7576 43.7333 93.1309 44.24C93.5043 44.72 94.0643 44.96 94.8109 44.96Z" fill="#333333"/>
<path d="M1.32031 78.625H5.08594C5.9401 78.625 6.66146 78.7552 7.25 79.0156C7.84375 79.276 8.29427 79.6615 8.60156 80.1719C8.91406 80.6771 9.07031 81.2995 9.07031 82.0391C9.07031 82.5599 8.96354 83.0365 8.75 83.4688C8.54167 83.8958 8.23958 84.2604 7.84375 84.5625C7.45312 84.8594 6.98438 85.0807 6.4375 85.2266L6.01562 85.3906H2.47656L2.46094 84.1641H5.13281C5.67448 84.1641 6.125 84.0703 6.48438 83.8828C6.84375 83.6901 7.11458 83.4323 7.29688 83.1094C7.47917 82.7865 7.57031 82.4297 7.57031 82.0391C7.57031 81.6016 7.48438 81.2188 7.3125 80.8906C7.14062 80.5625 6.86979 80.3099 6.5 80.1328C6.13542 79.9505 5.66406 79.8594 5.08594 79.8594H2.82812V90H1.32031V78.625ZM7.96875 90L5.20312 84.8438L6.77344 84.8359L9.57812 89.9062V90H7.96875ZM10.5781 85.8672V85.6875C10.5781 85.0781 10.6667 84.513 10.8438 83.9922C11.0208 83.4661 11.276 83.0104 11.6094 82.625C11.9427 82.2344 12.3464 81.9323 12.8203 81.7188C13.2943 81.5 13.8255 81.3906 14.4141 81.3906C15.0078 81.3906 15.5417 81.5 16.0156 81.7188C16.4948 81.9323 16.901 82.2344 17.2344 82.625C17.5729 83.0104 17.8307 83.4661 18.0078 83.9922C18.1849 84.513 18.2734 85.0781 18.2734 85.6875V85.8672C18.2734 86.4766 18.1849 87.0417 18.0078 87.5625C17.8307 88.0833 17.5729 88.5391 17.2344 88.9297C16.901 89.3151 16.4974 89.6172 16.0234 89.8359C15.5547 90.0495 15.0234 90.1562 14.4297 90.1562C13.8359 90.1562 13.3021 90.0495 12.8281 89.8359C12.3542 89.6172 11.9479 89.3151 11.6094 88.9297C11.276 88.5391 11.0208 88.0833 10.8438 87.5625C10.6667 87.0417 10.5781 86.4766 10.5781 85.8672ZM12.0234 85.6875V85.8672C12.0234 86.2891 12.0729 86.6875 12.1719 87.0625C12.2708 87.4323 12.4193 87.7604 12.6172 88.0469C12.8203 88.3333 13.0729 88.5599 13.375 88.7266C13.6771 88.888 14.0286 88.9688 14.4297 88.9688C14.8255 88.9688 15.1719 88.888 15.4688 88.7266C15.7708 88.5599 16.0208 88.3333 16.2188 88.0469C16.4167 87.7604 16.5651 87.4323 16.6641 87.0625C16.7682 86.6875 16.8203 86.2891 16.8203 85.8672V85.6875C16.8203 85.2708 16.7682 84.8776 16.6641 84.5078C16.5651 84.1328 16.4141 83.8021 16.2109 83.5156C16.013 83.224 15.763 82.9948 15.4609 82.8281C15.1641 82.6615 14.8151 82.5781 14.4141 82.5781C14.0182 82.5781 13.6693 82.6615 13.3672 82.8281C13.0703 82.9948 12.8203 83.224 12.6172 83.5156C12.4193 83.8021 12.2708 84.1328 12.1719 84.5078C12.0729 84.8776 12.0234 85.2708 12.0234 85.6875ZM20.0781 78H21.5312V88.3594L21.4062 90H20.0781V78ZM27.2422 85.7031V85.8672C27.2422 86.4818 27.1693 87.0521 27.0234 87.5781C26.8776 88.099 26.6641 88.5521 26.3828 88.9375C26.1016 89.3229 25.7578 89.6224 25.3516 89.8359C24.9453 90.0495 24.4792 90.1562 23.9531 90.1562C23.4167 90.1562 22.9453 90.0651 22.5391 89.8828C22.138 89.6953 21.7995 89.4271 21.5234 89.0781C21.2474 88.7292 21.026 88.3073 20.8594 87.8125C20.6979 87.3177 20.5859 86.7604 20.5234 86.1406V85.4219C20.5859 84.7969 20.6979 84.237 20.8594 83.7422C21.026 83.2474 21.2474 82.8255 21.5234 82.4766C21.7995 82.1224 22.138 81.8542 22.5391 81.6719C22.9401 81.4844 23.4062 81.3906 23.9375 81.3906C24.4688 81.3906 24.9401 81.4948 25.3516 81.7031C25.763 81.9062 26.1068 82.1979 26.3828 82.5781C26.6641 82.9583 26.8776 83.4141 27.0234 83.9453C27.1693 84.4714 27.2422 85.0573 27.2422 85.7031ZM25.7891 85.8672V85.7031C25.7891 85.2812 25.75 84.8854 25.6719 84.5156C25.5938 84.1406 25.4688 83.8125 25.2969 83.5312C25.125 83.2448 24.8984 83.0208 24.6172 82.8594C24.3359 82.6927 23.9896 82.6094 23.5781 82.6094C23.2135 82.6094 22.8958 82.6719 22.625 82.7969C22.3594 82.9219 22.1328 83.0911 21.9453 83.3047C21.7578 83.513 21.6042 83.7526 21.4844 84.0234C21.3698 84.2891 21.2839 84.5651 21.2266 84.8516V86.7344C21.3099 87.099 21.4453 87.4505 21.6328 87.7891C21.8255 88.1224 22.0807 88.3958 22.3984 88.6094C22.7214 88.8229 23.1198 88.9297 23.5938 88.9297C23.9844 88.9297 24.3177 88.8516 24.5938 88.6953C24.875 88.5339 25.1016 88.3125 25.2734 88.0312C25.4505 87.75 25.5807 87.4245 25.6641 87.0547C25.7474 86.6849 25.7891 86.2891 25.7891 85.8672ZM28.6875 85.8672V85.6875C28.6875 85.0781 28.776 84.513 28.9531 83.9922C29.1302 83.4661 29.3854 83.0104 29.7188 82.625C30.0521 82.2344 30.4557 81.9323 30.9297 81.7188C31.4036 81.5 31.9349 81.3906 32.5234 81.3906C33.1172 81.3906 33.651 81.5 34.125 81.7188C34.6042 81.9323 35.0104 82.2344 35.3438 82.625C35.6823 83.0104 35.9401 83.4661 36.1172 83.9922C36.2943 84.513 36.3828 85.0781 36.3828 85.6875V85.8672C36.3828 86.4766 36.2943 87.0417 36.1172 87.5625C35.9401 88.0833 35.6823 88.5391 35.3438 88.9297C35.0104 89.3151 34.6068 89.6172 34.1328 89.8359C33.6641 90.0495 33.1328 90.1562 32.5391 90.1562C31.9453 90.1562 31.4115 90.0495 30.9375 89.8359C30.4635 89.6172 30.0573 89.3151 29.7188 88.9297C29.3854 88.5391 29.1302 88.0833 28.9531 87.5625C28.776 87.0417 28.6875 86.4766 28.6875 85.8672ZM30.1328 85.6875V85.8672C30.1328 86.2891 30.1823 86.6875 30.2812 87.0625C30.3802 87.4323 30.5286 87.7604 30.7266 88.0469C30.9297 88.3333 31.1823 88.5599 31.4844 88.7266C31.7865 88.888 32.138 88.9688 32.5391 88.9688C32.9349 88.9688 33.2812 88.888 33.5781 88.7266C33.8802 88.5599 34.1302 88.3333 34.3281 88.0469C34.526 87.7604 34.6745 87.4323 34.7734 87.0625C34.8776 86.6875 34.9297 86.2891 34.9297 85.8672V85.6875C34.9297 85.2708 34.8776 84.8776 34.7734 84.5078C34.6745 84.1328 34.5234 83.8021 34.3203 83.5156C34.1224 83.224 33.8724 82.9948 33.5703 82.8281C33.2734 82.6615 32.9245 82.5781 32.5234 82.5781C32.1276 82.5781 31.7786 82.6615 31.4766 82.8281C31.1797 82.9948 30.9297 83.224 30.7266 83.5156C30.5286 83.8021 30.3802 84.1328 30.2812 84.5078C30.1823 84.8776 30.1328 85.2708 30.1328 85.6875ZM41.7344 81.5469V82.6562H37.1641V81.5469H41.7344ZM38.7109 79.4922H40.1562V87.9062C40.1562 88.1927 40.2005 88.4089 40.2891 88.5547C40.3776 88.7005 40.4922 88.7969 40.6328 88.8438C40.7734 88.8906 40.9245 88.9141 41.0859 88.9141C41.2057 88.9141 41.3307 88.9036 41.4609 88.8828C41.5964 88.8568 41.6979 88.8359 41.7656 88.8203L41.7734 90C41.6589 90.0365 41.5078 90.0703 41.3203 90.1016C41.138 90.138 40.9167 90.1562 40.6562 90.1562C40.3021 90.1562 39.9766 90.0859 39.6797 89.9453C39.3828 89.8047 39.1458 89.5703 38.9688 89.2422C38.7969 88.9089 38.7109 88.4609 38.7109 87.8984V79.4922ZM42.8906 85.8672V85.6875C42.8906 85.0781 42.9792 84.513 43.1562 83.9922C43.3333 83.4661 43.5885 83.0104 43.9219 82.625C44.2552 82.2344 44.6589 81.9323 45.1328 81.7188C45.6068 81.5 46.138 81.3906 46.7266 81.3906C47.3203 81.3906 47.8542 81.5 48.3281 81.7188C48.8073 81.9323 49.2135 82.2344 49.5469 82.625C49.8854 83.0104 50.1432 83.4661 50.3203 83.9922C50.4974 84.513 50.5859 85.0781 50.5859 85.6875V85.8672C50.5859 86.4766 50.4974 87.0417 50.3203 87.5625C50.1432 88.0833 49.8854 88.5391 49.5469 88.9297C49.2135 89.3151 48.8099 89.6172 48.3359 89.8359C47.8672 90.0495 47.3359 90.1562 46.7422 90.1562C46.1484 90.1562 45.6146 90.0495 45.1406 89.8359C44.6667 89.6172 44.2604 89.3151 43.9219 88.9297C43.5885 88.5391 43.3333 88.0833 43.1562 87.5625C42.9792 87.0417 42.8906 86.4766 42.8906 85.8672ZM44.3359 85.6875V85.8672C44.3359 86.2891 44.3854 86.6875 44.4844 87.0625C44.5833 87.4323 44.7318 87.7604 44.9297 88.0469C45.1328 88.3333 45.3854 88.5599 45.6875 88.7266C45.9896 88.888 46.3411 88.9688 46.7422 88.9688C47.138 88.9688 47.4844 88.888 47.7812 88.7266C48.0833 88.5599 48.3333 88.3333 48.5312 88.0469C48.7292 87.7604 48.8776 87.4323 48.9766 87.0625C49.0807 86.6875 49.1328 86.2891 49.1328 85.8672V85.6875C49.1328 85.2708 49.0807 84.8776 48.9766 84.5078C48.8776 84.1328 48.7266 83.8021 48.5234 83.5156C48.3255 83.224 48.0755 82.9948 47.7734 82.8281C47.4766 82.6615 47.1276 82.5781 46.7266 82.5781C46.3307 82.5781 45.9818 82.6615 45.6797 82.8281C45.3828 82.9948 45.1328 83.224 44.9297 83.5156C44.7318 83.8021 44.5833 84.1328 44.4844 84.5078C44.3854 84.8776 44.3359 85.2708 44.3359 85.6875Z" fill="#333333"/>
</svg>
