<svg width="154" height="81" viewBox="0 0 154 81" fill="none" xmlns="http://www.w3.org/2000/svg">
<path d="M1.824 77V65.8H2.8L7.92 74.536H7.408L12.48 65.8H13.456V77H12.32V67.576H12.592L7.92 75.576H7.36L2.656 67.576H2.96V77H1.824ZM20.3693 77.08C19.5586 77.08 18.8279 76.8987 18.1773 76.536C17.5373 76.1627 17.0306 75.656 16.6572 75.016C16.2839 74.3653 16.0972 73.624 16.0972 72.792C16.0972 71.9493 16.2839 71.208 16.6572 70.568C17.0306 69.928 17.5373 69.4267 18.1773 69.064C18.8173 68.7013 19.5479 68.52 20.3693 68.52C21.2013 68.52 21.9373 68.7013 22.5773 69.064C23.2279 69.4267 23.7346 69.928 24.0972 70.568C24.4706 71.208 24.6573 71.9493 24.6573 72.792C24.6573 73.624 24.4706 74.3653 24.0972 75.016C23.7346 75.656 23.2279 76.1627 22.5773 76.536C21.9266 76.8987 21.1906 77.08 20.3693 77.08ZM20.3693 76.072C20.9773 76.072 21.5159 75.9387 21.9853 75.672C22.4546 75.3947 22.8226 75.0107 23.0893 74.52C23.3666 74.0187 23.5052 73.4427 23.5052 72.792C23.5052 72.1307 23.3666 71.5547 23.0893 71.064C22.8226 70.5733 22.4546 70.1947 21.9853 69.928C21.5159 69.6507 20.9826 69.512 20.3853 69.512C19.7879 69.512 19.2546 69.6507 18.7853 69.928C18.3159 70.1947 17.9426 70.5733 17.6653 71.064C17.3879 71.5547 17.2493 72.1307 17.2493 72.792C17.2493 73.4427 17.3879 74.0187 17.6653 74.52C17.9426 75.0107 18.3159 75.3947 18.7853 75.672C19.2546 75.9387 19.7826 76.072 20.3693 76.072ZM31.3445 68.52C32.0272 68.52 32.6245 68.6533 33.1365 68.92C33.6592 69.176 34.0645 69.5707 34.3525 70.104C34.6512 70.6373 34.8005 71.3093 34.8005 72.12V77H33.6645V72.232C33.6645 71.3467 33.4405 70.68 32.9925 70.232C32.5552 69.7733 31.9365 69.544 31.1365 69.544C30.5392 69.544 30.0165 69.6667 29.5685 69.912C29.1312 70.1467 28.7898 70.4933 28.5445 70.952C28.3098 71.4 28.1925 71.944 28.1925 72.584V77H27.0565V68.6H28.1445V70.904L27.9685 70.472C28.2352 69.864 28.6618 69.3893 29.2485 69.048C29.8352 68.696 30.5338 68.52 31.3445 68.52ZM40.605 77.08C39.8157 77.08 39.2077 76.8667 38.781 76.44C38.3543 76.0133 38.141 75.4107 38.141 74.632V66.744H39.277V74.568C39.277 75.0587 39.3997 75.4373 39.645 75.704C39.901 75.9707 40.2637 76.104 40.733 76.104C41.2343 76.104 41.6503 75.96 41.981 75.672L42.381 76.488C42.157 76.6907 41.885 76.84 41.565 76.936C41.2557 77.032 40.9357 77.08 40.605 77.08ZM36.637 69.544V68.6H41.837V69.544H36.637ZM46.785 77.08C46.0917 77.08 45.4357 76.984 44.817 76.792C44.1983 76.5893 43.713 76.3387 43.361 76.04L43.873 75.144C44.2143 75.4 44.6517 75.624 45.185 75.816C45.7183 75.9973 46.2783 76.088 46.865 76.088C47.665 76.088 48.241 75.9653 48.593 75.72C48.945 75.464 49.121 75.128 49.121 74.712C49.121 74.4027 49.0197 74.1627 48.817 73.992C48.625 73.8107 48.369 73.6773 48.049 73.592C47.729 73.496 47.3717 73.416 46.977 73.352C46.5823 73.288 46.1877 73.2133 45.793 73.128C45.409 73.0427 45.057 72.92 44.737 72.76C44.417 72.5893 44.1557 72.36 43.953 72.072C43.761 71.784 43.665 71.4 43.665 70.92C43.665 70.4613 43.793 70.0507 44.049 69.688C44.305 69.3253 44.6783 69.0427 45.169 68.84C45.6703 68.6267 46.2783 68.52 46.993 68.52C47.537 68.52 48.081 68.5947 48.625 68.744C49.169 68.8827 49.617 69.0693 49.969 69.304L49.473 70.216C49.0997 69.96 48.6997 69.7787 48.273 69.672C47.8463 69.5547 47.4197 69.496 46.993 69.496C46.2357 69.496 45.6757 69.6293 45.313 69.896C44.961 70.152 44.785 70.4827 44.785 70.888C44.785 71.208 44.881 71.4587 45.073 71.64C45.2757 71.8213 45.537 71.9653 45.857 72.072C46.1877 72.168 46.545 72.248 46.929 72.312C47.3237 72.376 47.713 72.456 48.097 72.552C48.4917 72.6373 48.849 72.76 49.169 72.92C49.4997 73.0693 49.761 73.288 49.953 73.576C50.1557 73.8533 50.257 74.2213 50.257 74.68C50.257 75.1707 50.1183 75.5973 49.841 75.96C49.5743 76.312 49.1797 76.5893 48.657 76.792C48.145 76.984 47.521 77.08 46.785 77.08ZM55.9895 77.08C55.1148 77.08 54.3468 76.8987 53.6855 76.536C53.0242 76.1627 52.5068 75.656 52.1335 75.016C51.7602 74.3653 51.5735 73.624 51.5735 72.792C51.5735 71.96 51.7495 71.224 52.1015 70.584C52.4642 69.944 52.9548 69.4427 53.5735 69.08C54.2028 68.7067 54.9068 68.52 55.6855 68.52C56.4748 68.52 57.1735 68.7013 57.7815 69.064C58.4002 69.416 58.8855 69.9173 59.2375 70.568C59.5895 71.208 59.7655 71.9493 59.7655 72.792C59.7655 72.8453 59.7602 72.904 59.7495 72.968C59.7495 73.0213 59.7495 73.08 59.7495 73.144H52.4375V72.296H59.1415L58.6935 72.632C58.6935 72.024 58.5602 71.4853 58.2935 71.016C58.0375 70.536 57.6855 70.1627 57.2375 69.896C56.7895 69.6293 56.2722 69.496 55.6855 69.496C55.1095 69.496 54.5922 69.6293 54.1335 69.896C53.6748 70.1627 53.3175 70.536 53.0615 71.016C52.8055 71.496 52.6775 72.0453 52.6775 72.664V72.84C52.6775 73.48 52.8162 74.0453 53.0935 74.536C53.3815 75.016 53.7762 75.3947 54.2775 75.672C54.7895 75.9387 55.3708 76.072 56.0215 76.072C56.5335 76.072 57.0082 75.9813 57.4455 75.8C57.8935 75.6187 58.2775 75.3413 58.5975 74.968L59.2375 75.704C58.8642 76.152 58.3948 76.4933 57.8295 76.728C57.2748 76.9627 56.6615 77.08 55.9895 77.08ZM62.1577 77V68.6H63.2457V70.888L63.1337 70.488C63.3684 69.848 63.7631 69.3627 64.3177 69.032C64.8724 68.6907 65.5604 68.52 66.3817 68.52V69.624C66.3391 69.624 66.2964 69.624 66.2537 69.624C66.2111 69.6133 66.1684 69.608 66.1257 69.608C65.2404 69.608 64.5471 69.88 64.0457 70.424C63.5444 70.9573 63.2937 71.72 63.2937 72.712V77H62.1577ZM68.5346 77V68.6H69.6226V70.888L69.5106 70.488C69.7453 69.848 70.14 69.3627 70.6946 69.032C71.2493 68.6907 71.9373 68.52 72.7586 68.52V69.624C72.716 69.624 72.6733 69.624 72.6306 69.624C72.588 69.6133 72.5453 69.608 72.5026 69.608C71.6173 69.608 70.924 69.88 70.4226 70.424C69.9213 70.9573 69.6706 71.72 69.6706 72.712V77H68.5346ZM79.5505 77V75.144L79.5025 74.84V71.736C79.5025 71.0213 79.2998 70.472 78.8945 70.088C78.4998 69.704 77.9078 69.512 77.1185 69.512C76.5745 69.512 76.0572 69.6027 75.5665 69.784C75.0758 69.9653 74.6598 70.2053 74.3185 70.504L73.8065 69.656C74.2332 69.2933 74.7452 69.016 75.3425 68.824C75.9398 68.6213 76.5692 68.52 77.2305 68.52C78.3185 68.52 79.1558 68.792 79.7425 69.336C80.3398 69.8693 80.6385 70.6853 80.6385 71.784V77H79.5505ZM76.6545 77.08C76.0252 77.08 75.4758 76.9787 75.0065 76.776C74.5478 76.5627 74.1958 76.2747 73.9505 75.912C73.7052 75.5387 73.5825 75.112 73.5825 74.632C73.5825 74.1947 73.6838 73.8 73.8865 73.448C74.0998 73.0853 74.4412 72.7973 74.9105 72.584C75.3905 72.36 76.0305 72.248 76.8305 72.248H79.7265V73.096H76.8625C76.0518 73.096 75.4865 73.24 75.1665 73.528C74.8572 73.816 74.7025 74.1733 74.7025 74.6C74.7025 75.08 74.8892 75.464 75.2625 75.752C75.6358 76.04 76.1585 76.184 76.8305 76.184C77.4705 76.184 78.0198 76.04 78.4785 75.752C78.9478 75.4533 79.2892 75.0267 79.5025 74.472L79.7585 75.256C79.5452 75.8107 79.1718 76.2533 78.6385 76.584C78.1158 76.9147 77.4545 77.08 76.6545 77.08ZM86.46 77.08C85.6707 77.08 85.0627 76.8667 84.636 76.44C84.2093 76.0133 83.996 75.4107 83.996 74.632V66.744H85.132V74.568C85.132 75.0587 85.2547 75.4373 85.5 75.704C85.756 75.9707 86.1187 76.104 86.588 76.104C87.0893 76.104 87.5053 75.96 87.836 75.672L88.236 76.488C88.012 76.6907 87.74 76.84 87.42 76.936C87.1107 77.032 86.7907 77.08 86.46 77.08ZM82.492 69.544V68.6H87.692V69.544H82.492Z" fill="black"/>
<path d="M3.46875 9.875H15.5391C18.1328 9.875 20.3438 10.2656 22.1719 11.0469C24 11.8281 25.3984 12.9844 26.3672 14.5156C27.3516 16.0312 27.8438 17.9062 27.8438 20.1406C27.8438 21.8438 27.5312 23.3438 26.9062 24.6406C26.2812 25.9375 25.3984 27.0312 24.2578 27.9219C23.1172 28.7969 21.7578 29.4766 20.1797 29.9609L18.3984 30.8281H7.54688L7.5 26.1641H15.6328C17.0391 26.1641 18.2109 25.9141 19.1484 25.4141C20.0859 24.9141 20.7891 24.2344 21.2578 23.375C21.7422 22.5 21.9844 21.5156 21.9844 20.4219C21.9844 19.2344 21.75 18.2031 21.2812 17.3281C20.8281 16.4375 20.125 15.7578 19.1719 15.2891C18.2188 14.8047 17.0078 14.5625 15.5391 14.5625H9.35156V44H3.46875V9.875ZM22.9453 44L14.9297 28.6719L21.0938 28.6484L29.2266 43.6953V44H22.9453ZM31.8225 31.6016V31.0625C31.8225 29.2344 32.0881 27.5391 32.6194 25.9766C33.1506 24.3984 33.9163 23.0312 34.9163 21.875C35.9319 20.7031 37.1663 19.7969 38.6194 19.1562C40.0881 18.5 41.7444 18.1719 43.5881 18.1719C45.4475 18.1719 47.1038 18.5 48.5569 19.1562C50.0256 19.7969 51.2678 20.7031 52.2834 21.875C53.2991 23.0312 54.0725 24.3984 54.6038 25.9766C55.135 27.5391 55.4006 29.2344 55.4006 31.0625V31.6016C55.4006 33.4297 55.135 35.125 54.6038 36.6875C54.0725 38.25 53.2991 39.6172 52.2834 40.7891C51.2678 41.9453 50.0334 42.8516 48.5803 43.5078C47.1272 44.1484 45.4788 44.4688 43.635 44.4688C41.7756 44.4688 40.1116 44.1484 38.6428 43.5078C37.1897 42.8516 35.9553 41.9453 34.9397 40.7891C33.9241 39.6172 33.1506 38.25 32.6194 36.6875C32.0881 35.125 31.8225 33.4297 31.8225 31.6016ZM37.4709 31.0625V31.6016C37.4709 32.7422 37.5881 33.8203 37.8225 34.8359C38.0569 35.8516 38.4241 36.7422 38.9241 37.5078C39.4241 38.2734 40.0647 38.875 40.8459 39.3125C41.6272 39.75 42.5569 39.9688 43.635 39.9688C44.6819 39.9688 45.5881 39.75 46.3538 39.3125C47.135 38.875 47.7756 38.2734 48.2756 37.5078C48.7756 36.7422 49.1428 35.8516 49.3772 34.8359C49.6272 33.8203 49.7522 32.7422 49.7522 31.6016V31.0625C49.7522 29.9375 49.6272 28.875 49.3772 27.875C49.1428 26.8594 48.7678 25.9609 48.2522 25.1797C47.7522 24.3984 47.1116 23.7891 46.3303 23.3516C45.5647 22.8984 44.6506 22.6719 43.5881 22.6719C42.5256 22.6719 41.6038 22.8984 40.8225 23.3516C40.0569 23.7891 39.4241 24.3984 38.9241 25.1797C38.4241 25.9609 38.0569 26.8594 37.8225 27.875C37.5881 28.875 37.4709 29.9375 37.4709 31.0625ZM59.9184 8H65.5669V38.5859L65.0278 44H59.9184V8ZM82.1138 31.0859V31.5781C82.1138 33.4531 81.9028 35.1797 81.4809 36.7578C81.0747 38.3203 80.4497 39.6797 79.6059 40.8359C78.7778 41.9922 77.7466 42.8906 76.5122 43.5312C75.2934 44.1562 73.8794 44.4688 72.27 44.4688C70.6919 44.4688 69.3169 44.1719 68.145 43.5781C66.9731 42.9844 65.9888 42.1406 65.1919 41.0469C64.4106 39.9531 63.7778 38.6484 63.2934 37.1328C62.8091 35.6172 62.4653 33.9453 62.2622 32.1172V30.5469C62.4653 28.7031 62.8091 27.0312 63.2934 25.5312C63.7778 24.0156 64.4106 22.7109 65.1919 21.6172C65.9888 20.5078 66.9653 19.6562 68.1216 19.0625C69.2934 18.4688 70.6606 18.1719 72.2231 18.1719C73.8481 18.1719 75.2778 18.4844 76.5122 19.1094C77.7622 19.7344 78.8013 20.625 79.6294 21.7812C80.4575 22.9219 81.0747 24.2812 81.4809 25.8594C81.9028 27.4375 82.1138 29.1797 82.1138 31.0859ZM76.4653 31.5781V31.0859C76.4653 29.9453 76.3716 28.875 76.1841 27.875C75.9966 26.8594 75.6841 25.9688 75.2466 25.2031C74.8247 24.4375 74.2466 23.8359 73.5122 23.3984C72.7934 22.9453 71.895 22.7188 70.8169 22.7188C69.8169 22.7188 68.9575 22.8906 68.2388 23.2344C67.52 23.5781 66.9184 24.0469 66.4341 24.6406C65.9497 25.2344 65.5669 25.9219 65.2856 26.7031C65.02 27.4844 64.8403 28.3281 64.7466 29.2344V33.4766C64.8872 34.6484 65.1841 35.7266 65.6372 36.7109C66.1059 37.6797 66.7622 38.4609 67.6059 39.0547C68.4497 39.6328 69.5356 39.9219 70.8638 39.9219C71.9106 39.9219 72.7934 39.7109 73.5122 39.2891C74.2309 38.8672 74.8013 38.2812 75.2231 37.5312C75.6606 36.7656 75.9731 35.875 76.1606 34.8594C76.3638 33.8438 76.4653 32.75 76.4653 31.5781ZM85.5769 31.6016V31.0625C85.5769 29.2344 85.8425 27.5391 86.3737 25.9766C86.905 24.3984 87.6706 23.0312 88.6706 21.875C89.6862 20.7031 90.9206 19.7969 92.3737 19.1562C93.8425 18.5 95.4987 18.1719 97.3425 18.1719C99.2019 18.1719 100.858 18.5 102.311 19.1562C103.78 19.7969 105.022 20.7031 106.038 21.875C107.053 23.0312 107.827 24.3984 108.358 25.9766C108.889 27.5391 109.155 29.2344 109.155 31.0625V31.6016C109.155 33.4297 108.889 35.125 108.358 36.6875C107.827 38.25 107.053 39.6172 106.038 40.7891C105.022 41.9453 103.788 42.8516 102.335 43.5078C100.882 44.1484 99.2331 44.4688 97.3894 44.4688C95.53 44.4688 93.8659 44.1484 92.3972 43.5078C90.9441 42.8516 89.7097 41.9453 88.6941 40.7891C87.6784 39.6172 86.905 38.25 86.3737 36.6875C85.8425 35.125 85.5769 33.4297 85.5769 31.6016ZM91.2253 31.0625V31.6016C91.2253 32.7422 91.3425 33.8203 91.5769 34.8359C91.8112 35.8516 92.1784 36.7422 92.6784 37.5078C93.1784 38.2734 93.8191 38.875 94.6003 39.3125C95.3816 39.75 96.3112 39.9688 97.3894 39.9688C98.4362 39.9688 99.3425 39.75 100.108 39.3125C100.889 38.875 101.53 38.2734 102.03 37.5078C102.53 36.7422 102.897 35.8516 103.132 34.8359C103.382 33.8203 103.507 32.7422 103.507 31.6016V31.0625C103.507 29.9375 103.382 28.875 103.132 27.875C102.897 26.8594 102.522 25.9609 102.007 25.1797C101.507 24.3984 100.866 23.7891 100.085 23.3516C99.3191 22.8984 98.405 22.6719 97.3425 22.6719C96.28 22.6719 95.3581 22.8984 94.5769 23.3516C93.8112 23.7891 93.1784 24.3984 92.6784 25.1797C92.1784 25.9609 91.8112 26.8594 91.5769 27.875C91.3425 28.875 91.2253 29.9375 91.2253 31.0625ZM125.274 18.6406V22.7656H110.978V18.6406H125.274ZM115.103 12.4297H120.751V36.9922C120.751 37.7734 120.86 38.375 121.079 38.7969C121.313 39.2031 121.634 39.4766 122.04 39.6172C122.446 39.7578 122.923 39.8281 123.47 39.8281C123.86 39.8281 124.235 39.8047 124.595 39.7578C124.954 39.7109 125.243 39.6641 125.462 39.6172L125.485 43.9297C125.017 44.0703 124.47 44.1953 123.845 44.3047C123.235 44.4141 122.532 44.4688 121.735 44.4688C120.438 44.4688 119.29 44.2422 118.29 43.7891C117.29 43.3203 116.509 42.5625 115.946 41.5156C115.384 40.4688 115.103 39.0781 115.103 37.3438V12.4297ZM127.753 31.6016V31.0625C127.753 29.2344 128.019 27.5391 128.55 25.9766C129.081 24.3984 129.847 23.0312 130.847 21.875C131.863 20.7031 133.097 19.7969 134.55 19.1562C136.019 18.5 137.675 18.1719 139.519 18.1719C141.378 18.1719 143.034 18.5 144.488 19.1562C145.956 19.7969 147.198 20.7031 148.214 21.875C149.23 23.0312 150.003 24.3984 150.534 25.9766C151.066 27.5391 151.331 29.2344 151.331 31.0625V31.6016C151.331 33.4297 151.066 35.125 150.534 36.6875C150.003 38.25 149.23 39.6172 148.214 40.7891C147.198 41.9453 145.964 42.8516 144.511 43.5078C143.058 44.1484 141.409 44.4688 139.566 44.4688C137.706 44.4688 136.042 44.1484 134.573 43.5078C133.12 42.8516 131.886 41.9453 130.87 40.7891C129.855 39.6172 129.081 38.25 128.55 36.6875C128.019 35.125 127.753 33.4297 127.753 31.6016ZM133.402 31.0625V31.6016C133.402 32.7422 133.519 33.8203 133.753 34.8359C133.988 35.8516 134.355 36.7422 134.855 37.5078C135.355 38.2734 135.995 38.875 136.777 39.3125C137.558 39.75 138.488 39.9688 139.566 39.9688C140.613 39.9688 141.519 39.75 142.284 39.3125C143.066 38.875 143.706 38.2734 144.206 37.5078C144.706 36.7422 145.073 35.8516 145.308 34.8359C145.558 33.8203 145.683 32.7422 145.683 31.6016V31.0625C145.683 29.9375 145.558 28.875 145.308 27.875C145.073 26.8594 144.698 25.9609 144.183 25.1797C143.683 24.3984 143.042 23.7891 142.261 23.3516C141.495 22.8984 140.581 22.6719 139.519 22.6719C138.456 22.6719 137.534 22.8984 136.753 23.3516C135.988 23.7891 135.355 24.3984 134.855 25.1797C134.355 25.9609 133.988 26.8594 133.753 27.875C133.519 28.875 133.402 29.9375 133.402 31.0625Z" fill="black"/>
</svg>
