<svg width="70" height="61" viewBox="0 0 70 61" fill="none" xmlns="http://www.w3.org/2000/svg">
<path d="M7.9025 7.54H11.0225L18.0425 28H15.4325L13.6325 22.54H5.3225L3.4925 28H0.8825L7.9025 7.54ZM12.8225 20.14L9.5225 9.94H9.4325L6.1025 20.14H12.8225ZM29.9673 15.1C29.6273 15.02 29.1573 14.94 28.5573 14.86C27.9573 14.76 27.3473 14.71 26.7273 14.71C25.8273 14.71 25.0873 14.89 24.5073 15.25C23.9473 15.61 23.5073 16.08 23.1873 16.66C22.8673 17.22 22.6473 17.85 22.5273 18.55C22.4073 19.23 22.3473 19.9 22.3473 20.56C22.3473 21.58 22.4773 22.46 22.7373 23.2C22.9973 23.92 23.3373 24.51 23.7573 24.97C24.1973 25.43 24.6973 25.77 25.2573 25.99C25.8173 26.19 26.4073 26.29 27.0273 26.29C27.4473 26.29 27.8473 26.27 28.2273 26.23C28.6273 26.17 28.9873 26.11 29.3073 26.05C29.6473 25.97 29.9673 25.88 30.2673 25.78L30.7473 27.79C30.3273 27.91 29.9373 28.01 29.5773 28.09C29.2173 28.17 28.7873 28.24 28.2873 28.3C27.8073 28.36 27.2873 28.39 26.7273 28.39C25.6273 28.39 24.6473 28.25 23.7873 27.97C22.9273 27.69 22.1973 27.24 21.5973 26.62C21.0173 26 20.5673 25.19 20.2473 24.19C19.9473 23.19 19.7973 21.97 19.7973 20.53C19.7973 19.13 19.9873 17.93 20.3673 16.93C20.7673 15.91 21.2873 15.09 21.9273 14.47C22.5673 13.83 23.2973 13.36 24.1173 13.06C24.9573 12.76 25.8273 12.61 26.7273 12.61C27.2073 12.61 27.6673 12.64 28.1073 12.7C28.5673 12.74 28.9673 12.79 29.3073 12.85C29.7073 12.93 30.0873 13.01 30.4473 13.09L29.9673 15.1ZM37.213 8.41V12.91H41.563V14.86H37.213V22.87C37.213 23.53 37.223 24.08 37.243 24.52C37.283 24.96 37.353 25.31 37.453 25.57C37.553 25.83 37.693 26.02 37.873 26.14C38.053 26.24 38.283 26.29 38.563 26.29C39.323 26.27 40.203 25.99 41.203 25.45L41.923 27.28C41.263 27.72 40.643 28.01 40.063 28.15C39.503 28.31 38.943 28.39 38.383 28.39C37.063 28.39 36.133 28.02 35.593 27.28C35.073 26.52 34.813 25.27 34.813 23.53V14.86H32.053V12.91H34.813V8.71L37.213 8.41ZM46.2235 20.53C46.2235 22.47 46.6535 23.92 47.5135 24.88C48.3935 25.82 49.5735 26.29 51.0535 26.29C52.5135 26.29 53.6535 25.82 54.4735 24.88C55.2935 23.94 55.7035 22.53 55.7035 20.65C55.7035 18.65 55.2635 17.16 54.3835 16.18C53.5235 15.2 52.3435 14.71 50.8435 14.71C49.3435 14.71 48.1935 15.2 47.3935 16.18C46.6135 17.14 46.2235 18.59 46.2235 20.53ZM43.6735 20.5C43.6735 18.98 43.9135 17.72 44.3935 16.72C44.8735 15.7 45.4835 14.89 46.2235 14.29C46.9635 13.67 47.7535 13.24 48.5935 13C49.4535 12.74 50.2635 12.61 51.0235 12.61C51.7435 12.61 52.5235 12.73 53.3635 12.97C54.2235 13.19 55.0135 13.6 55.7335 14.2C56.4535 14.78 57.0535 15.57 57.5335 16.57C58.0135 17.55 58.2535 18.8 58.2535 20.32C58.2535 21.9 58.0035 23.21 57.5035 24.25C57.0235 25.29 56.4135 26.12 55.6735 26.74C54.9335 27.34 54.1335 27.76 53.2735 28C52.4135 28.26 51.6135 28.39 50.8735 28.39C50.1135 28.39 49.3135 28.27 48.4735 28.03C47.6335 27.79 46.8535 27.38 46.1335 26.8C45.4335 26.2 44.8435 25.39 44.3635 24.37C43.9035 23.35 43.6735 22.06 43.6735 20.5ZM61.7701 15.34C61.7701 14.88 61.7201 14.16 61.6201 13.18L63.8401 12.88L64.0801 15.07H64.1101C64.4701 14.61 64.8201 14.21 65.1601 13.87C65.5001 13.53 65.8501 13.24 66.2101 13C66.5901 12.74 66.9501 12.61 67.2901 12.61C67.7501 12.59 68.3901 12.64 69.2101 12.76L68.6701 15.07C68.0101 14.95 67.5501 14.9 67.2901 14.92C66.9501 14.92 66.5901 15.08 66.2101 15.4C65.8301 15.72 65.5001 16.06 65.2201 16.42C64.8601 16.86 64.5101 17.36 64.1701 17.92V28H61.7701V15.34Z" fill="#333333"/>
<path d="M8.766 52.932H3.096L1.566 57H0.252L5.238 44.112H6.588L11.664 57H10.332L8.766 52.932ZM8.352 51.906L5.868 45.444L3.474 51.906H8.352ZM14.5815 44.112V57H13.3575V44.112H14.5815ZM17.4005 47.658H18.5525V48.846C19.1645 47.886 20.0765 47.406 21.2885 47.406C22.6685 47.406 23.5685 47.964 23.9885 49.08C24.6245 47.964 25.6145 47.406 26.9585 47.406C27.9545 47.406 28.7285 47.706 29.2805 48.306C29.7005 48.774 29.9105 49.536 29.9105 50.592V57H28.7585V50.592C28.7585 49.896 28.6145 49.38 28.3265 49.044C27.9665 48.636 27.4385 48.432 26.7425 48.432C25.8425 48.432 25.1705 48.774 24.7265 49.458C24.4145 49.938 24.2585 50.646 24.2585 51.582V57H23.1065V50.592C23.1065 49.896 22.9805 49.392 22.7285 49.08C22.3805 48.648 21.8645 48.432 21.1805 48.432C20.3765 48.432 19.7345 48.69 19.2545 49.206C18.7865 49.71 18.5525 50.394 18.5525 51.258V57H17.4005V47.658ZM33.8262 50.502H32.6022C32.6502 48.438 33.8922 47.406 36.3282 47.406C38.6202 47.406 39.7662 48.342 39.7662 50.214V55.452C39.7662 55.908 39.9162 56.136 40.2162 56.136C40.3362 56.136 40.5342 56.058 40.8102 55.902V56.91C40.4382 57.042 40.1262 57.108 39.8742 57.108C39.0342 57.108 38.6142 56.682 38.6142 55.83V55.614C37.8942 56.706 36.7662 57.252 35.2302 57.252C34.2102 57.252 33.4242 56.982 32.8722 56.442C32.3922 55.974 32.1522 55.35 32.1522 54.57C32.1522 53.718 32.4342 53.046 32.9982 52.554C33.4302 52.182 34.1262 51.924 35.0862 51.78L38.5602 51.222C38.5722 51.138 38.5782 51.054 38.5782 50.97C38.5782 49.962 38.4162 49.29 38.0922 48.954C37.7802 48.606 37.1742 48.432 36.2742 48.432C35.4582 48.432 34.8522 48.6 34.4562 48.936C34.0722 49.26 33.8622 49.782 33.8262 50.502ZM38.6142 52.14L35.2842 52.752C34.0122 52.968 33.3762 53.562 33.3762 54.534C33.3762 55.074 33.5622 55.506 33.9342 55.83C34.3062 56.142 34.8042 56.298 35.4282 56.298C36.6282 56.298 37.5342 55.848 38.1462 54.948C38.4582 54.492 38.6142 53.916 38.6142 53.22V52.14ZM42.6603 47.658H43.8123L43.7583 49.332C44.2263 48.132 45.1143 47.532 46.4223 47.532C46.5183 47.532 46.6743 47.538 46.8903 47.55L46.8723 48.738C46.6923 48.702 46.5663 48.684 46.4943 48.684C45.5943 48.696 44.8983 49.044 44.4063 49.728C44.0103 50.28 43.8123 51.066 43.8123 52.086V57H42.6603V47.658ZM49.7696 50.502H48.5456C48.5936 48.438 49.8356 47.406 52.2716 47.406C54.5636 47.406 55.7096 48.342 55.7096 50.214V55.452C55.7096 55.908 55.8596 56.136 56.1596 56.136C56.2796 56.136 56.4776 56.058 56.7536 55.902V56.91C56.3816 57.042 56.0696 57.108 55.8176 57.108C54.9776 57.108 54.5576 56.682 54.5576 55.83V55.614C53.8376 56.706 52.7096 57.252 51.1736 57.252C50.1536 57.252 49.3676 56.982 48.8156 56.442C48.3356 55.974 48.0956 55.35 48.0956 54.57C48.0956 53.718 48.3776 53.046 48.9416 52.554C49.3736 52.182 50.0696 51.924 51.0296 51.78L54.5036 51.222C54.5156 51.138 54.5216 51.054 54.5216 50.97C54.5216 49.962 54.3596 49.29 54.0356 48.954C53.7236 48.606 53.1176 48.432 52.2176 48.432C51.4016 48.432 50.7956 48.6 50.3996 48.936C50.0156 49.26 49.8056 49.782 49.7696 50.502ZM54.5576 52.14L51.2276 52.752C49.9556 52.968 49.3196 53.562 49.3196 54.534C49.3196 55.074 49.5056 55.506 49.8776 55.83C50.2496 56.142 50.7476 56.298 51.3716 56.298C52.5716 56.298 53.4776 55.848 54.0896 54.948C54.4016 54.492 54.5576 53.916 54.5576 53.22V52.14ZM59.7556 47.658V57H58.5856V47.658H59.7556ZM59.1796 44.346C59.3596 44.346 59.5156 44.412 59.6476 44.544C59.7796 44.676 59.8456 44.838 59.8456 45.03C59.8456 45.21 59.7796 45.372 59.6476 45.516C59.5156 45.648 59.3596 45.714 59.1796 45.714C58.9876 45.714 58.8256 45.648 58.6936 45.516C58.5616 45.372 58.4956 45.21 58.4956 45.03C58.4956 44.838 58.5616 44.676 58.6936 44.544C58.8256 44.412 58.9876 44.346 59.1796 44.346Z" fill="#333333"/>
</svg>
