<svg width="113" height="69" viewBox="0 0 113 69" fill="none" xmlns="http://www.w3.org/2000/svg">
<path d="M11.22 30.495C9.702 30.495 8.404 30.264 7.326 29.802C6.27 29.34 5.412 28.702 4.752 27.888C4.092 27.074 3.608 26.128 3.3 25.05C3.014 23.95 2.871 22.773 2.871 21.519V7.131H5.115V21.222C5.115 22.476 5.258 23.565 5.544 24.489C5.852 25.391 6.27 26.139 6.798 26.733C7.326 27.327 7.964 27.767 8.712 28.053C9.46 28.339 10.296 28.482 11.22 28.482C12.144 28.482 12.98 28.339 13.728 28.053C14.476 27.767 15.114 27.327 15.642 26.733C16.17 26.139 16.577 25.391 16.863 24.489C17.171 23.565 17.325 22.476 17.325 21.222V7.131H19.569V21.519C19.569 22.773 19.415 23.95 19.107 25.05C18.821 26.128 18.348 27.074 17.688 27.888C17.028 28.702 16.159 29.34 15.081 29.802C14.025 30.264 12.738 30.495 11.22 30.495ZM25.5177 13.533C26.1557 13.357 27.0137 13.159 28.0917 12.939C29.1697 12.719 30.4897 12.609 32.0517 12.609C33.3497 12.609 34.4277 12.796 35.2857 13.17C36.1657 13.544 36.8587 14.083 37.3647 14.787C37.8927 15.469 38.2667 16.294 38.4867 17.262C38.7067 18.23 38.8167 19.297 38.8167 20.463V30H36.6717V21.156C36.6717 19.946 36.5837 18.923 36.4077 18.087C36.2537 17.251 35.9787 16.569 35.5827 16.041C35.2087 15.513 34.7027 15.139 34.0647 14.919C33.4487 14.677 32.6677 14.556 31.7217 14.556C30.7097 14.556 29.8297 14.611 29.0817 14.721C28.3557 14.831 27.8827 14.93 27.6627 15.018V30H25.5177V13.533ZM46.7008 13.962C47.0748 13.676 47.6688 13.379 48.4828 13.071C49.3188 12.741 50.2978 12.576 51.4198 12.576C52.6518 12.576 53.7408 12.796 54.6868 13.236C55.6548 13.676 56.4688 14.292 57.1288 15.084C57.7888 15.876 58.2838 16.822 58.6138 17.922C58.9658 19 59.1418 20.188 59.1418 21.486C59.1418 22.872 58.9328 24.115 58.5148 25.215C58.1188 26.315 57.5468 27.25 56.7988 28.02C56.0728 28.79 55.1928 29.384 54.1588 29.802C53.1468 30.198 52.0138 30.396 50.7598 30.396C49.2418 30.396 47.9878 30.297 46.9978 30.099C46.0078 29.901 45.1938 29.692 44.5558 29.472V4.788L46.7008 4.392V13.962ZM46.7008 27.987C47.0308 28.097 47.5148 28.207 48.1528 28.317C48.8128 28.405 49.6708 28.449 50.7268 28.449C52.5748 28.449 54.0598 27.855 55.1818 26.667C56.3038 25.457 56.8648 23.73 56.8648 21.486C56.8648 20.54 56.7658 19.649 56.5678 18.813C56.3698 17.955 56.0508 17.218 55.6108 16.602C55.1708 15.964 54.5878 15.458 53.8618 15.084C53.1578 14.71 52.2778 14.523 51.2218 14.523C50.7158 14.523 50.2318 14.578 49.7698 14.688C49.3078 14.776 48.8788 14.897 48.4828 15.051C48.0868 15.205 47.7348 15.37 47.4268 15.546C47.1408 15.722 46.8988 15.887 46.7008 16.041V27.987ZM77.146 29.406C76.508 29.582 75.65 29.78 74.572 30C73.494 30.22 72.174 30.33 70.612 30.33C69.336 30.33 68.269 30.143 67.411 29.769C66.553 29.395 65.86 28.867 65.332 28.185C64.804 27.503 64.419 26.678 64.177 25.71C63.957 24.742 63.847 23.675 63.847 22.509V12.939H65.992V21.816C65.992 23.026 66.08 24.049 66.256 24.885C66.432 25.721 66.718 26.403 67.114 26.931C67.51 27.437 68.016 27.811 68.632 28.053C69.27 28.273 70.04 28.383 70.942 28.383C71.954 28.383 72.834 28.328 73.582 28.218C74.33 28.108 74.803 28.009 75.001 27.921V12.939H77.146V29.406ZM85.0961 12.939H91.8941V14.754H85.0961V23.829C85.0961 24.797 85.1731 25.589 85.3271 26.205C85.5031 26.799 85.7451 27.261 86.0531 27.591C86.3611 27.921 86.7351 28.141 87.1751 28.251C87.6151 28.361 88.0991 28.416 88.6271 28.416C89.5291 28.416 90.2551 28.317 90.8051 28.119C91.3551 27.899 91.7841 27.701 92.0921 27.525L92.6201 29.307C92.3121 29.505 91.7731 29.736 91.0031 30C90.2331 30.242 89.3971 30.363 88.4951 30.363C87.4391 30.363 86.5481 30.231 85.8221 29.967C85.1181 29.681 84.5461 29.263 84.1061 28.713C83.6881 28.141 83.3911 27.437 83.2151 26.601C83.0391 25.765 82.9511 24.775 82.9511 23.631V7.923L85.0961 7.527V12.939ZM109.196 29.406C108.558 29.582 107.7 29.78 106.622 30C105.544 30.22 104.224 30.33 102.662 30.33C101.386 30.33 100.319 30.143 99.4608 29.769C98.6028 29.395 97.9098 28.867 97.3818 28.185C96.8538 27.503 96.4688 26.678 96.2268 25.71C96.0068 24.742 95.8968 23.675 95.8968 22.509V12.939H98.0418V21.816C98.0418 23.026 98.1298 24.049 98.3058 24.885C98.4818 25.721 98.7678 26.403 99.1638 26.931C99.5598 27.437 100.066 27.811 100.682 28.053C101.32 28.273 102.09 28.383 102.992 28.383C104.004 28.383 104.884 28.328 105.632 28.218C106.38 28.108 106.853 28.009 107.051 27.921V12.939H109.196V29.406Z" fill="black"/>
<path d="M8.145 55.605C8.145 56.475 7.845 57.2 7.245 57.78C6.655 58.35 5.75 58.635 4.53 58.635H2.52V63H1.155V52.545H4.53C5.71 52.545 6.605 52.83 7.215 53.4C7.835 53.97 8.145 54.705 8.145 55.605ZM4.53 57.51C5.29 57.51 5.85 57.345 6.21 57.015C6.57 56.685 6.75 56.215 6.75 55.605C6.75 54.315 6.01 53.67 4.53 53.67H2.52V57.51H4.53ZM13.9265 63.135C13.1565 63.135 12.4565 62.96 11.8265 62.61C11.2065 62.26 10.7165 61.765 10.3565 61.125C10.0065 60.475 9.83152 59.725 9.83152 58.875C9.83152 58.035 10.0115 57.295 10.3715 56.655C10.7415 56.005 11.2415 55.51 11.8715 55.17C12.5015 54.82 13.2065 54.645 13.9865 54.645C14.7665 54.645 15.4715 54.82 16.1015 55.17C16.7315 55.51 17.2265 56 17.5865 56.64C17.9565 57.28 18.1415 58.025 18.1415 58.875C18.1415 59.725 17.9515 60.475 17.5715 61.125C17.2015 61.765 16.6965 62.26 16.0565 62.61C15.4165 62.96 14.7065 63.135 13.9265 63.135ZM13.9265 61.935C14.4165 61.935 14.8765 61.82 15.3065 61.59C15.7365 61.36 16.0815 61.015 16.3415 60.555C16.6115 60.095 16.7465 59.535 16.7465 58.875C16.7465 58.215 16.6165 57.655 16.3565 57.195C16.0965 56.735 15.7565 56.395 15.3365 56.175C14.9165 55.945 14.4615 55.83 13.9715 55.83C13.4715 55.83 13.0115 55.945 12.5915 56.175C12.1815 56.395 11.8515 56.735 11.6015 57.195C11.3515 57.655 11.2265 58.215 11.2265 58.875C11.2265 59.545 11.3465 60.11 11.5865 60.57C11.8365 61.03 12.1665 61.375 12.5765 61.605C12.9865 61.825 13.4365 61.935 13.9265 61.935ZM21.8013 56.295C22.0713 55.825 22.4713 55.435 23.0013 55.125C23.5413 54.805 24.1663 54.645 24.8763 54.645C25.6063 54.645 26.2663 54.82 26.8562 55.17C27.4562 55.52 27.9263 56.015 28.2663 56.655C28.6063 57.285 28.7763 58.02 28.7763 58.86C28.7763 59.69 28.6063 60.43 28.2663 61.08C27.9263 61.73 27.4562 62.235 26.8562 62.595C26.2663 62.955 25.6063 63.135 24.8763 63.135C24.1763 63.135 23.5563 62.98 23.0163 62.67C22.4863 62.35 22.0813 61.955 21.8013 61.485V66.9H20.4363V54.78H21.8013V56.295ZM27.3813 58.86C27.3813 58.24 27.2563 57.7 27.0063 57.24C26.7563 56.78 26.4163 56.43 25.9863 56.19C25.5663 55.95 25.1013 55.83 24.5913 55.83C24.0913 55.83 23.6263 55.955 23.1963 56.205C22.7763 56.445 22.4363 56.8 22.1763 57.27C21.9263 57.73 21.8013 58.265 21.8013 58.875C21.8013 59.495 21.9263 60.04 22.1763 60.51C22.4363 60.97 22.7763 61.325 23.1963 61.575C23.6263 61.815 24.0913 61.935 24.5913 61.935C25.1013 61.935 25.5663 61.815 25.9863 61.575C26.4163 61.325 26.7563 60.97 27.0063 60.51C27.2563 60.04 27.3813 59.49 27.3813 58.86ZM32.438 56.295C32.708 55.825 33.108 55.435 33.638 55.125C34.178 54.805 34.803 54.645 35.513 54.645C36.243 54.645 36.903 54.82 37.493 55.17C38.093 55.52 38.563 56.015 38.903 56.655C39.243 57.285 39.413 58.02 39.413 58.86C39.413 59.69 39.243 60.43 38.903 61.08C38.563 61.73 38.093 62.235 37.493 62.595C36.903 62.955 36.243 63.135 35.513 63.135C34.813 63.135 34.193 62.98 33.653 62.67C33.123 62.35 32.718 61.955 32.438 61.485V66.9H31.073V54.78H32.438V56.295ZM38.018 58.86C38.018 58.24 37.893 57.7 37.643 57.24C37.393 56.78 37.053 56.43 36.623 56.19C36.203 55.95 35.738 55.83 35.228 55.83C34.728 55.83 34.263 55.955 33.833 56.205C33.413 56.445 33.073 56.8 32.813 57.27C32.563 57.73 32.438 58.265 32.438 58.875C32.438 59.495 32.563 60.04 32.813 60.51C33.073 60.97 33.413 61.325 33.833 61.575C34.263 61.815 34.728 61.935 35.228 61.935C35.738 61.935 36.203 61.815 36.623 61.575C37.053 61.325 37.393 60.97 37.643 60.51C37.893 60.04 38.018 59.49 38.018 58.86ZM42.4147 53.445C42.1547 53.445 41.9347 53.355 41.7547 53.175C41.5747 52.995 41.4847 52.775 41.4847 52.515C41.4847 52.255 41.5747 52.035 41.7547 51.855C41.9347 51.675 42.1547 51.585 42.4147 51.585C42.6647 51.585 42.8747 51.675 43.0447 51.855C43.2247 52.035 43.3147 52.255 43.3147 52.515C43.3147 52.775 43.2247 52.995 43.0447 53.175C42.8747 53.355 42.6647 53.445 42.4147 53.445ZM43.0747 54.78V63H41.7097V54.78H43.0747ZM49.9061 54.63C50.9061 54.63 51.7161 54.935 52.3361 55.545C52.9561 56.145 53.2661 57.015 53.2661 58.155V63H51.9161V58.35C51.9161 57.53 51.7111 56.905 51.3011 56.475C50.8911 56.035 50.3311 55.815 49.6211 55.815C48.9011 55.815 48.3261 56.04 47.8961 56.49C47.4761 56.94 47.2661 57.595 47.2661 58.455V63H45.9011V54.78H47.2661V55.95C47.5361 55.53 47.9011 55.205 48.3611 54.975C48.8311 54.745 49.3461 54.63 49.9061 54.63ZM58.9058 63.135C58.2758 63.135 57.7108 63.03 57.2108 62.82C56.7108 62.6 56.3158 62.3 56.0258 61.92C55.7358 61.53 55.5758 61.085 55.5458 60.585H56.9558C56.9958 60.995 57.1858 61.33 57.5258 61.59C57.8758 61.85 58.3308 61.98 58.8908 61.98C59.4108 61.98 59.8208 61.865 60.1208 61.635C60.4208 61.405 60.5708 61.115 60.5708 60.765C60.5708 60.405 60.4108 60.14 60.0908 59.97C59.7708 59.79 59.2758 59.615 58.6058 59.445C57.9958 59.285 57.4958 59.125 57.1058 58.965C56.7258 58.795 56.3958 58.55 56.1158 58.23C55.8458 57.9 55.7108 57.47 55.7108 56.94C55.7108 56.52 55.8358 56.135 56.0858 55.785C56.3358 55.435 56.6908 55.16 57.1508 54.96C57.6108 54.75 58.1358 54.645 58.7258 54.645C59.6358 54.645 60.3708 54.875 60.9308 55.335C61.4908 55.795 61.7908 56.425 61.8308 57.225H60.4658C60.4358 56.795 60.2608 56.45 59.9408 56.19C59.6308 55.93 59.2108 55.8 58.6808 55.8C58.1908 55.8 57.8008 55.905 57.5108 56.115C57.2208 56.325 57.0758 56.6 57.0758 56.94C57.0758 57.21 57.1608 57.435 57.3308 57.615C57.5108 57.785 57.7308 57.925 57.9908 58.035C58.2608 58.135 58.6308 58.25 59.1008 58.38C59.6908 58.54 60.1708 58.7 60.5408 58.86C60.9108 59.01 61.2258 59.24 61.4858 59.55C61.7558 59.86 61.8958 60.265 61.9058 60.765C61.9058 61.215 61.7808 61.62 61.5308 61.98C61.2808 62.34 60.9258 62.625 60.4658 62.835C60.0158 63.035 59.4958 63.135 58.9058 63.135Z" fill="black"/>
</svg>
