<svg width="128" height="45" viewBox="0 0 128 45" fill="none" xmlns="http://www.w3.org/2000/svg">
<path d="M38.1753 36.2766H43.0117V36.6617H38.1753V36.2766Z" fill="#666666"/>
<path d="M47.2629 33.0611C47.2629 31.514 48.3403 30.5292 49.5595 30.5292C50.1744 30.5292 50.688 30.7901 51.1919 31.2319H51.2121L51.1919 30.2288V28.1975H51.494V35.4524H51.2324L51.1919 34.7092H51.1716C50.7382 35.1607 50.1039 35.5756 49.3983 35.5756C48.1288 35.5728 47.2629 34.689 47.2629 33.0611ZM51.1919 34.3472V31.5766C50.6127 31.024 50.074 30.8132 49.5392 30.8132C48.4513 30.8132 47.5854 31.8182 47.5854 33.064C47.5854 34.3906 48.2698 35.2945 49.4195 35.2945C50.0132 35.2916 50.6175 34.946 51.1919 34.3472Z" fill="#666666"/>
<path d="M55.0803 33.061C55.0803 31.4937 56.2291 30.5291 57.4782 30.5291C58.7679 30.5291 59.6145 31.3531 59.6145 32.7433C59.6173 32.8508 59.6105 32.9584 59.5943 33.0648H55.1817V32.7798H59.5132L59.3326 32.9406C59.3326 31.4966 58.5662 30.8102 57.4782 30.8102C56.4308 30.8102 55.4027 31.6342 55.4027 33.0407C55.4027 34.4848 56.4308 35.2915 57.5989 35.2915C58.2001 35.2965 58.7868 35.1077 59.2718 34.7534L59.4128 35.0152C58.9899 35.2867 58.4754 35.5774 57.5989 35.5774C56.2291 35.5726 55.0803 34.6282 55.0803 33.061Z" fill="#666666"/>
<path d="M62.858 34.8092L63.0395 34.5685C63.5637 34.9902 64.1979 35.2915 65.2598 35.2915C66.3217 35.2915 66.8516 34.8102 66.8516 34.2663C66.8516 33.8042 66.6904 33.4229 65.0783 33.1014C63.8697 32.8598 63.1476 32.4785 63.1476 31.7748C63.1476 31.1115 63.7017 30.5291 64.9818 30.5291C65.5957 30.5291 66.3419 30.7697 66.7947 31.1115L66.6084 31.3531C66.1331 30.9925 65.5509 30.8001 64.9538 30.8063C63.8156 30.8063 63.4623 31.2684 63.4623 31.7507C63.4623 32.2937 63.9865 32.5748 65.115 32.8097C66.8072 33.1611 67.1702 33.5433 67.1702 34.247C67.1702 34.9507 66.4645 35.5726 65.2395 35.5726C64.385 35.5737 63.5519 35.3066 62.858 34.8092Z" fill="#666666"/>
<path d="M73.1948 30.9306H70.7158V30.6495H73.497V35.4524H73.1948V30.9306ZM72.8318 29.0052C72.8358 28.9266 72.8628 28.8509 72.9095 28.7874C72.9562 28.724 73.0205 28.6756 73.0945 28.6482C73.1685 28.6208 73.2489 28.6157 73.3258 28.6334C73.4027 28.6511 73.4727 28.691 73.5271 28.748C73.5815 28.805 73.618 28.8766 73.632 28.9541C73.646 29.0315 73.6369 29.1114 73.6058 29.1838C73.5748 29.2561 73.5231 29.3178 73.4573 29.3612C73.3914 29.4046 73.3143 29.4278 73.2354 29.4279C73.18 29.429 73.125 29.4185 73.0739 29.3971C73.0229 29.3758 72.9768 29.344 72.9388 29.3038C72.9008 29.2636 72.8717 29.216 72.8532 29.1639C72.8348 29.1118 72.8275 29.0565 72.8318 29.0014V29.0052Z" fill="#666666"/>
<path d="M78.3121 36.3901C78.3121 36.0176 78.6143 35.5661 79.1385 35.2349V35.1954C78.989 35.1308 78.8617 35.024 78.7722 34.8882C78.6826 34.7524 78.6348 34.5935 78.6346 34.431C78.6346 34.1297 78.8363 33.788 79.2195 33.5271V33.4866C79.0385 33.3339 78.8938 33.1429 78.7961 32.9274C78.6984 32.7119 78.6502 32.4773 78.6548 32.2409C78.6553 32.0127 78.7014 31.787 78.7904 31.5768C78.8794 31.3666 79.0096 31.1763 79.1733 31.0169C79.337 30.8575 79.5309 30.7322 79.7437 30.6485C79.9565 30.5648 80.184 30.5242 80.4127 30.5292C80.6338 30.5228 80.8537 30.5639 81.0575 30.6496H83.0732V30.9307H81.5363C81.8588 31.232 82.1609 31.6845 82.1609 32.237C82.1609 33.1997 81.3751 33.9256 80.4079 33.9256C80.0774 33.9217 79.7526 33.8389 79.4609 33.684C79.1587 33.865 78.957 34.1259 78.957 34.3973C78.957 34.8902 79.4203 35.1107 80.1057 35.1107H81.3452C82.5644 35.1107 83.0683 35.412 83.0683 36.1755C83.0683 36.9793 82.103 37.8034 80.5691 37.8034C79.0352 37.8034 78.3121 37.2209 78.3121 36.3901ZM82.7459 36.1976C82.7459 35.62 82.3125 35.4342 81.4253 35.4342H80.2061C79.9582 35.4381 79.711 35.4077 79.4715 35.3437C78.846 35.6758 78.6346 36.057 78.6346 36.4286C78.6346 37.0419 79.2389 37.5242 80.5092 37.5242C81.909 37.5223 82.7459 36.8388 82.7459 36.1976ZM81.8385 32.239C81.8385 31.8606 81.6878 31.4977 81.4195 31.2301C81.1512 30.9626 80.7873 30.8122 80.4079 30.8122C80.0284 30.8122 79.6646 30.9626 79.3963 31.2301C79.128 31.4977 78.9772 31.8606 78.9772 32.239C78.9772 33.063 79.6221 33.6455 80.4079 33.6455C81.1937 33.6455 81.8385 33.0611 81.8385 32.237V32.239Z" fill="#666666"/>
<path d="M86.2511 30.6496H86.5127L86.5532 31.6123H86.5909C87.1701 30.9894 87.7397 30.5273 88.5216 30.5273C89.7003 30.5273 90.2746 31.1406 90.2746 32.4527V35.4467H89.9792V32.499C89.9792 31.363 89.5458 30.8104 88.5312 30.8104C87.8053 30.8104 87.3014 31.1955 86.5561 31.9762V35.4525H86.254L86.2511 30.6496Z" fill="#666666"/>
<path d="M33.0735 7.09985H17.7497C17.4474 7.09985 17.2024 7.34424 17.2024 7.6457V27.8451C17.2024 28.1465 17.4474 28.3909 17.7497 28.3909H33.0735C33.3758 28.3909 33.6209 28.1465 33.6209 27.8451V7.6457C33.6209 7.34424 33.3758 7.09985 33.0735 7.09985Z" fill="#005A72"/>
<path d="M28.1773 20.8906H22.6855L21.5763 24.417H19.8561L24.369 10.582H26.6057L31.1196 24.417H29.2855L28.1773 20.8906ZM23.1402 19.4466H27.7246L25.4473 12.0521L23.1402 19.4466Z" fill="white"/>
<path d="M14.8595 12.4775L15.6752 13.7733L8.5626 18.1238L15.6752 22.5146L14.7697 23.7498L7.11169 18.9777V17.2496L14.8595 12.4775Z" fill="#0A0A0A"/>
<path d="M46.3721 20.5854C46.3852 21.3298 46.1788 22.0616 45.7784 22.6899C45.3813 23.3035 44.8069 23.7826 44.0552 24.1272C43.3036 24.4718 42.3868 24.6445 41.305 24.6451C40.3659 24.658 39.4322 24.5014 38.5489 24.183C37.7626 23.8977 37.0441 23.4528 36.4387 22.8767L37.4765 21.7118C37.9636 22.1625 38.5262 22.5245 39.1388 22.7813C39.7637 23.0464 40.4957 23.1786 41.3349 23.178C41.8748 23.1826 42.4109 23.0889 42.9171 22.9017C43.3832 22.7345 43.7943 22.4428 44.1054 22.0584C44.4073 21.6797 44.5585 21.1983 44.5591 20.6143C44.571 20.2164 44.4806 19.822 44.2966 19.4687C44.1215 19.1536 43.8126 18.8741 43.3699 18.6302C42.9271 18.3863 42.3093 18.1469 41.5164 17.912C40.6994 17.6812 39.9052 17.3767 39.1436 17.0023C38.4756 16.6647 37.9585 16.2475 37.5923 15.7507C37.2261 15.254 37.043 14.6411 37.043 13.912C37.0329 13.2537 37.2342 12.6094 37.6174 12.0732C38.024 11.519 38.572 11.0836 39.2044 10.8121C39.9401 10.4952 40.7354 10.3393 41.5367 10.3548C42.4975 10.3548 43.3319 10.4906 44.0398 10.762C44.7487 11.0333 45.4027 11.4299 45.9705 11.9327L44.9424 13.0677C44.4781 12.6437 43.9336 12.3164 43.3409 12.105C42.7807 11.9088 42.1912 11.8085 41.5975 11.8085C41.1261 11.803 40.6573 11.8796 40.2122 12.0347C39.8222 12.1655 39.4745 12.3982 39.2054 12.7086C38.9449 13.0303 38.8104 13.4353 38.827 13.8485C38.8184 14.2163 38.9317 14.5767 39.1494 14.8737C39.3643 15.1613 39.7273 15.4241 40.2383 15.6622C40.9148 15.9605 41.6116 16.2108 42.3234 16.4112C43.0129 16.6071 43.6823 16.8676 44.3226 17.189C44.9154 17.482 45.4262 17.917 45.8093 18.455C46.1845 18.9915 46.3721 19.7017 46.3721 20.5854Z" fill="#0A0A0A"/>
<path d="M55.449 13.833V23.075H58.4416V24.4112H50.4872V23.0769H53.7616V15.1693H50.5837V13.833H55.449ZM54.0975 8.87995C54.2633 8.87231 54.4288 8.8987 54.5839 8.95749C54.739 9.01628 54.8804 9.10621 54.9992 9.22171C55.1088 9.33081 55.1952 9.46092 55.2531 9.6042C55.311 9.74748 55.3392 9.90096 55.3361 10.0554C55.3417 10.2177 55.3133 10.3794 55.2528 10.5302C55.1923 10.681 55.101 10.8176 54.9847 10.9312C54.8684 11.0449 54.7296 11.1331 54.5772 11.1903C54.4248 11.2476 54.2621 11.2725 54.0995 11.2636C53.9387 11.269 53.7785 11.2416 53.6288 11.1831C53.479 11.1245 53.3429 11.036 53.2287 10.923C53.1145 10.81 53.0247 10.675 52.9648 10.5261C52.9048 10.3772 52.8761 10.2177 52.8803 10.0573C52.8773 9.9024 52.9062 9.7485 52.9651 9.60512C53.024 9.46174 53.1118 9.33191 53.223 9.22364C53.3379 9.1098 53.4749 9.0206 53.6256 8.9615C53.7763 8.90239 53.9376 8.87464 54.0995 8.87995H54.0975Z" fill="#0A0A0A"/>
<path d="M63.9055 19.7209C63.9389 20.5385 64.0969 21.2066 64.3795 21.7252C64.6279 22.2107 65.0175 22.61 65.4973 22.8708C65.9631 23.1158 66.4825 23.2418 67.009 23.2376C67.5115 23.2443 68.0111 23.1625 68.485 22.996C68.9635 22.815 69.4174 22.5754 69.8365 22.2826L70.6329 23.3984C69.5872 24.2022 68.3052 24.6403 66.9849 24.6451C65.9552 24.6451 65.0787 24.414 64.3553 23.952C63.6243 23.4836 63.0478 22.811 62.6978 22.0179C62.3181 21.1912 62.1283 20.2318 62.1283 19.1394C62.1283 18.0676 62.3197 17.1165 62.7027 16.286C63.0502 15.4981 63.6078 14.8205 64.3148 14.3269C65.0073 13.8507 65.8233 13.6125 66.7629 13.6125C67.6561 13.6125 68.4252 13.8218 69.07 14.2402C69.7309 14.6778 70.2476 15.3 70.5557 16.0289C70.9026 16.7991 71.0757 17.7217 71.075 18.7967C71.075 18.9777 71.075 19.1471 71.0644 19.304C71.0538 19.461 71.048 19.6005 71.0345 19.7209H63.9055ZM66.787 15.0037C66.4183 14.9954 66.052 15.0655 65.7124 15.2092C65.3729 15.3529 65.0679 15.5671 64.8177 15.8373C64.29 16.3938 63.9895 17.2544 63.9161 18.4193H69.4465C69.4259 17.2885 69.1775 16.4361 68.7013 15.8624C68.225 15.2886 67.5857 15.0008 66.7832 14.9988L66.787 15.0037Z" fill="#0A0A0A"/>
<path d="M75.1652 24.4132V23.1174H76.8178V15.127H75.1652V13.8331H78.1065L78.4193 16.3362C78.8286 15.4659 79.3258 14.792 79.9108 14.3145C80.4958 13.837 81.268 13.5992 82.2276 13.6011C82.493 13.5999 82.758 13.6231 83.0192 13.6704C83.2508 13.7147 83.4877 13.7699 83.7296 13.836L83.2354 15.3436C83.0365 15.2879 82.8347 15.2426 82.6311 15.2079C82.4245 15.1759 82.2156 15.1608 82.0065 15.1626C81.6167 15.1577 81.2299 15.2319 80.8697 15.3809C80.5096 15.5299 80.1836 15.7504 79.9117 16.0291C79.3267 16.6067 78.8598 17.4773 78.511 18.6409V23.1222H80.6666V24.418L75.1652 24.4132ZM82.0963 17.4105V15.1145L82.2681 13.8379H83.7287L83.4864 17.4153L82.0963 17.4105Z" fill="#0A0A0A"/>
<path d="M87.6576 24.4131V23.1173H89.3093V15.1269H87.6576V13.833H90.599L90.9117 16.336C91.321 15.4658 91.8179 14.7919 92.4022 14.3144C92.9866 13.8369 93.7588 13.5991 94.719 13.601C94.984 13.5986 95.2487 13.6205 95.5096 13.6665C95.7413 13.7108 95.9782 13.766 96.2201 13.8321L95.7259 15.3396C95.5269 15.284 95.3252 15.2387 95.1216 15.2039C94.915 15.172 94.7061 15.1569 94.497 15.1587C94.107 15.1538 93.7201 15.2281 93.3598 15.3771C92.9996 15.526 92.6734 15.7465 92.4013 16.0251C91.8169 16.6027 91.3503 17.4733 91.0015 18.6369V23.1183H93.1552V24.4141L87.6576 24.4131ZM94.5887 17.4104V15.1144L94.7605 13.8378H96.2211L95.9788 17.4152L94.5887 17.4104Z" fill="#0A0A0A"/>
<path d="M107.646 22.1026C107.646 22.5243 107.716 22.8323 107.857 23.0268C108.023 23.2377 108.252 23.3891 108.512 23.4581L108.099 24.6451C107.67 24.595 107.26 24.4452 106.9 24.208C106.557 23.977 106.308 23.6269 106.154 23.1577C105.778 23.6416 105.286 24.0236 104.724 24.2687C104.126 24.5254 103.481 24.6537 102.83 24.6451C101.769 24.6451 100.933 24.347 100.32 23.7507C99.7073 23.1545 99.4019 22.3641 99.4038 21.3796C99.4038 20.2886 99.8302 19.4513 100.683 18.8679C101.536 18.2845 102.768 17.9932 104.38 17.9938H105.942V17.11C105.942 16.3463 105.719 15.8053 105.272 15.4869C104.825 15.1686 104.206 15.0081 103.413 15.0056C103 15.0116 102.589 15.0535 102.184 15.1307C101.663 15.228 101.151 15.3674 100.653 15.5476L100.21 14.272C100.805 14.0463 101.418 13.8745 102.044 13.7589C102.583 13.6629 103.13 13.6139 103.677 13.6125C105 13.6125 105.992 13.919 106.654 14.5319C107.317 15.1448 107.647 15.9769 107.647 17.0282L107.646 22.1026ZM103.263 23.3541C103.79 23.3536 104.307 23.2169 104.764 22.9575C105.242 22.6924 105.646 22.3146 105.943 21.8571V19.1384H104.412C103.243 19.1384 102.419 19.3393 101.938 19.7411C101.457 20.1429 101.217 20.682 101.218 21.3584C101.218 22.015 101.387 22.5124 101.726 22.8506C102.066 23.1888 102.578 23.358 103.263 23.358V23.3541Z" fill="#0A0A0A"/>
<path d="M113.106 12.4775L120.854 17.2496V18.9777L113.206 23.7498L112.29 22.5041L119.403 18.1238L112.29 13.7531L113.106 12.4775Z" fill="#0A0A0A"/>
</svg>
